SplineFontDB: 3.2
FontName: VictorFFira-Italic
FullName: Victor F Fira Italic
FamilyName: Victor F Fira
Weight: Regular
Copyright: Copyright (c) 2019 by Rune Bjrneras. All rights reserved.
Version: 1.0
ItalicAngle: -12
UnderlinePosition: -227
UnderlineWidth: 90
Ascent: 1600
Descent: 400
InvalidEm: 0
sfntRevision: 0x00010000
LayerCount: 2
Layer: 0 1 "Back" 1
Layer: 1 1 "Fore" 0
XUID: [1021 685 -1151724439 16691377]
StyleMap: 0x0001
FSType: 0
OS2Version: 4
OS2_WeightWidthSlopeOnly: 0
OS2_UseTypoMetrics: 1
CreationTime: 1604393184
ModificationTime: 1606071157
PfmFamily: 17
TTFWeight: 400
TTFWidth: 5
LineGap: 0
VLineGap: 0
Panose: 2 11 8 9 5 0 0 2 0 4
OS2TypoAscent: 1980
OS2TypoAOffset: 0
OS2TypoDescent: -644
OS2TypoDOffset: 0
OS2TypoLinegap: 0
OS2WinAscent: 2164
OS2WinAOffset: 0
OS2WinDescent: 1000
OS2WinDOffset: 0
HheadAscent: 1980
HheadAOffset: 0
HheadDescent: -644
HheadDOffset: 0
OS2SubXSize: 1300
OS2SubYSize: 1200
OS2SubXOff: 0
OS2SubYOff: 150
OS2SupXSize: 1300
OS2SupYSize: 1200
OS2SupXOff: 0
OS2SupYOff: 700
OS2StrikeYSize: 51
OS2StrikeYPos: 630
OS2CapHeight: 1374
OS2XHeight: 1050
OS2Vendor: 'UKWN'
OS2CodePages: 6000019f.00000000
OS2UnicodeRanges: 20000287.00001801.00000000.00000000
Lookup: 1 0 0 "'aalt' Access All Alternates lookup 0" { "'aalt' Access All Alternates lookup 0 subtable"  } ['aalt' ('DFLT' <'dflt' > 'cyrl' <'BGR ' 'SRB ' 'dflt' > 'latn' <'AZE ' 'CRT ' 'KAZ ' 'MOL ' 'ROM ' 'TAT ' 'TRK ' 'dflt' > ) ]
Lookup: 3 0 0 "'aalt' Access All Alternates lookup 1" { "'aalt' Access All Alternates lookup 1 subtable"  } ['aalt' ('DFLT' <'dflt' > 'cyrl' <'BGR ' 'SRB ' 'dflt' > 'latn' <'AZE ' 'CRT ' 'KAZ ' 'MOL ' 'ROM ' 'TAT ' 'TRK ' 'dflt' > ) ]

StartChar: .notdef
Encoding: 65536 -1 0
Width: 1200
Flags: W
LayerCount: 2
Fore
SplineSet
702 0 m 1,0,-1
 58 0 l 1,1,-1
 373 1480 l 1,2,-1
 1016 1480 l 1,3,-1
 702 0 l 1,0,-1
496 1340 m 1,4,-1
 242 140 l 1,5,-1
 580 140 l 1,6,-1
 835 1340 l 1,7,-1
 496 1340 l 1,4,-1
EndSplineSet
Validated: 1
EndChar

StartChar: A
Encoding: 65 65 4
Width: 1200
GlyphClass: 2
Flags: W
AnchorPoint: "Anchor-14" 791 1460 basechar 0
AnchorPoint: "Anchor-13" 880 0 basechar 0
AnchorPoint: "Anchor-12" 480 -5 basechar 0
LayerCount: 2
Fore
SplineSet
965 0 m 1,0,-1
 811 0 l 1,1,-1
 789 364 l 1,2,-1
 329 364 l 1,3,-1
 153 0 l 1,4,-1
 -7 0 l 1,5,-1
 705 1455 l 1,6,-1
 869 1455 l 1,7,-1
 965 0 l 1,0,-1
738 1202 m 1,8,-1
 398 505 l 1,9,-1
 780 505 l 1,10,-1
 738 1202 l 1,8,-1
EndSplineSet
Validated: 1048577
Substitution2: "Single Substitution lookup 140 subtable" ordfeminine
Substitution2: "'aalt' Access All Alternates lookup 0 subtable" ordfeminine
EndChar

StartChar: Aogonek
Encoding: 260 260 24
Width: 1200
GlyphClass: 2
Flags: W
AnchorPoint: "Anchor-14" 791 1460 basechar 0
AnchorPoint: "Anchor-13" 880 0 basechar 0
AnchorPoint: "Anchor-12" 480 -5 basechar 0
LayerCount: 2
Fore
SplineSet
991 -280 m 1,0,1
 960 -315 960 -315 905.5 -335.5 c 128,-1,2
 851 -356 851 -356 795 -356 c 0,3,4
 695 -356 695 -356 634 -314.5 c 128,-1,5
 573 -273 573 -273 573 -202 c 0,6,7
 573 -138 573 -138 643 -78 c 128,-1,8
 713 -18 713 -18 811 11 c 1,9,-1
 789 364 l 1,10,-1
 329 364 l 1,11,-1
 153 0 l 1,12,-1
 -7 0 l 1,13,-1
 705 1455 l 1,14,-1
 869 1455 l 1,15,-1
 965 0 l 1,16,17
 830 -64 830 -64 777 -99.5 c 128,-1,18
 724 -135 724 -135 724 -169 c 0,19,20
 724 -216 724 -216 796 -216 c 0,21,22
 821 -216 821 -216 846 -206 c 128,-1,23
 871 -196 871 -196 885 -180 c 1,24,-1
 991 -280 l 1,0,1
738 1202 m 1,25,-1
 398 505 l 1,26,-1
 780 505 l 1,27,-1
 738 1202 l 1,25,-1
EndSplineSet
Validated: 1048577
EndChar

StartChar: Aring
Encoding: 197 197 25
Width: 1200
GlyphClass: 2
Flags: W
AnchorPoint: "Anchor-14" 833 1656 basechar 0
AnchorPoint: "Anchor-13" 880 0 basechar 0
AnchorPoint: "Anchor-12" 480 -5 basechar 0
LayerCount: 2
Fore
SplineSet
1027.5 1767.5 m 128,-1,1
 1082 1731 1082 1731 1082 1645 c 0,2,3
 1082 1607 1082 1607 1071 1555 c 0,4,5
 1049 1453 1049 1453 1004.5 1402 c 128,-1,6
 960 1351 960 1351 876 1336 c 1,7,-1
 965 0 l 1,8,-1
 811 0 l 1,9,-1
 789 364 l 1,10,-1
 329 364 l 1,11,-1
 153 0 l 1,12,-1
 -7 0 l 1,13,-1
 651 1344 l 1,14,15
 598 1360 598 1360 572.5 1396.5 c 128,-1,16
 547 1433 547 1433 547 1491 c 0,17,18
 547 1531 547 1531 558 1580 c 0,19,20
 587 1705 587 1705 651 1754.5 c 128,-1,21
 715 1804 715 1804 851 1804 c 0,22,0
 973 1804 973 1804 1027.5 1767.5 c 128,-1,1
929 1624 m 0,24,25
 929 1648 929 1648 912 1656 c 128,-1,26
 895 1664 895 1664 847 1664 c 0,27,28
 778 1664 778 1664 750 1641 c 128,-1,29
 722 1618 722 1618 707 1555 c 0,30,31
 700 1519 700 1519 700 1511 c 0,32,33
 700 1486 700 1486 717.5 1477.5 c 128,-1,34
 735 1469 735 1469 780 1469 c 0,35,36
 851 1469 851 1469 880 1492.5 c 128,-1,37
 909 1516 909 1516 922 1580 c 0,38,23
 929 1617 929 1617 929 1624 c 0,24,25
738 1202 m 1,39,-1
 398 505 l 1,40,-1
 780 505 l 1,41,-1
 738 1202 l 1,39,-1
EndSplineSet
Validated: 1048577
EndChar

StartChar: AE
Encoding: 198 198 27
Width: 1200
GlyphClass: 2
Flags: W
AnchorPoint: "Anchor-14" 789 1455 basechar 0
AnchorPoint: "Anchor-12" 480 0 basechar 0
LayerCount: 2
Fore
SplineSet
1316 1455 m 1,0,-1
 1289 1315 l 1,1,-1
 900 1315 l 1,2,-1
 780 756 l 1,3,-1
 1036 756 l 1,4,-1
 1007 615 l 1,5,-1
 753 615 l 1,6,-1
 651 140 l 1,7,-1
 1038 140 l 1,8,-1
 1007 0 l 1,9,-1
 467 0 l 1,10,-1
 562 447 l 1,11,-1
 309 447 l 1,12,-1
 100 0 l 1,13,-1
 -58 0 l 1,14,-1
 624 1455 l 1,15,-1
 1316 1455 l 1,0,-1
376 589 m 1,16,-1
 593 589 l 1,17,-1
 747 1315 l 1,18,-1
 716 1315 l 1,19,-1
 376 589 l 1,16,-1
EndSplineSet
Validated: 1048577
EndChar

StartChar: B
Encoding: 66 66 28
Width: 1200
GlyphClass: 2
Flags: W
AnchorPoint: "Anchor-14" 789 1455 basechar 0
AnchorPoint: "Anchor-12" 480 0 basechar 0
LayerCount: 2
Fore
SplineSet
75 0 m 1,0,-1
 384 1455 l 1,1,-1
 755 1455 l 2,2,3
 948 1455 948 1455 1032 1397.5 c 128,-1,4
 1116 1340 1116 1340 1116 1209 c 0,5,6
 1116 1149 1116 1149 1100 1069 c 0,7,8
 1075 945 1075 945 1031 883.5 c 128,-1,9
 987 822 987 822 895 776 c 1,10,11
 962 747 962 747 993.5 698 c 128,-1,12
 1025 649 1025 649 1025 569 c 0,13,14
 1025 509 1025 509 1005 409 c 0,15,16
 972 253 972 253 915 165.5 c 128,-1,17
 858 78 858 78 761 39 c 128,-1,18
 664 0 664 0 504 0 c 2,19,-1
 75 0 l 1,0,-1
624 840 m 2,20,21
 733 840 733 840 795.5 861 c 128,-1,22
 858 882 858 882 894.5 935.5 c 128,-1,23
 931 989 931 989 953 1093 c 0,24,25
 966 1157 966 1157 965 1185 c 0,26,27
 965 1258 965 1258 915 1286.5 c 128,-1,28
 865 1315 865 1315 738 1315 c 2,29,-1
 507 1315 l 1,30,-1
 405 840 l 1,31,-1
 624 840 l 2,20,21
520 140 m 2,32,33
 627 140 627 140 691.5 167.5 c 128,-1,34
 756 195 756 195 795.5 257.5 c 128,-1,35
 835 320 835 320 858 433 c 0,36,37
 874 513 874 513 875 562 c 0,38,39
 875 644 875 644 825.5 671 c 128,-1,40
 776 698 776 698 653 698 c 2,41,-1
 376 698 l 1,42,-1
 258 140 l 1,43,-1
 520 140 l 2,32,33
EndSplineSet
Validated: 1048609
EndChar

StartChar: C
Encoding: 67 67 29
Width: 1200
GlyphClass: 2
Flags: W
AnchorPoint: "Anchor-14" 789 1455 basechar 0
AnchorPoint: "Anchor-12" 480 0 basechar 0
LayerCount: 2
Fore
SplineSet
232 61 m 128,-1,1
 144 147 144 147 144 344 c 0,2,3
 144 499 144 499 196 742 c 0,4,5
 256 1022 256 1022 331.5 1181 c 128,-1,6
 407 1340 407 1340 520 1410 c 128,-1,7
 633 1480 633 1480 809 1480 c 0,8,9
 934 1480 934 1480 1008 1446.5 c 128,-1,10
 1082 1413 1082 1413 1118.5 1337.5 c 128,-1,11
 1155 1262 1155 1262 1165 1133 c 1,12,-1
 1016 1095 l 1,13,14
 1007 1197 1007 1197 986 1248.5 c 128,-1,15
 965 1300 965 1300 924.5 1320 c 128,-1,16
 884 1340 884 1340 805 1340 c 0,17,18
 680 1340 680 1340 596.5 1282 c 128,-1,19
 513 1224 513 1224 454 1090 c 128,-1,20
 395 956 395 956 344 716 c 0,21,22
 293 478 293 478 293 356 c 0,23,24
 293 225 293 225 346.5 170 c 128,-1,25
 400 115 400 115 520 115 c 0,26,27
 604 115 604 115 659.5 137.5 c 128,-1,28
 715 160 715 160 760 212.5 c 128,-1,29
 805 265 805 265 856 365 c 1,30,-1
 995 305 l 1,31,32
 930 176 930 176 865 105.5 c 128,-1,33
 800 35 800 35 718 5 c 128,-1,34
 636 -25 636 -25 516 -25 c 0,35,0
 320 -25 320 -25 232 61 c 128,-1,1
EndSplineSet
Validated: 1048577
EndChar

StartChar: Ccedilla
Encoding: 199 199 32
Width: 1200
GlyphClass: 2
Flags: W
AnchorPoint: "Anchor-14" 789 1455 basechar 0
AnchorPoint: "Anchor-12" 480 0 basechar 0
LayerCount: 2
Fore
SplineSet
596.5 1282 m 128,-1,1
 513 1224 513 1224 454 1090 c 128,-1,2
 395 956 395 956 344 716 c 0,3,4
 293 478 293 478 293 356 c 0,5,6
 293 225 293 225 346.5 170 c 128,-1,7
 400 115 400 115 520 115 c 0,8,9
 604 115 604 115 659.5 137.5 c 128,-1,10
 715 160 715 160 760 212.5 c 128,-1,11
 805 265 805 265 856 365 c 1,12,-1
 995 305 l 1,13,14
 931 181 931 181 869 111.5 c 128,-1,15
 807 42 807 42 731 10 c 128,-1,16
 655 -22 655 -22 545 -25 c 1,17,-1
 529 -82 l 1,18,19
 580 -95 580 -95 609 -130 c 128,-1,20
 638 -165 638 -165 638 -215 c 0,21,22
 638 -233 638 -233 636 -242 c 0,23,24
 620 -318 620 -318 552 -365.5 c 128,-1,25
 484 -413 484 -413 389 -413 c 0,26,27
 325 -413 325 -413 276 -390 c 128,-1,28
 227 -367 227 -367 205 -333 c 1,29,-1
 282 -233 l 1,30,31
 295 -251 295 -251 325.5 -261 c 128,-1,32
 356 -271 356 -271 395 -271 c 256,33,34
 433 -271 433 -271 460 -253.5 c 128,-1,35
 487 -236 487 -236 487 -213 c 0,36,37
 487 -197 487 -197 455.5 -187.5 c 128,-1,38
 424 -178 424 -178 367 -178 c 1,39,-1
 396 -16 l 1,40,41
 265 9 265 9 204.5 94.5 c 128,-1,42
 144 180 144 180 144 344 c 0,43,44
 144 499 144 499 196 742 c 0,45,46
 256 1022 256 1022 331.5 1181 c 128,-1,47
 407 1340 407 1340 520 1410 c 128,-1,48
 633 1480 633 1480 809 1480 c 0,49,50
 934 1480 934 1480 1008 1446.5 c 128,-1,51
 1082 1413 1082 1413 1118.5 1337.5 c 128,-1,52
 1155 1262 1155 1262 1165 1133 c 1,53,-1
 1016 1095 l 1,54,55
 1007 1197 1007 1197 986 1248.5 c 128,-1,56
 965 1300 965 1300 924.5 1320 c 128,-1,57
 884 1340 884 1340 805 1340 c 0,58,0
 680 1340 680 1340 596.5 1282 c 128,-1,1
EndSplineSet
Validated: 1048577
EndChar

StartChar: D
Encoding: 68 68 35
Width: 1200
GlyphClass: 2
Flags: W
AnchorPoint: "Anchor-14" 789 1455 basechar 0
AnchorPoint: "Anchor-12" 480 0 basechar 0
LayerCount: 2
Fore
SplineSet
807 1455 m 2,0,1
 987 1455 987 1455 1070 1372 c 128,-1,2
 1153 1289 1153 1289 1153 1102 c 0,3,4
 1153 958 1153 958 1102 715 c 0,5,6
 1044 442 1044 442 971 289 c 128,-1,7
 898 136 898 136 789 68 c 128,-1,8
 680 0 680 0 511 0 c 2,9,-1
 58 0 l 1,10,-1
 367 1455 l 1,11,-1
 807 1455 l 2,0,1
1002 1087 m 0,13,14
 1002 1212 1002 1212 953 1263.5 c 128,-1,15
 904 1315 904 1315 791 1315 c 2,16,-1
 489 1315 l 1,17,-1
 242 140 l 1,18,-1
 527 140 l 2,19,20
 642 140 642 140 718.5 195.5 c 128,-1,21
 795 251 795 251 850 380 c 128,-1,22
 905 509 905 509 955 740 c 0,23,12
 1002 967 1002 967 1002 1087 c 0,13,14
EndSplineSet
Validated: 1048577
EndChar

StartChar: Eth
Encoding: 208 208 36
Width: 1200
Flags: W
LayerCount: 2
Fore
SplineSet
813 1455 m 2,0,1
 993 1455 993 1455 1075.5 1372 c 128,-1,2
 1158 1289 1158 1289 1158 1102 c 0,3,4
 1158 958 1158 958 1107 715 c 0,5,6
 1049 442 1049 442 976.5 289 c 128,-1,7
 904 136 904 136 794.5 68 c 128,-1,8
 685 0 685 0 516 0 c 2,9,-1
 64 0 l 1,10,-1
 213 698 l 1,11,-1
 118 698 l 1,12,-1
 147 840 l 1,13,-1
 242 840 l 1,14,-1
 373 1455 l 1,15,-1
 813 1455 l 2,0,1
1007 1087 m 0,17,18
 1007 1212 1007 1212 958 1263.5 c 128,-1,19
 909 1315 909 1315 796 1315 c 2,20,-1
 495 1315 l 1,21,-1
 395 840 l 1,22,-1
 656 840 l 1,23,-1
 629 698 l 1,24,-1
 365 698 l 1,25,-1
 247 140 l 1,26,-1
 533 140 l 2,27,28
 648 140 648 140 724 195.5 c 128,-1,29
 800 251 800 251 855.5 380 c 128,-1,30
 911 509 911 509 960 740 c 0,31,16
 1007 967 1007 967 1007 1087 c 0,17,18
EndSplineSet
Validated: 1
EndChar

StartChar: E
Encoding: 69 69 39
Width: 1200
GlyphClass: 2
Flags: W
AnchorPoint: "Anchor-14" 816 1460 basechar 0
AnchorPoint: "Anchor-13" 838 0 basechar 0
AnchorPoint: "Anchor-12" 505 -5 basechar 0
LayerCount: 2
Fore
SplineSet
1231 1455 m 1,0,-1
 1202 1315 l 1,1,-1
 520 1315 l 1,2,-1
 424 840 l 1,3,-1
 856 840 l 1,4,-1
 827 698 l 1,5,-1
 387 698 l 1,6,-1
 273 140 l 1,7,-1
 953 140 l 1,8,-1
 924 0 l 1,9,-1
 91 0 l 1,10,-1
 398 1455 l 1,11,-1
 1231 1455 l 1,0,-1
EndSplineSet
Validated: 1048577
EndChar

StartChar: Eogonek
Encoding: 280 280 54
Width: 1200
GlyphClass: 2
Flags: W
AnchorPoint: "Anchor-14" 816 1460 basechar 0
AnchorPoint: "Anchor-13" 838 0 basechar 0
AnchorPoint: "Anchor-12" 505 -5 basechar 0
LayerCount: 2
Fore
SplineSet
1202 1315 m 1,0,-1
 520 1315 l 1,1,-1
 424 840 l 1,2,-1
 856 840 l 1,3,-1
 827 698 l 1,4,-1
 387 698 l 1,5,-1
 273 140 l 1,6,-1
 953 140 l 1,7,-1
 924 0 l 1,8,9
 789 -64 789 -64 735.5 -99.5 c 128,-1,10
 682 -135 682 -135 682 -169 c 0,11,12
 682 -216 682 -216 755 -216 c 0,13,14
 780 -216 780 -216 804.5 -206 c 128,-1,15
 829 -196 829 -196 844 -180 c 1,16,-1
 949 -280 l 1,17,18
 918 -315 918 -315 863.5 -335.5 c 128,-1,19
 809 -356 809 -356 753 -356 c 0,20,21
 653 -356 653 -356 592 -314.5 c 128,-1,22
 531 -273 531 -273 531 -202 c 0,23,24
 531 -144 531 -144 590 -88.5 c 128,-1,25
 649 -33 649 -33 736 0 c 1,26,-1
 91 0 l 1,27,-1
 398 1455 l 1,28,-1
 1231 1455 l 1,29,-1
 1202 1315 l 1,0,-1
EndSplineSet
Validated: 1048577
EndChar

StartChar: F
Encoding: 70 70 56
Width: 1200
GlyphClass: 2
Flags: W
AnchorPoint: "Anchor-14" 789 1455 basechar 0
AnchorPoint: "Anchor-12" 480 0 basechar 0
LayerCount: 2
Fore
SplineSet
1233 1455 m 1,0,-1
 1204 1315 l 1,1,-1
 522 1315 l 1,2,-1
 405 756 l 1,3,-1
 840 756 l 1,4,-1
 813 615 l 1,5,-1
 373 615 l 1,6,-1
 244 0 l 1,7,-1
 91 0 l 1,8,-1
 400 1455 l 1,9,-1
 1233 1455 l 1,0,-1
EndSplineSet
Validated: 1048577
EndChar

StartChar: G
Encoding: 71 71 57
Width: 1200
GlyphClass: 2
Flags: W
AnchorPoint: "Anchor-14" 789 1455 basechar 0
AnchorPoint: "Anchor-12" 480 0 basechar 0
LayerCount: 2
Fore
SplineSet
226.5 57.5 m 128,-1,1
 135 140 135 140 135 338 c 0,2,3
 135 491 135 491 187 740 c 0,4,5
 249 1029 249 1029 325.5 1187 c 128,-1,6
 402 1345 402 1345 517.5 1412.5 c 128,-1,7
 633 1480 633 1480 816 1480 c 0,8,9
 952 1480 952 1480 1029.5 1443.5 c 128,-1,10
 1107 1407 1107 1407 1142.5 1324.5 c 128,-1,11
 1178 1242 1178 1242 1185 1095 c 1,12,-1
 1036 1071 l 1,13,14
 1031 1176 1031 1176 1009 1234.5 c 128,-1,15
 987 1293 987 1293 941.5 1316.5 c 128,-1,16
 896 1340 896 1340 813 1340 c 0,17,18
 680 1340 680 1340 593.5 1282 c 128,-1,19
 507 1224 507 1224 446 1089.5 c 128,-1,20
 385 955 385 955 335 715 c 0,21,22
 286 479 286 479 285 362 c 0,23,24
 285 227 285 227 342.5 171 c 128,-1,25
 400 115 400 115 527 115 c 0,26,27
 642 115 642 115 713 162 c 128,-1,28
 784 209 784 209 849 325 c 1,29,-1
 915 615 l 1,30,-1
 598 615 l 1,31,-1
 625 756 l 1,32,-1
 1095 756 l 1,33,-1
 998 293 l 1,34,35
 931 168 931 168 867.5 99.5 c 128,-1,36
 804 31 804 31 723 3 c 128,-1,37
 642 -25 642 -25 524 -25 c 0,38,0
 318 -25 318 -25 226.5 57.5 c 128,-1,1
EndSplineSet
Validated: 1048577
EndChar

StartChar: H
Encoding: 72 72 62
Width: 1200
GlyphClass: 2
Flags: W
AnchorPoint: "Anchor-14" 789 1455 basechar 0
AnchorPoint: "Anchor-12" 480 0 basechar 0
LayerCount: 2
Fore
SplineSet
929 840 m 1,0,-1
 1060 1455 l 1,1,-1
 1213 1455 l 1,2,-1
 904 0 l 1,3,-1
 751 0 l 1,4,-1
 900 698 l 1,5,-1
 358 698 l 1,6,-1
 209 0 l 1,7,-1
 56 0 l 1,8,-1
 365 1455 l 1,9,-1
 518 1455 l 1,10,-1
 387 840 l 1,11,-1
 929 840 l 1,0,-1
EndSplineSet
Validated: 1048577
EndChar

StartChar: Hbar
Encoding: 294 294 63
Width: 1200
GlyphClass: 2
Flags: W
AnchorPoint: "Anchor-14" 789 1455 basechar 0
AnchorPoint: "Anchor-12" 480 0 basechar 0
LayerCount: 2
Fore
SplineSet
1147 1144 m 1,0,-1
 1233 1144 l 1,1,-1
 1204 1004 l 1,2,-1
 1116 1004 l 1,3,-1
 904 0 l 1,4,-1
 751 0 l 1,5,-1
 900 698 l 1,6,-1
 358 698 l 1,7,-1
 209 0 l 1,8,-1
 56 0 l 1,9,-1
 269 1004 l 1,10,-1
 185 1004 l 1,11,-1
 215 1144 l 1,12,-1
 300 1144 l 1,13,-1
 365 1455 l 1,14,-1
 518 1455 l 1,15,-1
 453 1144 l 1,16,-1
 995 1144 l 1,17,-1
 1060 1455 l 1,18,-1
 1213 1455 l 1,19,-1
 1147 1144 l 1,0,-1
387 840 m 1,20,-1
 929 840 l 1,21,-1
 964 1004 l 1,22,-1
 422 1004 l 1,23,-1
 387 840 l 1,20,-1
EndSplineSet
Validated: 1048577
EndChar

StartChar: I
Encoding: 73 73 65
Width: 1200
GlyphClass: 2
Flags: W
AnchorPoint: "Anchor-14" 791 1460 basechar 0
AnchorPoint: "Anchor-13" 549 0 basechar 0
AnchorPoint: "Anchor-12" 480 -5 basechar 0
LayerCount: 2
Fore
SplineSet
1160 1455 m 1,0,-1
 1131 1315 l 1,1,-1
 836 1315 l 1,2,-1
 585 140 l 1,3,-1
 882 140 l 1,4,-1
 851 0 l 1,5,-1
 109 0 l 1,6,-1
 140 140 l 1,7,-1
 433 140 l 1,8,-1
 684 1315 l 1,9,-1
 389 1315 l 1,10,-1
 418 1455 l 1,11,-1
 1160 1455 l 1,0,-1
EndSplineSet
Validated: 1048577
EndChar

StartChar: Iogonek
Encoding: 302 302 75
Width: 1200
GlyphClass: 2
Flags: W
AnchorPoint: "Anchor-14" 791 1460 basechar 0
AnchorPoint: "Anchor-13" 549 0 basechar 0
AnchorPoint: "Anchor-12" 480 -5 basechar 0
LayerCount: 2
Fore
SplineSet
1131 1315 m 1,0,-1
 836 1315 l 1,1,-1
 585 140 l 1,2,-1
 882 140 l 1,3,-1
 851 0 l 1,4,-1
 635 0 l 1,5,6
 500 -64 500 -64 446.5 -99.5 c 128,-1,7
 393 -135 393 -135 393 -169 c 0,8,9
 393 -216 393 -216 465 -216 c 0,10,11
 490 -216 490 -216 515 -206 c 128,-1,12
 540 -196 540 -196 555 -180 c 1,13,-1
 660 -280 l 1,14,15
 629 -315 629 -315 574.5 -335.5 c 128,-1,16
 520 -356 520 -356 464 -356 c 0,17,18
 364 -356 364 -356 303 -314.5 c 128,-1,19
 242 -273 242 -273 242 -202 c 0,20,21
 242 -144 242 -144 301 -88.5 c 128,-1,22
 360 -33 360 -33 447 0 c 1,23,-1
 109 0 l 1,24,-1
 140 140 l 1,25,-1
 433 140 l 1,26,-1
 684 1315 l 1,27,-1
 389 1315 l 1,28,-1
 418 1455 l 1,29,-1
 1160 1455 l 1,30,-1
 1131 1315 l 1,0,-1
EndSplineSet
Validated: 1048577
EndChar

StartChar: J
Encoding: 74 74 77
Width: 1200
GlyphClass: 2
Flags: W
AnchorPoint: "Anchor-14" 1005 1455 basechar 0
AnchorPoint: "Anchor-12" 480 0 basechar 0
LayerCount: 2
Fore
SplineSet
222.5 8.5 m 128,-1,1
 149 42 149 42 112.5 115.5 c 128,-1,2
 76 189 76 189 67 318 c 1,3,-1
 213 345 l 1,4,5
 222 249 222 249 242 201 c 128,-1,6
 262 153 262 153 304.5 134 c 128,-1,7
 347 115 347 115 427 115 c 0,8,9
 552 115 552 115 633.5 165 c 128,-1,10
 715 215 715 215 770 334 c 128,-1,11
 825 453 825 453 871 667 c 2,12,-1
 1009 1315 l 1,13,-1
 771 1315 l 1,14,-1
 800 1455 l 1,15,-1
 1191 1455 l 1,16,-1
 1022 655 l 2,17,18
 966 393 966 393 893 247.5 c 128,-1,19
 820 102 820 102 709 38.5 c 128,-1,20
 598 -25 598 -25 424 -25 c 0,21,0
 296 -25 296 -25 222.5 8.5 c 128,-1,1
EndSplineSet
Validated: 1048577
EndChar

StartChar: K
Encoding: 75 75 79
Width: 1200
GlyphClass: 2
Flags: W
AnchorPoint: "Anchor-14" 789 1455 basechar 0
AnchorPoint: "Anchor-12" 480 0 basechar 0
LayerCount: 2
Fore
SplineSet
1116 1455 m 1,0,-1
 1311 1455 l 1,1,-1
 631 813 l 1,2,-1
 998 0 l 1,3,-1
 824 0 l 1,4,-1
 509 698 l 1,5,-1
 369 698 l 1,6,-1
 220 0 l 1,7,-1
 67 0 l 1,8,-1
 376 1455 l 1,9,-1
 529 1455 l 1,10,-1
 398 840 l 1,11,-1
 465 840 l 1,12,-1
 1116 1455 l 1,0,-1
EndSplineSet
Validated: 1048577
EndChar

StartChar: L
Encoding: 76 76 81
Width: 1200
GlyphClass: 2
Flags: W
AnchorPoint: "Anchor-15" 1298 1455 basechar 0
AnchorPoint: "Anchor-14" 549 1455 basechar 0
AnchorPoint: "Anchor-12" 480 0 basechar 0
LayerCount: 2
Fore
SplineSet
885 0 m 1,0,-1
 124 0 l 1,1,-1
 433 1455 l 1,2,-1
 585 1455 l 1,3,-1
 307 140 l 1,4,-1
 916 140 l 1,5,-1
 885 0 l 1,0,-1
EndSplineSet
Validated: 1048577
EndChar

StartChar: Lcaron
Encoding: 317 317 83
Width: 1200
GlyphClass: 2
Flags: W
AnchorPoint: "Anchor-15" 1298 1455 basechar 0
AnchorPoint: "Anchor-14" 549 1455 basechar 0
AnchorPoint: "Anchor-12" 480 0 basechar 0
LayerCount: 2
Fore
SplineSet
885 0 m 1,0,-1
 124 0 l 1,1,-1
 433 1455 l 1,2,-1
 585 1455 l 1,3,-1
 307 140 l 1,4,-1
 916 140 l 1,5,-1
 885 0 l 1,0,-1
849 962 m 1,6,-1
 727 962 l 1,7,-1
 816 1455 l 1,8,-1
 971 1455 l 1,9,-1
 849 962 l 1,6,-1
EndSplineSet
Validated: 1048577
EndChar

StartChar: Lslash
Encoding: 321 321 85
Width: 1200
Flags: W
LayerCount: 2
Fore
SplineSet
507 824 m 1,0,-1
 362 140 l 1,1,-1
 971 140 l 1,2,-1
 940 0 l 1,3,-1
 178 0 l 1,4,-1
 340 762 l 1,5,-1
 147 689 l 1,6,-1
 178 836 l 1,7,-1
 371 909 l 1,8,-1
 487 1455 l 1,9,-1
 640 1455 l 1,10,-1
 538 971 l 1,11,-1
 802 1071 l 1,12,-1
 773 924 l 1,13,-1
 507 824 l 1,0,-1
EndSplineSet
Validated: 1
EndChar

StartChar: M
Encoding: 77 77 86
Width: 1200
GlyphClass: 2
Flags: W
AnchorPoint: "Anchor-14" 789 1455 basechar 0
AnchorPoint: "Anchor-12" 480 0 basechar 0
LayerCount: 2
Fore
SplineSet
165 0 m 1,0,-1
 13 0 l 1,1,-1
 347 1455 l 1,2,-1
 493 1455 l 1,3,-1
 625 695 l 1,4,-1
 1084 1455 l 1,5,-1
 1231 1455 l 1,6,-1
 947 0 l 1,7,-1
 795 0 l 1,8,-1
 1004 1062 l 1,9,-1
 645 447 l 1,10,-1
 509 447 l 1,11,-1
 413 1062 l 1,12,-1
 165 0 l 1,0,-1
EndSplineSet
Validated: 1048577
EndChar

StartChar: N
Encoding: 78 78 87
Width: 1200
GlyphClass: 2
Flags: W
AnchorPoint: "Anchor-14" 791 1460 basechar 0
AnchorPoint: "Anchor-12" 480 -5 basechar 0
LayerCount: 2
Fore
SplineSet
816 324 m 1,0,-1
 1056 1455 l 1,1,-1
 1209 1455 l 1,2,-1
 900 0 l 1,3,-1
 740 0 l 1,4,-1
 455 1135 l 1,5,-1
 213 0 l 1,6,-1
 60 0 l 1,7,-1
 369 1455 l 1,8,-1
 531 1455 l 1,9,-1
 816 324 l 1,0,-1
EndSplineSet
Validated: 1048577
EndChar

StartChar: Eng
Encoding: 330 330 91
Width: 1200
GlyphClass: 2
Flags: W
AnchorPoint: "Anchor-14" 791 1460 basechar 0
AnchorPoint: "Anchor-12" 480 -5 basechar 0
LayerCount: 2
Fore
SplineSet
900 0 m 1,0,-1
 820 0 l 1,1,-1
 900 -5 l 1,2,3
 871 -138 871 -138 831 -201.5 c 128,-1,4
 791 -265 791 -265 722 -287 c 128,-1,5
 653 -309 653 -309 522 -309 c 1,6,-1
 538 -169 l 1,7,8
 642 -169 642 -169 693.5 -144.5 c 128,-1,9
 745 -120 745 -120 745 -45 c 0,10,11
 745 -16 745 -16 742 0 c 1,12,-1
 740 0 l 1,13,-1
 455 1135 l 1,14,-1
 213 0 l 1,15,-1
 60 0 l 1,16,-1
 369 1455 l 1,17,-1
 531 1455 l 1,18,-1
 816 324 l 1,19,-1
 1056 1455 l 1,20,-1
 1209 1455 l 1,21,-1
 900 0 l 1,0,-1
EndSplineSet
Validated: 1048577
EndChar

StartChar: O
Encoding: 79 79 93
Width: 1200
GlyphClass: 2
Flags: W
AnchorPoint: "Anchor-15" 1345 1460 basechar 0
AnchorPoint: "Anchor-14" 791 1460 basechar 0
AnchorPoint: "Anchor-13" 956 13 basechar 0
AnchorPoint: "Anchor-12" 480 -5 basechar 0
LayerCount: 2
Fore
SplineSet
209 55.5 m 128,-1,1
 122 136 122 136 122 320 c 0,2,3
 122 447 122 447 167 660 c 2,4,-1
 198 805 l 2,5,6
 253 1061 253 1061 324 1206 c 128,-1,7
 395 1351 395 1351 503 1415.5 c 128,-1,8
 611 1480 611 1480 782 1480 c 0,9,10
 975 1480 975 1480 1061 1399 c 128,-1,11
 1147 1318 1147 1318 1147 1135 c 0,12,13
 1147 997 1147 997 1104 795 c 2,14,-1
 1073 649 l 2,15,16
 1018 393 1018 393 947 248.5 c 128,-1,17
 876 104 876 104 768 39.5 c 128,-1,18
 660 -25 660 -25 489 -25 c 0,19,0
 296 -25 296 -25 209 55.5 c 128,-1,1
691 165.5 m 128,-1,21
 769 216 769 216 823.5 333.5 c 128,-1,22
 878 451 878 451 924 660 c 2,23,-1
 955 805 l 2,24,25
 997 1005 997 1005 996 1116 c 0,26,27
 996 1240 996 1240 945.5 1290 c 128,-1,28
 895 1340 895 1340 778 1340 c 0,29,30
 656 1340 656 1340 578 1289 c 128,-1,31
 500 1238 500 1238 445.5 1121 c 128,-1,32
 391 1004 391 1004 347 795 c 2,33,-1
 316 649 l 2,34,35
 274 449 274 449 275 338 c 0,36,37
 275 216 275 216 326.5 165.5 c 128,-1,38
 378 115 378 115 493 115 c 0,39,20
 613 115 613 115 691 165.5 c 128,-1,21
EndSplineSet
Validated: 33
Substitution2: "Single Substitution lookup 140 subtable" ordmasculine
Substitution2: "'aalt' Access All Alternates lookup 0 subtable" ordmasculine
EndChar

StartChar: Ohorn
Encoding: 416 416 106
Width: 1200
GlyphClass: 2
Flags: W
AnchorPoint: "Anchor-15" 1665 1573 basechar 0
AnchorPoint: "Anchor-14" 791 1460 basechar 0
AnchorPoint: "Anchor-13" 956 13 basechar 0
AnchorPoint: "Anchor-12" 480 -5 basechar 0
LayerCount: 2
Fore
SplineSet
1387 1662 m 1,0,-1
 1540 1662 l 1,1,-1
 1482 1391 l 2,2,3
 1458 1280 1458 1280 1386.5 1213.5 c 128,-1,4
 1315 1147 1315 1147 1218 1147 c 0,5,6
 1180 1147 1180 1147 1147 1164 c 1,7,8
 1152 1020 1152 1020 1104 795 c 2,9,-1
 1073 649 l 2,10,11
 1018 393 1018 393 947 248.5 c 128,-1,12
 876 104 876 104 768 39.5 c 128,-1,13
 660 -25 660 -25 489 -25 c 0,14,15
 296 -25 296 -25 209 55.5 c 128,-1,16
 122 136 122 136 122 320 c 0,17,18
 122 447 122 447 167 660 c 2,19,-1
 198 805 l 2,20,21
 253 1061 253 1061 324 1206 c 128,-1,22
 395 1351 395 1351 503 1415.5 c 128,-1,23
 611 1480 611 1480 782 1480 c 0,24,25
 911 1480 911 1480 991 1444.5 c 128,-1,26
 1071 1409 1071 1409 1111 1333 c 1,27,28
 1149 1288 1149 1288 1211 1287 c 0,29,30
 1256 1287 1256 1287 1289 1320 c 128,-1,31
 1322 1353 1322 1353 1333 1404 c 2,32,-1
 1387 1662 l 1,0,-1
955 805 m 2,33,34
 997 1005 997 1005 996 1116 c 0,35,36
 996 1240 996 1240 945.5 1290 c 128,-1,37
 895 1340 895 1340 778 1340 c 0,38,39
 656 1340 656 1340 578 1289 c 128,-1,40
 500 1238 500 1238 445.5 1121 c 128,-1,41
 391 1004 391 1004 347 795 c 2,42,-1
 316 649 l 2,43,44
 274 449 274 449 275 338 c 0,45,46
 275 216 275 216 326.5 165.5 c 128,-1,47
 378 115 378 115 493 115 c 0,48,49
 613 115 613 115 691 165.5 c 128,-1,50
 769 216 769 216 823.5 333.5 c 128,-1,51
 878 451 878 451 924 660 c 2,52,-1
 955 805 l 2,33,34
EndSplineSet
Validated: 33
EndChar

StartChar: Oslash
Encoding: 216 216 114
Width: 1200
GlyphClass: 2
Flags: W
AnchorPoint: "Anchor-14" 789 1455 basechar 0
AnchorPoint: "Anchor-12" 480 0 basechar 0
LayerCount: 2
Fore
SplineSet
1285 1545 m 1,0,-1
 1122 1307 l 1,1,2
 1149 1236 1149 1236 1149 1135 c 0,3,4
 1149 1006 1149 1006 1104 795 c 2,5,-1
 1073 649 l 2,6,7
 1018 393 1018 393 947 248.5 c 128,-1,8
 876 104 876 104 768 39.5 c 128,-1,9
 660 -25 660 -25 489 -25 c 0,10,11
 329 -25 329 -25 240 31 c 1,12,-1
 156 -91 l 1,13,-1
 -16 -91 l 1,14,-1
 149 149 l 1,15,16
 122 220 122 220 122 320 c 0,17,18
 122 449 122 449 167 660 c 2,19,-1
 198 805 l 2,20,21
 253 1061 253 1061 324 1206 c 128,-1,22
 395 1351 395 1351 503 1415.5 c 128,-1,23
 611 1480 611 1480 782 1480 c 0,24,25
 944 1480 944 1480 1029 1424 c 1,26,-1
 1113 1545 l 1,27,-1
 1285 1545 l 1,0,-1
316 649 m 2,28,29
 272 445 272 445 273 329 c 1,30,-1
 940 1295 l 1,31,32
 889 1340 889 1340 778 1340 c 0,33,34
 658 1340 658 1340 579 1289 c 128,-1,35
 500 1238 500 1238 445.5 1121 c 128,-1,36
 391 1004 391 1004 347 795 c 2,37,-1
 316 649 l 2,28,29
955 805 m 2,38,39
 999 1012 999 1012 996 1127 c 1,40,-1
 329 160 l 1,41,42
 380 115 380 115 493 115 c 0,43,44
 613 115 613 115 691 165.5 c 128,-1,45
 769 216 769 216 823.5 333.5 c 128,-1,46
 878 451 878 451 924 660 c 2,47,-1
 955 805 l 2,38,39
EndSplineSet
Validated: 1048609
EndChar

StartChar: OE
Encoding: 338 338 116
Width: 1200
GlyphClass: 2
Flags: W
AnchorPoint: "Anchor-14" 789 1455 basechar 0
AnchorPoint: "Anchor-12" 480 0 basechar 0
LayerCount: 2
Fore
SplineSet
1304 1315 m 1,0,-1
 913 1315 l 1,1,-1
 816 840 l 1,2,-1
 1051 840 l 1,3,-1
 1020 698 l 1,4,-1
 784 698 l 1,5,-1
 762 604 l 1,6,-1
 667 140 l 1,7,-1
 1053 140 l 1,8,-1
 1024 0 l 1,9,-1
 482 0 l 1,10,-1
 487 24 l 1,11,12
 409 -25 409 -25 295 -25 c 0,13,14
 160 -25 160 -25 96.5 48.5 c 128,-1,15
 33 122 33 122 33 287 c 0,16,17
 33 445 33 445 95 738 c 0,18,19
 155 1020 155 1020 220 1180 c 128,-1,20
 285 1340 285 1340 371.5 1410 c 128,-1,21
 458 1480 458 1480 587 1480 c 0,22,23
 720 1480 720 1480 784 1416 c 1,24,-1
 791 1455 l 1,25,-1
 1333 1455 l 1,26,-1
 1304 1315 l 1,0,-1
428.5 164 m 128,-1,28
 482 213 482 213 525.5 324 c 128,-1,29
 569 435 569 435 616 633 c 2,30,-1
 665 865 l 2,31,32
 705 1080 705 1080 705 1176 c 0,33,34
 705 1263 705 1263 676 1301.5 c 128,-1,35
 647 1340 647 1340 584 1340 c 0,36,37
 508 1340 508 1340 450.5 1281 c 128,-1,38
 393 1222 393 1222 343 1085.5 c 128,-1,39
 293 949 293 949 242 713 c 0,40,41
 180 415 180 415 180 291 c 0,42,43
 180 196 180 196 209 155.5 c 128,-1,44
 238 115 238 115 298 115 c 0,45,27
 375 115 375 115 428.5 164 c 128,-1,28
EndSplineSet
Validated: 1048577
EndChar

StartChar: P
Encoding: 80 80 117
Width: 1200
GlyphClass: 2
Flags: W
AnchorPoint: "Anchor-14" 789 1455 basechar 0
AnchorPoint: "Anchor-12" 480 0 basechar 0
LayerCount: 2
Fore
SplineSet
820 1455 m 2,0,1
 1007 1455 1007 1455 1091.5 1393 c 128,-1,2
 1176 1331 1176 1331 1176 1191 c 0,3,4
 1176 1111 1176 1111 1156 1020 c 0,5,6
 1121 860 1121 860 1064 772 c 128,-1,7
 1007 684 1007 684 911 647.5 c 128,-1,8
 815 611 815 611 653 611 c 2,9,-1
 378 611 l 1,10,-1
 249 0 l 1,11,-1
 96 0 l 1,12,-1
 405 1455 l 1,13,-1
 820 1455 l 2,0,1
1025 1167 m 0,15,16
 1025 1251 1025 1251 975 1283 c 128,-1,17
 925 1315 925 1315 804 1315 c 2,18,-1
 527 1315 l 1,19,-1
 407 753 l 1,20,-1
 669 753 l 2,21,22
 778 753 778 753 841.5 777.5 c 128,-1,23
 905 802 905 802 944.5 863.5 c 128,-1,24
 984 925 984 925 1009 1045 c 0,25,14
 1025 1120 1025 1120 1025 1167 c 0,15,16
EndSplineSet
Validated: 1048577
EndChar

StartChar: Thorn
Encoding: 222 222 118
Width: 1200
GlyphClass: 2
Flags: W
AnchorPoint: "Anchor-14" 789 1455 basechar 0
AnchorPoint: "Anchor-12" 480 0 basechar 0
LayerCount: 2
Fore
SplineSet
713 1127 m 2,0,1
 904 1127 904 1127 988.5 1068 c 128,-1,2
 1073 1009 1073 1009 1073 873 c 0,3,4
 1073 800 1073 800 1055 715 c 0,5,6
 1024 568 1024 568 966.5 484 c 128,-1,7
 909 400 909 400 812 363.5 c 128,-1,8
 715 327 715 327 556 327 c 2,9,-1
 318 327 l 1,10,-1
 249 0 l 1,11,-1
 96 0 l 1,12,-1
 405 1455 l 1,13,-1
 558 1455 l 1,14,-1
 489 1127 l 1,15,-1
 713 1127 l 2,0,1
922 849 m 0,17,18
 922 927 922 927 872 956 c 128,-1,19
 822 985 822 985 696 985 c 2,20,-1
 458 985 l 1,21,-1
 349 469 l 1,22,-1
 573 469 l 2,23,24
 680 469 680 469 744.5 493.5 c 128,-1,25
 809 518 809 518 846.5 575.5 c 128,-1,26
 884 633 884 633 907 740 c 0,27,16
 922 809 922 809 922 849 c 0,17,18
EndSplineSet
Validated: 1048577
EndChar

StartChar: Q
Encoding: 81 81 119
Width: 1200
Flags: W
LayerCount: 2
Fore
SplineSet
1064 -172 m 128,-1,1
 1124 -151 1124 -151 1204 -107 c 0,2,3
 1308 -54 1308 -54 1393 -24.5 c 128,-1,4
 1478 5 1478 5 1611 11 c 1,5,-1
 1576 -131 l 1,6,7
 1491 -133 1491 -133 1431 -155.5 c 128,-1,8
 1371 -178 1371 -178 1289 -224 c 0,9,10
 1191 -279 1191 -279 1112 -306 c 128,-1,11
 1033 -333 1033 -333 909 -333 c 0,12,13
 784 -333 784 -333 679.5 -274.5 c 128,-1,14
 575 -216 575 -216 451 -113 c 1,15,16
 395 -157 395 -157 344 -180.5 c 128,-1,17
 293 -204 293 -204 233 -204 c 0,18,19
 153 -204 153 -204 108.5 -162 c 128,-1,20
 64 -120 64 -120 64 -51 c 0,21,22
 64 -20 64 -20 71 7 c 0,23,24
 93 83 93 83 156 127 c 1,25,26
 125 196 125 196 125 316 c 0,27,28
 125 449 125 449 167 658 c 2,29,-1
 198 804 l 2,30,31
 251 1060 251 1060 323 1205.5 c 128,-1,32
 395 1351 395 1351 505.5 1415.5 c 128,-1,33
 616 1480 616 1480 787 1480 c 0,34,35
 976 1480 976 1480 1060 1402 c 128,-1,36
 1144 1324 1144 1324 1144 1144 c 0,37,38
 1144 1008 1144 1008 1100 796 c 2,39,-1
 1071 651 l 2,40,41
 1026 429 1026 429 965.5 291 c 128,-1,42
 905 153 905 153 819 79 c 128,-1,43
 733 5 733 5 607 -16 c 0,44,45
 583 -25 583 -25 578 -29 c 1,46,47
 665 -105 665 -105 745 -149 c 128,-1,48
 825 -193 825 -193 922 -193 c 0,49,0
 1004 -193 1004 -193 1064 -172 c 128,-1,1
315 651 m 2,50,51
 275 451 275 451 275 345 c 0,52,53
 275 269 275 269 292 222 c 128,-1,54
 309 175 309 175 347 149 c 0,55,56
 378 136 378 136 387 129 c 0,57,58
 436 114 436 114 498 115 c 0,59,60
 554 115 554 115 604 125 c 2,61,-1
 627 133 l 1,62,-1
 627 133 l 1,63,64
 738 168 738 168 805.5 288.5 c 128,-1,65
 873 409 873 409 924 658 c 2,66,-1
 955 804 l 2,67,68
 995 993 995 993 995 1111 c 0,69,70
 995 1236 995 1236 943 1288 c 128,-1,71
 891 1340 891 1340 773 1340 c 0,72,73
 653 1340 653 1340 574 1289 c 128,-1,74
 495 1238 495 1238 440 1121 c 128,-1,75
 385 1004 385 1004 344 796 c 2,76,-1
 315 651 l 2,50,51
284.5 -53 m 128,-1,78
 302 -42 302 -42 329 -18 c 1,79,80
 318 -11 318 -11 296 0 c 256,81,82
 274 11 274 11 253 11 c 0,83,84
 222 11 222 11 211 -11 c 0,85,86
 206 -22 206 -22 205 -31 c 0,87,88
 205 -46 205 -46 216 -55 c 128,-1,89
 227 -64 227 -64 245 -64 c 0,90,77
 267 -64 267 -64 284.5 -53 c 128,-1,78
EndSplineSet
Validated: 37
Substitution2: "Single Substitution lookup 141 subtable" LIG
Substitution2: "'aalt' Access All Alternates lookup 0 subtable" LIG
EndChar

StartChar: R
Encoding: 82 82 120
Width: 1200
GlyphClass: 2
Flags: W
AnchorPoint: "Anchor-14" 789 1455 basechar 0
AnchorPoint: "Anchor-12" 480 0 basechar 0
LayerCount: 2
Fore
SplineSet
805 1455 m 2,0,1
 992 1455 992 1455 1077 1393 c 128,-1,2
 1162 1331 1162 1331 1162 1191 c 0,3,4
 1162 1111 1162 1111 1142 1020 c 0,5,6
 1109 869 1109 869 1057 783.5 c 128,-1,7
 1005 698 1005 698 920 658 c 128,-1,8
 835 618 835 618 696 613 c 1,9,-1
 980 0 l 1,10,-1
 807 0 l 1,11,-1
 524 611 l 1,12,-1
 365 611 l 1,13,-1
 235 0 l 1,14,-1
 82 0 l 1,15,-1
 391 1455 l 1,16,-1
 805 1455 l 2,0,1
1011 1167 m 0,18,19
 1011 1251 1011 1251 961 1283 c 128,-1,20
 911 1315 911 1315 789 1315 c 2,21,-1
 515 1315 l 1,22,-1
 395 753 l 1,23,-1
 655 753 l 2,24,25
 764 753 764 753 827.5 777.5 c 128,-1,26
 891 802 891 802 930 863.5 c 128,-1,27
 969 925 969 925 995 1045 c 0,28,17
 1011 1120 1011 1120 1011 1167 c 0,18,19
EndSplineSet
Validated: 1048577
EndChar

StartChar: S
Encoding: 83 83 124
Width: 1200
GlyphClass: 2
Flags: W
AnchorPoint: "Anchor-14" 791 1460 basechar 0
AnchorPoint: "Anchor-12" 480 0 basechar 0
LayerCount: 2
Fore
SplineSet
275.5 -2.5 m 128,-1,1
 195 20 195 20 147.5 71 c 128,-1,2
 100 122 100 122 73 213 c 1,3,-1
 209 311 l 1,4,5
 224 229 224 229 251 188 c 128,-1,6
 278 147 278 147 332.5 131 c 128,-1,7
 387 115 387 115 493 115 c 0,8,9
 608 115 608 115 677.5 143 c 128,-1,10
 747 171 747 171 788 236.5 c 128,-1,11
 829 302 829 302 855 418 c 0,12,13
 864 467 864 467 864 495 c 0,14,15
 864 566 864 566 814 608.5 c 128,-1,16
 764 651 764 651 633 700 c 0,17,18
 448 764 448 764 369.5 831 c 128,-1,19
 291 898 291 898 291 1007 c 0,20,21
 291 1049 291 1049 302 1104 c 0,22,23
 333 1248 333 1248 387.5 1328.5 c 128,-1,24
 442 1409 442 1409 535.5 1444.5 c 128,-1,25
 629 1480 629 1480 782 1480 c 0,26,27
 904 1480 904 1480 978.5 1460 c 128,-1,28
 1053 1440 1053 1440 1098.5 1395.5 c 128,-1,29
 1144 1351 1144 1351 1173 1273 c 1,30,-1
 1045 1165 l 1,31,32
 1029 1238 1029 1238 1002.5 1274.5 c 128,-1,33
 976 1311 976 1311 925.5 1325.5 c 128,-1,34
 875 1340 875 1340 778 1340 c 0,35,36
 671 1340 671 1340 607.5 1315.5 c 128,-1,37
 544 1291 544 1291 507.5 1235.5 c 128,-1,38
 471 1180 471 1180 449 1078 c 0,39,40
 442 1047 442 1047 442 1016 c 0,41,42
 442 954 442 954 487.5 917 c 128,-1,43
 533 880 533 880 655 838 c 0,44,45
 851 774 851 774 933.5 702.5 c 128,-1,46
 1016 631 1016 631 1016 509 c 0,47,48
 1016 462 1016 462 1002 393 c 0,49,50
 969 235 969 235 910 145 c 128,-1,51
 851 55 851 55 751 15 c 128,-1,52
 651 -25 651 -25 489 -25 c 0,53,0
 356 -25 356 -25 275.5 -2.5 c 128,-1,1
EndSplineSet
Validated: 1048577
EndChar

StartChar: Scedilla
Encoding: 350 350 127
Width: 1200
GlyphClass: 2
Flags: W
AnchorPoint: "Anchor-14" 791 1460 basechar 0
AnchorPoint: "Anchor-12" 480 0 basechar 0
LayerCount: 2
Fore
SplineSet
607.5 1315.5 m 128,-1,1
 544 1291 544 1291 507.5 1235.5 c 128,-1,2
 471 1180 471 1180 449 1078 c 0,3,4
 442 1047 442 1047 442 1016 c 0,5,6
 442 954 442 954 487.5 917 c 128,-1,7
 533 880 533 880 655 838 c 0,8,9
 851 774 851 774 933.5 702.5 c 128,-1,10
 1016 631 1016 631 1016 509 c 0,11,12
 1016 462 1016 462 1002 393 c 0,13,14
 971 244 971 244 917.5 155.5 c 128,-1,15
 864 67 864 67 774.5 24.5 c 128,-1,16
 685 -18 685 -18 545 -24 c 1,17,-1
 529 -82 l 1,18,19
 580 -95 580 -95 609 -130 c 128,-1,20
 638 -165 638 -165 638 -215 c 0,21,22
 638 -233 638 -233 636 -242 c 0,23,24
 620 -318 620 -318 552 -365.5 c 128,-1,25
 484 -413 484 -413 389 -413 c 0,26,27
 325 -413 325 -413 276 -390 c 128,-1,28
 227 -367 227 -367 205 -333 c 1,29,-1
 282 -233 l 1,30,31
 295 -251 295 -251 325.5 -261 c 128,-1,32
 356 -271 356 -271 395 -271 c 256,33,34
 433 -271 433 -271 460 -253.5 c 128,-1,35
 487 -236 487 -236 487 -213 c 0,36,37
 487 -197 487 -197 455.5 -187.5 c 128,-1,38
 424 -178 424 -178 367 -178 c 1,39,-1
 395 -22 l 1,40,41
 253 -11 253 -11 180 42.5 c 128,-1,42
 107 96 107 96 73 213 c 1,43,-1
 209 311 l 1,44,45
 224 229 224 229 251 188 c 128,-1,46
 278 147 278 147 332.5 131 c 128,-1,47
 387 115 387 115 493 115 c 0,48,49
 608 115 608 115 677.5 143 c 128,-1,50
 747 171 747 171 788 236.5 c 128,-1,51
 829 302 829 302 855 418 c 0,52,53
 864 467 864 467 864 495 c 0,54,55
 864 566 864 566 814 608.5 c 128,-1,56
 764 651 764 651 633 700 c 0,57,58
 448 764 448 764 369.5 831 c 128,-1,59
 291 898 291 898 291 1007 c 0,60,61
 291 1049 291 1049 302 1104 c 0,62,63
 333 1248 333 1248 387.5 1328.5 c 128,-1,64
 442 1409 442 1409 535.5 1444.5 c 128,-1,65
 629 1480 629 1480 782 1480 c 0,66,67
 904 1480 904 1480 978.5 1460 c 128,-1,68
 1053 1440 1053 1440 1098.5 1395.5 c 128,-1,69
 1144 1351 1144 1351 1173 1273 c 1,70,-1
 1045 1165 l 1,71,72
 1029 1238 1029 1238 1002.5 1274.5 c 128,-1,73
 976 1311 976 1311 925.5 1325.5 c 128,-1,74
 875 1340 875 1340 778 1340 c 0,75,0
 671 1340 671 1340 607.5 1315.5 c 128,-1,1
EndSplineSet
Validated: 1048577
Substitution2: "'locl' Localized Forms in Latin lookup 6 subtable" uni0218
Substitution2: "'aalt' Access All Alternates lookup 0 subtable" uni0218
EndChar

StartChar: uni1E9E
Encoding: 7838 7838 130
Width: 1200
GlyphClass: 2
Flags: W
AnchorPoint: "Anchor-14" 789 1455 basechar 0
AnchorPoint: "Anchor-12" 480 0 basechar 0
LayerCount: 2
Fore
SplineSet
824 858 m 1,0,1
 968 847 968 847 1031.5 787 c 128,-1,2
 1095 727 1095 727 1095 600 c 0,3,4
 1095 516 1095 516 1071 405 c 0,5,6
 1035 230 1035 230 979.5 138.5 c 128,-1,7
 924 47 924 47 832 11 c 128,-1,8
 740 -25 740 -25 582 -25 c 0,9,10
 429 -25 429 -25 362.5 18.5 c 128,-1,11
 296 62 296 62 296 165 c 0,12,13
 296 220 296 220 313 291 c 1,14,-1
 462 278 l 1,15,16
 453 229 453 229 453 204 c 0,17,18
 453 155 453 155 483 135 c 128,-1,19
 513 115 513 115 585 115 c 0,20,21
 690 115 690 115 754 142 c 128,-1,22
 818 169 818 169 857 236.5 c 128,-1,23
 896 304 896 304 924 429 c 0,24,25
 942 520 942 520 942 565 c 0,26,27
 942 650 942 650 893.5 685 c 128,-1,28
 845 720 845 720 735 720 c 2,29,-1
 527 720 l 1,30,-1
 1029 1315 l 1,31,-1
 720 1315 l 2,32,33
 575 1315 575 1315 464 1229.5 c 128,-1,34
 353 1144 353 1144 324 1009 c 2,35,-1
 109 0 l 1,36,-1
 -44 0 l 1,37,-1
 175 1022 l 2,38,39
 219 1226 219 1226 369.5 1340.5 c 128,-1,40
 520 1455 520 1455 747 1455 c 2,41,-1
 1325 1455 l 1,42,-1
 824 858 l 1,0,1
EndSplineSet
Validated: 1048577
EndChar

StartChar: T
Encoding: 84 84 131
Width: 1200
GlyphClass: 2
Flags: W
AnchorPoint: "Anchor-14" 789 1455 basechar 0
AnchorPoint: "Anchor-12" 480 0 basechar 0
LayerCount: 2
Fore
SplineSet
1307 1455 m 1,0,-1
 1278 1315 l 1,1,-1
 836 1315 l 1,2,-1
 556 0 l 1,3,-1
 404 0 l 1,4,-1
 684 1315 l 1,5,-1
 242 1315 l 1,6,-1
 271 1455 l 1,7,-1
 1307 1455 l 1,0,-1
EndSplineSet
Validated: 1048577
EndChar

StartChar: Tbar
Encoding: 358 358 132
Width: 1200
GlyphClass: 2
Flags: W
AnchorPoint: "Anchor-14" 789 1455 basechar 0
AnchorPoint: "Anchor-12" 480 0 basechar 0
LayerCount: 2
Fore
SplineSet
1307 1455 m 1,0,-1
 1278 1315 l 1,1,-1
 836 1315 l 1,2,-1
 735 840 l 1,3,-1
 998 840 l 1,4,-1
 967 698 l 1,5,-1
 705 698 l 1,6,-1
 556 0 l 1,7,-1
 404 0 l 1,8,-1
 553 698 l 1,9,-1
 289 698 l 1,10,-1
 320 840 l 1,11,-1
 582 840 l 1,12,-1
 684 1315 l 1,13,-1
 242 1315 l 1,14,-1
 271 1455 l 1,15,-1
 1307 1455 l 1,0,-1
EndSplineSet
Validated: 1048577
EndChar

StartChar: uni0162
Encoding: 354 354 134
Width: 1200
GlyphClass: 2
Flags: W
AnchorPoint: "Anchor-14" 789 1455 basechar 0
AnchorPoint: "Anchor-12" 480 0 basechar 0
LayerCount: 2
Fore
SplineSet
1278 1315 m 1,0,-1
 836 1315 l 1,1,-1
 558 9 l 1,2,-1
 560 9 l 1,3,-1
 533 -82 l 1,4,5
 582 -95 582 -95 613 -130 c 128,-1,6
 644 -165 644 -165 644 -213 c 0,7,8
 644 -220 644 -220 640 -242 c 0,9,10
 624 -318 624 -318 556.5 -365.5 c 128,-1,11
 489 -413 489 -413 395 -413 c 0,12,13
 331 -413 331 -413 281 -390 c 128,-1,14
 231 -367 231 -367 211 -333 c 1,15,-1
 285 -233 l 1,16,17
 300 -251 300 -251 331 -261 c 128,-1,18
 362 -271 362 -271 398 -271 c 0,19,20
 433 -271 433 -271 460 -255.5 c 128,-1,21
 487 -240 487 -240 493 -216 c 0,22,23
 497 -198 497 -198 465 -188 c 128,-1,24
 433 -178 433 -178 373 -178 c 1,25,-1
 404 0 l 1,26,-1
 405 5 l 1,27,-1
 405 9 l 1,28,-1
 684 1315 l 1,29,-1
 242 1315 l 1,30,-1
 271 1455 l 1,31,-1
 1307 1455 l 1,32,-1
 1278 1315 l 1,0,-1
EndSplineSet
Validated: 1048577
Substitution2: "'locl' Localized Forms in Latin lookup 6 subtable" uni021A
Substitution2: "'aalt' Access All Alternates lookup 0 subtable" uni021A
EndChar

StartChar: U
Encoding: 85 85 136
Width: 1200
GlyphClass: 2
Flags: W
AnchorPoint: "Anchor-15" 1345 1460 basechar 0
AnchorPoint: "Anchor-14" 791 1460 basechar 0
AnchorPoint: "Anchor-13" 575 0 basechar 0
AnchorPoint: "Anchor-12" 480 -5 basechar 0
LayerCount: 2
Fore
SplineSet
228 46.5 m 128,-1,1
 147 118 147 118 147 280 c 0,2,3
 147 398 147 398 182 555 c 2,4,-1
 373 1455 l 1,5,-1
 525 1455 l 1,6,-1
 333 542 l 2,7,8
 300 389 300 389 300 298 c 0,9,10
 300 196 300 196 344.5 155.5 c 128,-1,11
 389 115 389 115 493 115 c 0,12,13
 598 115 598 115 666.5 155.5 c 128,-1,14
 735 196 735 196 780 290.5 c 128,-1,15
 825 385 825 385 862 555 c 2,16,-1
 1053 1455 l 1,17,-1
 1205 1455 l 1,18,-1
 1013 542 l 2,19,20
 968 326 968 326 904 204 c 128,-1,21
 840 82 840 82 742 28.5 c 128,-1,22
 644 -25 644 -25 489 -25 c 0,23,0
 309 -25 309 -25 228 46.5 c 128,-1,1
EndSplineSet
Validated: 1
EndChar

StartChar: Uhorn
Encoding: 431 431 149
Width: 1200
GlyphClass: 2
Flags: W
AnchorPoint: "Anchor-15" 1685 1671 basechar 0
AnchorPoint: "Anchor-14" 791 1460 basechar 0
AnchorPoint: "Anchor-13" 575 0 basechar 0
AnchorPoint: "Anchor-12" 480 -5 basechar 0
LayerCount: 2
Fore
SplineSet
1407 1760 m 1,0,-1
 1560 1760 l 1,1,-1
 1502 1489 l 2,2,3
 1478 1378 1478 1378 1406.5 1311.5 c 128,-1,4
 1335 1245 1335 1245 1238 1245 c 0,5,6
 1205 1245 1205 1245 1165 1262 c 1,7,-1
 1013 542 l 2,8,9
 968 326 968 326 904 204 c 128,-1,10
 840 82 840 82 742 28.5 c 128,-1,11
 644 -25 644 -25 489 -25 c 0,12,13
 309 -25 309 -25 228 46.5 c 128,-1,14
 147 118 147 118 147 280 c 0,15,16
 147 398 147 398 182 555 c 2,17,-1
 373 1455 l 1,18,-1
 525 1455 l 1,19,-1
 333 542 l 2,20,21
 300 389 300 389 300 298 c 0,22,23
 300 196 300 196 344.5 155.5 c 128,-1,24
 389 115 389 115 493 115 c 0,25,26
 598 115 598 115 666.5 155.5 c 128,-1,27
 735 196 735 196 780 290.5 c 128,-1,28
 825 385 825 385 862 555 c 2,29,-1
 1053 1455 l 1,30,-1
 1205 1455 l 1,31,-1
 1191 1389 l 1,32,33
 1207 1385 1207 1385 1231 1385 c 0,34,35
 1276 1385 1276 1385 1309 1417 c 128,-1,36
 1342 1449 1342 1449 1353 1502 c 2,37,-1
 1407 1760 l 1,0,-1
EndSplineSet
Validated: 1
EndChar

StartChar: Uogonek
Encoding: 370 370 157
Width: 1200
GlyphClass: 2
Flags: W
AnchorPoint: "Anchor-15" 1345 1460 basechar 0
AnchorPoint: "Anchor-14" 791 1460 basechar 0
AnchorPoint: "Anchor-13" 575 0 basechar 0
AnchorPoint: "Anchor-12" 480 -5 basechar 0
LayerCount: 2
Fore
SplineSet
1053 1455 m 1,0,-1
 1205 1455 l 1,1,-1
 1013 542 l 2,2,3
 958 278 958 278 872.5 150 c 128,-1,4
 787 22 787 22 636 -11 c 1,5,6
 518 -67 518 -67 468 -101 c 128,-1,7
 418 -135 418 -135 418 -169 c 0,8,9
 418 -216 418 -216 491 -216 c 0,10,11
 516 -216 516 -216 540.5 -206 c 128,-1,12
 565 -196 565 -196 580 -180 c 1,13,-1
 685 -280 l 1,14,15
 654 -315 654 -315 599.5 -335.5 c 128,-1,16
 545 -356 545 -356 489 -356 c 0,17,18
 389 -356 389 -356 328 -314.5 c 128,-1,19
 267 -273 267 -273 267 -202 c 0,20,21
 267 -153 267 -153 310 -105.5 c 128,-1,22
 353 -58 353 -58 422 -24 c 1,23,24
 278 -11 278 -11 212.5 61 c 128,-1,25
 147 133 147 133 147 280 c 0,26,27
 147 398 147 398 182 555 c 2,28,-1
 373 1455 l 1,29,-1
 525 1455 l 1,30,-1
 333 542 l 2,31,32
 300 389 300 389 300 298 c 0,33,34
 300 196 300 196 344.5 155.5 c 128,-1,35
 389 115 389 115 493 115 c 0,36,37
 598 115 598 115 666.5 155.5 c 128,-1,38
 735 196 735 196 780 290.5 c 128,-1,39
 825 385 825 385 862 555 c 2,40,-1
 1053 1455 l 1,0,-1
EndSplineSet
Validated: 1
EndChar

StartChar: V
Encoding: 86 86 160
Width: 1200
GlyphClass: 2
Flags: W
AnchorPoint: "Anchor-14" 789 1455 basechar 0
AnchorPoint: "Anchor-12" 480 0 basechar 0
LayerCount: 2
Fore
SplineSet
558 0 m 1,0,-1
 405 0 l 1,1,-1
 304 1455 l 1,2,-1
 464 1455 l 1,3,-1
 538 282 l 1,4,-1
 1113 1455 l 1,5,-1
 1278 1455 l 1,6,-1
 558 0 l 1,0,-1
EndSplineSet
Validated: 1048577
EndChar

StartChar: W
Encoding: 87 87 161
Width: 1200
GlyphClass: 2
Flags: W
AnchorPoint: "Anchor-14" 791 1460 basechar 0
AnchorPoint: "Anchor-12" 480 -5 basechar 0
LayerCount: 2
Fore
SplineSet
318 0 m 1,0,-1
 167 0 l 1,1,-1
 275 1455 l 1,2,-1
 427 1455 l 1,3,-1
 340 380 l 1,4,-1
 622 1004 l 1,5,-1
 762 1004 l 1,6,-1
 778 380 l 1,7,-1
 1151 1455 l 1,8,-1
 1307 1455 l 1,9,-1
 796 0 l 1,10,-1
 651 0 l 1,11,-1
 627 678 l 1,12,-1
 318 0 l 1,0,-1
EndSplineSet
Validated: 1048577
EndChar

StartChar: X
Encoding: 88 88 166
Width: 1200
GlyphClass: 2
Flags: W
AnchorPoint: "Anchor-14" 789 1455 basechar 0
AnchorPoint: "Anchor-12" 480 0 basechar 0
LayerCount: 2
Fore
SplineSet
1107 1455 m 1,0,-1
 1273 1455 l 1,1,-1
 722 731 l 1,2,-1
 967 0 l 1,3,-1
 793 0 l 1,4,-1
 600 573 l 1,5,-1
 164 0 l 1,6,-1
 -2 0 l 1,7,-1
 549 724 l 1,8,-1
 304 1455 l 1,9,-1
 478 1455 l 1,10,-1
 671 882 l 1,11,-1
 1107 1455 l 1,0,-1
EndSplineSet
Validated: 1048577
EndChar

StartChar: Y
Encoding: 89 89 167
Width: 1200
GlyphClass: 2
Flags: W
AnchorPoint: "Anchor-14" 791 1460 basechar 0
AnchorPoint: "Anchor-12" 480 -5 basechar 0
LayerCount: 2
Fore
SplineSet
556 0 m 1,0,-1
 404 0 l 1,1,-1
 522 542 l 1,2,-1
 276 1455 l 1,3,-1
 438 1455 l 1,4,-1
 631 733 l 1,5,-1
 1136 1455 l 1,6,-1
 1309 1455 l 1,7,-1
 675 542 l 1,8,-1
 556 0 l 1,0,-1
EndSplineSet
Validated: 1048577
EndChar

StartChar: Z
Encoding: 90 90 175
Width: 1200
GlyphClass: 2
Flags: W
AnchorPoint: "Anchor-14" 789 1455 basechar 0
AnchorPoint: "Anchor-12" 480 0 basechar 0
LayerCount: 2
Fore
SplineSet
756.5 -98.5 m 128,-1,1
 702 -82 702 -82 616 -49 c 0,2,3
 532 -14 532 -14 470.5 4 c 128,-1,4
 409 22 409 22 342 22 c 0,5,6
 318 22 318 22 287 16 c 0,7,8
 178 -2 178 -2 9 0 c 1,9,-1
 35 111 l 1,10,-1
 1038 1315 l 1,11,-1
 296 1315 l 1,12,-1
 322 1455 l 1,13,-1
 1258 1455 l 1,14,-1
 1235 1342 l 1,15,-1
 240 151 l 1,16,17
 264 151 264 151 287 156 c 0,18,19
 363 161 363 161 375 162 c 0,20,21
 459 162 459 162 527.5 142 c 128,-1,22
 596 122 596 122 685 84 c 0,23,24
 765 53 765 53 810 39 c 128,-1,25
 855 25 855 25 902 25 c 0,26,27
 955 25 955 25 995.5 39 c 128,-1,28
 1036 53 1036 53 1091 78 c 0,29,30
 1166 113 1166 113 1222 129 c 128,-1,31
 1278 145 1278 145 1362 140 c 1,32,-1
 1322 -2 l 1,33,34
 1313 0 1313 0 1295 0 c 0,35,36
 1266 0 1266 0 1244 -8 c 128,-1,37
 1222 -16 1222 -16 1178 -38 c 0,38,39
 1116 -73 1116 -73 1050 -94 c 128,-1,40
 984 -115 984 -115 871 -115 c 0,41,0
 811 -115 811 -115 756.5 -98.5 c 128,-1,1
EndSplineSet
Validated: 1048609
EndChar

StartChar: a
Encoding: 97 97 179
Width: 1200
GlyphClass: 2
Flags: W
AnchorPoint: "Anchor-14" 720 1124 basechar 0
AnchorPoint: "Anchor-13" 904 15 basechar 0
AnchorPoint: "Anchor-12" 480 0 basechar 0
LayerCount: 2
Fore
SplineSet
1038 58 m 1,0,1
 1013 20 1013 20 955.5 -2.5 c 128,-1,2
 898 -25 898 -25 838 -25 c 0,3,4
 773 -25 773 -25 732 8.5 c 128,-1,5
 691 42 691 42 687 93 c 0,6,7
 683 118 683 118 687 125 c 1,8,9
 634 56 634 56 562.5 15.5 c 128,-1,10
 491 -25 491 -25 418 -25 c 0,11,12
 269 -25 269 -25 180 67.5 c 128,-1,13
 91 160 91 160 93 311 c 0,14,15
 93 506 93 506 186.5 701 c 128,-1,16
 280 896 280 896 425.5 1022.5 c 128,-1,17
 571 1149 571 1149 715 1149 c 256,18,19
 859 1149 859 1149 929.5 1105.5 c 128,-1,20
 1000 1062 1000 1062 1000 964 c 0,21,22
 1000 939 1000 939 962.5 761.5 c 128,-1,23
 925 584 925 584 844 204 c 0,24,25
 837 164 837 164 836 153 c 0,26,27
 836 133 836 133 847 124 c 128,-1,28
 858 115 858 115 884 115 c 0,29,30
 906 115 906 115 930.5 133 c 128,-1,31
 955 151 955 151 973 180 c 1,32,-1
 1038 58 l 1,0,1
615.5 215.5 m 128,-1,34
 707 316 707 316 760 469 c 1,35,36
 776 554 776 554 789 616 c 128,-1,37
 802 678 802 678 811 720 c 0,38,39
 853 918 853 918 855 949 c 0,40,41
 851 984 851 984 818 996.5 c 128,-1,42
 785 1009 785 1009 702 1009 c 0,43,44
 607 1009 607 1009 497 901 c 128,-1,45
 387 793 387 793 311.5 632 c 128,-1,46
 236 471 236 471 236 324 c 0,47,48
 238 229 238 229 291.5 172 c 128,-1,49
 345 115 345 115 431 115 c 0,50,33
 524 115 524 115 615.5 215.5 c 128,-1,34
EndSplineSet
Validated: 1048609
Substitution2: "Single Substitution lookup 141 subtable" LIG
Substitution2: "Single Substitution lookup 140 subtable" ordfeminine
Substitution2: "'sinf' Scientific Inferiors lookup 10 subtable" uni2090
Substitution2: "'subs' Subscript lookup 9 subtable" uni2090
AlternateSubs2: "'aalt' Access All Alternates lookup 1 subtable" uni2090 ordfeminine LIG
EndChar

StartChar: aogonek
Encoding: 261 261 199
Width: 1200
GlyphClass: 2
Flags: W
AnchorPoint: "Anchor-14" 720 1124 basechar 0
AnchorPoint: "Anchor-13" 904 15 basechar 0
AnchorPoint: "Anchor-12" 480 0 basechar 0
LayerCount: 2
Fore
SplineSet
792.5 -90 m 128,-1,1
 747 -122 747 -122 747 -155 c 0,2,3
 747 -202 747 -202 820 -202 c 0,4,5
 845 -202 845 -202 870 -192 c 128,-1,6
 895 -182 895 -182 909 -165 c 1,7,-1
 1015 -265 l 1,8,9
 984 -300 984 -300 929.5 -321 c 128,-1,10
 875 -342 875 -342 818 -342 c 0,11,12
 718 -342 718 -342 657 -300 c 128,-1,13
 596 -258 596 -258 596 -187 c 0,14,15
 596 -136 596 -136 640 -89 c 128,-1,16
 684 -42 684 -42 755 -5 c 1,17,18
 724 10 724 10 706.5 36 c 128,-1,19
 689 62 689 62 687 93 c 0,20,21
 683 118 683 118 687 125 c 1,22,23
 634 56 634 56 562.5 15.5 c 128,-1,24
 491 -25 491 -25 418 -25 c 0,25,26
 269 -25 269 -25 180 67.5 c 128,-1,27
 91 160 91 160 93 311 c 0,28,29
 93 506 93 506 186.5 701 c 128,-1,30
 280 896 280 896 425.5 1022.5 c 128,-1,31
 571 1149 571 1149 715 1149 c 256,32,33
 859 1149 859 1149 929.5 1105.5 c 128,-1,34
 1000 1062 1000 1062 1000 964 c 0,35,36
 1000 939 1000 939 962.5 761.5 c 128,-1,37
 925 584 925 584 844 204 c 0,38,39
 837 164 837 164 836 153 c 0,40,41
 836 133 836 133 847 124 c 128,-1,42
 858 115 858 115 884 115 c 0,43,44
 906 115 906 115 930.5 133 c 128,-1,45
 955 151 955 151 973 180 c 1,46,-1
 1038 58 l 1,47,48
 1011 16 1011 16 944 -7 c 1,49,0
 838 -58 838 -58 792.5 -90 c 128,-1,1
615.5 215.5 m 128,-1,51
 707 316 707 316 760 469 c 1,52,53
 776 554 776 554 789 616 c 128,-1,54
 802 678 802 678 811 720 c 0,55,56
 853 918 853 918 855 949 c 0,57,58
 851 984 851 984 818 996.5 c 128,-1,59
 785 1009 785 1009 702 1009 c 0,60,61
 607 1009 607 1009 497 901 c 128,-1,62
 387 793 387 793 311.5 632 c 128,-1,63
 236 471 236 471 236 324 c 0,64,65
 238 229 238 229 291.5 172 c 128,-1,66
 345 115 345 115 431 115 c 0,67,50
 524 115 524 115 615.5 215.5 c 128,-1,51
EndSplineSet
Validated: 1048609
EndChar

StartChar: ae
Encoding: 230 230 202
Width: 1200
GlyphClass: 2
Flags: W
AnchorPoint: "Anchor-14" 720 1124 basechar 0
AnchorPoint: "Anchor-12" 480 0 basechar 0
LayerCount: 2
Fore
SplineSet
56.5 44 m 128,-1,1
 -5 113 -5 113 -5 229 c 0,2,3
 -5 267 -5 267 7 335 c 0,4,5
 42 495 42 495 152 582 c 128,-1,6
 262 669 262 669 418 669 c 2,7,-1
 547 669 l 1,8,-1
 567 765 l 2,9,10
 578 814 578 814 578 856 c 0,11,12
 578 925 578 925 552.5 967 c 128,-1,13
 527 1009 527 1009 484 1009 c 0,14,15
 431 1009 431 1009 369 954.5 c 128,-1,16
 307 900 307 900 267 816 c 1,17,-1
 129 860 l 1,18,19
 185 989 185 989 288 1069 c 128,-1,20
 391 1149 391 1149 498 1149 c 0,21,22
 569 1149 569 1149 622 1102.5 c 128,-1,23
 675 1056 675 1056 696 978 c 1,24,25
 756 1058 756 1058 828 1103.5 c 128,-1,26
 900 1149 900 1149 969 1149 c 0,27,28
 1069 1149 1069 1149 1121 1061 c 128,-1,29
 1173 973 1173 973 1173 816 c 0,30,31
 1173 692 1173 692 1136 527 c 1,32,-1
 665 527 l 1,33,34
 638 382 638 382 638 296 c 0,35,36
 638 207 638 207 668 161 c 128,-1,37
 698 115 698 115 769 115 c 0,38,39
 798 115 798 115 840 137.5 c 128,-1,40
 882 160 882 160 915.5 199 c 128,-1,41
 949 238 949 238 962 284 c 1,42,-1
 1069 189 l 1,43,44
 1038 127 1038 127 983.5 78 c 128,-1,45
 929 29 929 29 867 2 c 128,-1,46
 805 -25 805 -25 755 -25 c 0,47,48
 660 -25 660 -25 602.5 26.5 c 128,-1,49
 545 78 545 78 527 171 c 1,50,51
 469 80 469 80 386.5 27.5 c 128,-1,52
 304 -25 304 -25 229 -25 c 0,53,0
 118 -25 118 -25 56.5 44 c 128,-1,1
1022 669 m 1,54,55
 1033 745 1033 745 1033 811 c 0,56,57
 1033 900 1033 900 1013 954.5 c 128,-1,58
 993 1009 993 1009 955 1009 c 0,59,60
 879 1009 879 1009 805 911 c 128,-1,61
 731 813 731 813 696 667 c 1,62,-1
 1022 669 l 1,54,55
397 198.5 m 128,-1,64
 469 282 469 282 493 409 c 2,65,-1
 518 531 l 1,66,-1
 398 531 l 2,67,68
 303 531 303 531 237 477.5 c 128,-1,69
 171 424 171 424 151 320 c 0,70,71
 144 289 144 289 144 253 c 0,72,73
 144 189 144 189 171 152 c 128,-1,74
 198 115 198 115 244 115 c 0,75,63
 325 115 325 115 397 198.5 c 128,-1,64
EndSplineSet
Validated: 1048577
EndChar

StartChar: b
Encoding: 98 98 203
Width: 1200
GlyphClass: 2
Flags: W
AnchorPoint: "Anchor-14" 867 1818 basechar 0
AnchorPoint: "Anchor-12" 480 0 basechar 0
LayerCount: 2
Fore
SplineSet
1129 684 m 1,0,1
 1084 686 1084 686 1025 680 c 1,2,3
 972 473 972 473 886 313 c 128,-1,4
 800 153 800 153 693.5 64 c 128,-1,5
 587 -25 587 -25 475 -25 c 0,6,7
 310 -25 310 -25 234 54 c 128,-1,8
 158 133 158 133 158 293 c 0,9,10
 158 375 158 375 178 489 c 2,11,-1
 382 1455 l 1,12,-1
 533 1455 l 1,13,-1
 325 489 l 2,14,15
 305 374 305 374 305 305 c 0,16,17
 305 205 305 205 347 160 c 128,-1,18
 389 115 389 115 489 115 c 0,19,20
 558 115 558 115 631.5 190 c 128,-1,21
 705 265 705 265 770.5 398 c 128,-1,22
 836 531 836 531 880 695 c 1,23,24
 795 702 795 702 746.5 748.5 c 128,-1,25
 698 795 698 795 696 875 c 0,26,27
 696 953 696 953 748 1004.5 c 128,-1,28
 800 1056 800 1056 885 1056 c 0,29,30
 1052 1056 1052 1056 1053 871 c 0,31,32
 1053 840 1053 840 1051 822 c 1,33,34
 1116 826 1116 826 1162 825 c 1,35,-1
 1129 684 l 1,0,1
911 816 m 1,37,38
 918 856 918 856 918 876 c 0,39,40
 918 952 918 952 862 953 c 0,41,42
 831 953 831 953 815.5 934.5 c 128,-1,43
 800 916 800 916 800 893 c 0,44,36
 800 816 800 816 911 816 c 1,37,38
EndSplineSet
Validated: 1048609
EndChar

StartChar: c
Encoding: 99 99 204
Width: 1200
GlyphClass: 2
Flags: W
AnchorPoint: "Anchor-14" 720 1124 basechar 0
AnchorPoint: "Anchor-12" 480 0 basechar 0
LayerCount: 2
Fore
SplineSet
951 195 m 1,0,1
 878 108 878 108 812.5 61.5 c 128,-1,2
 747 15 747 15 668 -5 c 128,-1,3
 589 -25 589 -25 473 -25 c 0,4,5
 295 -25 295 -25 215.5 43 c 128,-1,6
 136 111 136 111 136 275 c 0,7,8
 136 393 136 393 175 569 c 0,9,10
 210 733 210 733 297 865.5 c 128,-1,11
 384 998 384 998 504 1073.5 c 128,-1,12
 624 1149 624 1149 749 1149 c 0,13,14
 851 1149 851 1149 914.5 1128 c 128,-1,15
 978 1107 978 1107 1021.5 1059 c 128,-1,16
 1065 1011 1065 1011 1104 925 c 1,17,-1
 967 853 l 1,18,19
 927 946 927 946 879 977.5 c 128,-1,20
 831 1009 831 1009 735 1009 c 0,21,22
 650 1009 650 1009 562.5 949 c 128,-1,23
 475 889 475 889 408.5 785.5 c 128,-1,24
 342 682 342 682 313 555 c 0,25,26
 280 406 280 406 280 315 c 0,27,28
 280 204 280 204 329 159.5 c 128,-1,29
 378 115 378 115 487 115 c 0,30,31
 574 115 574 115 629.5 129.5 c 128,-1,32
 685 144 685 144 731.5 177.5 c 128,-1,33
 778 211 778 211 840 278 c 1,34,-1
 951 195 l 1,0,1
EndSplineSet
Validated: 1048577
EndChar

StartChar: ccedilla
Encoding: 231 231 207
Width: 1200
GlyphClass: 2
Flags: W
AnchorPoint: "Anchor-14" 720 1124 basechar 0
AnchorPoint: "Anchor-12" 480 0 basechar 0
LayerCount: 2
Fore
SplineSet
562 949 m 128,-1,1
 475 889 475 889 408.5 785.5 c 128,-1,2
 342 682 342 682 313 555 c 0,3,4
 280 406 280 406 280 315 c 0,5,6
 280 204 280 204 329 159.5 c 128,-1,7
 378 115 378 115 487 115 c 0,8,9
 574 115 574 115 629.5 129.5 c 128,-1,10
 685 144 685 144 731.5 177.5 c 128,-1,11
 778 211 778 211 840 278 c 1,12,-1
 951 195 l 1,13,14
 856 80 856 80 768 32 c 128,-1,15
 680 -16 680 -16 545 -24 c 1,16,-1
 529 -82 l 1,17,18
 580 -95 580 -95 609 -130 c 128,-1,19
 638 -165 638 -165 638 -215 c 0,20,21
 638 -233 638 -233 636 -242 c 0,22,23
 620 -318 620 -318 552 -365.5 c 128,-1,24
 484 -413 484 -413 389 -413 c 0,25,26
 325 -413 325 -413 276 -390 c 128,-1,27
 227 -367 227 -367 205 -333 c 1,28,-1
 282 -233 l 1,29,30
 295 -251 295 -251 325.5 -261 c 128,-1,31
 356 -271 356 -271 395 -271 c 256,32,33
 433 -271 433 -271 460 -253.5 c 128,-1,34
 487 -236 487 -236 487 -213 c 0,35,36
 487 -197 487 -197 455.5 -187.5 c 128,-1,37
 424 -178 424 -178 367 -178 c 1,38,-1
 395 -22 l 1,39,40
 259 -9 259 -9 197.5 60 c 128,-1,41
 136 129 136 129 136 275 c 0,42,43
 136 393 136 393 175 569 c 0,44,45
 210 733 210 733 297 865.5 c 128,-1,46
 384 998 384 998 504 1073.5 c 128,-1,47
 624 1149 624 1149 749 1149 c 0,48,49
 851 1149 851 1149 914.5 1128 c 128,-1,50
 978 1107 978 1107 1021.5 1059 c 128,-1,51
 1065 1011 1065 1011 1104 925 c 1,52,-1
 967 853 l 1,53,54
 927 946 927 946 879 977.5 c 128,-1,55
 831 1009 831 1009 735 1009 c 0,56,0
 649 1009 649 1009 562 949 c 128,-1,1
EndSplineSet
Validated: 1048577
EndChar

StartChar: d
Encoding: 100 100 210
Width: 1200
GlyphClass: 2
Flags: W
AnchorPoint: "Anchor-15" 1229 1124 basechar 0
AnchorPoint: "Anchor-14" 867 1818 basechar 0
AnchorPoint: "Anchor-12" 480 0 basechar 0
LayerCount: 2
Fore
SplineSet
982.5 133 m 128,-1,1
 1007 151 1007 151 1025 180 c 1,2,-1
 1091 58 l 1,3,4
 1066 20 1066 20 1008.5 -2.5 c 128,-1,5
 951 -25 951 -25 891 -25 c 0,6,7
 820 -25 820 -25 782.5 2 c 128,-1,8
 745 29 745 29 744 89 c 1,9,10
 700 33 700 33 619 4 c 128,-1,11
 538 -25 538 -25 402 -25 c 0,12,13
 244 -25 244 -25 174 43 c 128,-1,14
 104 111 104 111 104 269 c 0,15,16
 104 382 104 382 140 567 c 0,17,18
 175 740 175 740 255.5 872 c 128,-1,19
 336 1004 336 1004 452.5 1076.5 c 128,-1,20
 569 1149 569 1149 707 1149 c 0,21,22
 780 1149 780 1149 836.5 1121 c 128,-1,23
 893 1093 893 1093 922 1044 c 1,24,-1
 1015 1455 l 1,25,-1
 1165 1455 l 1,26,-1
 898 202 l 2,27,28
 893 175 893 175 893 156 c 0,29,30
 893 134 893 134 902 124.5 c 128,-1,31
 911 115 911 115 936 115 c 0,32,0
 958 115 958 115 982.5 133 c 128,-1,1
630.5 154 m 128,-1,34
 725 193 725 193 760 255 c 1,35,-1
 867 747 l 2,36,37
 871 767 871 767 871 805 c 0,38,39
 871 898 871 898 823 953.5 c 128,-1,40
 775 1009 775 1009 693 1009 c 0,41,42
 548 1009 548 1009 436.5 884.5 c 128,-1,43
 325 760 325 760 280 553 c 0,44,45
 245 389 245 389 245 304 c 0,46,47
 245 204 245 204 286 159.5 c 128,-1,48
 327 115 327 115 416 115 c 0,49,33
 536 115 536 115 630.5 154 c 128,-1,34
EndSplineSet
Validated: 1048577
Substitution2: "Single Substitution lookup 142 subtable" LIG
Substitution2: "'aalt' Access All Alternates lookup 0 subtable" LIG
EndChar

StartChar: eth
Encoding: 240 240 211
Width: 1200
Flags: W
LayerCount: 2
Fore
SplineSet
1160 1344 m 1,0,-1
 1011 1269 l 1,1,2
 1082 1154 1082 1154 1082 958 c 0,3,4
 1082 765 1082 765 1011 436 c 1,5,-1
 1007 436 l 1,6,7
 945 216 945 216 799 95.5 c 128,-1,8
 653 -25 653 -25 429 -25 c 0,9,10
 265 -25 265 -25 191.5 42 c 128,-1,11
 118 109 118 109 118 256 c 0,12,13
 118 341 118 341 144 473 c 0,14,15
 191 695 191 695 342 819.5 c 128,-1,16
 493 944 493 944 709 944 c 0,17,18
 847 944 847 944 929 905 c 1,19,20
 929 1096 929 1096 856 1193 c 1,21,-1
 507 1020 l 1,22,-1
 455 1142 l 1,23,-1
 731 1280 l 1,24,25
 635 1318 635 1318 455 1315 c 1,26,-1
 478 1455 l 1,27,28
 769 1460 769 1460 911 1371 c 1,29,-1
 1107 1469 l 1,30,-1
 1160 1344 l 1,0,-1
713.5 211.5 m 128,-1,32
 822 296 822 296 865 449 c 0,33,34
 885 540 885 540 898 618 c 0,35,36
 905 722 905 722 857 763 c 128,-1,37
 809 804 809 804 696 804 c 0,38,39
 538 804 538 804 431.5 715.5 c 128,-1,40
 325 627 325 627 285 458 c 0,41,42
 263 363 263 363 264 296 c 0,43,44
 264 205 264 205 307.5 166 c 128,-1,45
 351 127 351 127 445 127 c 0,46,31
 605 127 605 127 713.5 211.5 c 128,-1,32
EndSplineSet
Validated: 33
EndChar

StartChar: dcaron
Encoding: 271 271 212
Width: 1200
GlyphClass: 2
Flags: W
AnchorPoint: "Anchor-15" 1229 1124 basechar 0
AnchorPoint: "Anchor-14" 867 1818 basechar 0
AnchorPoint: "Anchor-12" 480 0 basechar 0
LayerCount: 2
Fore
SplineSet
982.5 133 m 128,-1,1
 1007 151 1007 151 1025 180 c 1,2,-1
 1091 58 l 1,3,4
 1066 20 1066 20 1008.5 -2.5 c 128,-1,5
 951 -25 951 -25 891 -25 c 0,6,7
 820 -25 820 -25 782.5 2 c 128,-1,8
 745 29 745 29 744 89 c 1,9,10
 700 33 700 33 619 4 c 128,-1,11
 538 -25 538 -25 402 -25 c 0,12,13
 244 -25 244 -25 174 43 c 128,-1,14
 104 111 104 111 104 269 c 0,15,16
 104 382 104 382 140 567 c 0,17,18
 175 740 175 740 255.5 872 c 128,-1,19
 336 1004 336 1004 452.5 1076.5 c 128,-1,20
 569 1149 569 1149 707 1149 c 0,21,22
 780 1149 780 1149 836.5 1121 c 128,-1,23
 893 1093 893 1093 922 1044 c 1,24,-1
 1015 1455 l 1,25,-1
 1165 1455 l 1,26,-1
 898 202 l 2,27,28
 893 175 893 175 893 156 c 0,29,30
 893 134 893 134 902 124.5 c 128,-1,31
 911 115 911 115 936 115 c 0,32,0
 958 115 958 115 982.5 133 c 128,-1,1
1249 960 m 1,33,-1
 1129 960 l 1,34,-1
 1218 1453 l 1,35,-1
 1371 1453 l 1,36,-1
 1249 960 l 1,33,-1
630.5 154 m 128,-1,38
 725 193 725 193 760 255 c 1,39,-1
 867 747 l 2,40,41
 871 767 871 767 871 805 c 0,42,43
 871 898 871 898 823 953.5 c 128,-1,44
 775 1009 775 1009 693 1009 c 0,45,46
 548 1009 548 1009 436.5 884.5 c 128,-1,47
 325 760 325 760 280 553 c 0,48,49
 245 389 245 389 245 304 c 0,50,51
 245 204 245 204 286 159.5 c 128,-1,52
 327 115 327 115 416 115 c 0,53,37
 536 115 536 115 630.5 154 c 128,-1,38
EndSplineSet
Validated: 1048577
EndChar

StartChar: dcroat
Encoding: 273 273 213
Width: 1200
GlyphClass: 2
Flags: W
AnchorPoint: "Anchor-15" 1229 1124 basechar 0
AnchorPoint: "Anchor-14" 867 1818 basechar 0
AnchorPoint: "Anchor-12" 480 0 basechar 0
LayerCount: 2
Fore
SplineSet
1113 1209 m 1,0,-1
 898 202 l 2,1,2
 893 175 893 175 893 156 c 0,3,4
 893 134 893 134 902 124.5 c 128,-1,5
 911 115 911 115 936 115 c 0,6,7
 958 115 958 115 982.5 133 c 128,-1,8
 1007 151 1007 151 1025 180 c 1,9,-1
 1091 58 l 1,10,11
 1066 20 1066 20 1008.5 -2.5 c 128,-1,12
 951 -25 951 -25 891 -25 c 0,13,14
 820 -25 820 -25 782.5 2 c 128,-1,15
 745 29 745 29 744 89 c 1,16,17
 700 33 700 33 619 4 c 128,-1,18
 538 -25 538 -25 402 -25 c 0,19,20
 244 -25 244 -25 174 43 c 128,-1,21
 104 111 104 111 104 269 c 0,22,23
 104 382 104 382 140 567 c 0,24,25
 175 740 175 740 255.5 872 c 128,-1,26
 336 1004 336 1004 452.5 1076.5 c 128,-1,27
 569 1149 569 1149 707 1149 c 0,28,29
 780 1149 780 1149 836.5 1121 c 128,-1,30
 893 1093 893 1093 922 1044 c 1,31,-1
 960 1209 l 1,32,-1
 755 1209 l 1,33,-1
 785 1349 l 1,34,-1
 991 1349 l 1,35,-1
 1015 1455 l 1,36,-1
 1165 1455 l 1,37,-1
 1144 1349 l 1,38,-1
 1289 1349 l 1,39,-1
 1260 1209 l 1,40,-1
 1113 1209 l 1,0,-1
867 747 m 2,41,42
 871 767 871 767 871 805 c 0,43,44
 871 898 871 898 823 953.5 c 128,-1,45
 775 1009 775 1009 693 1009 c 0,46,47
 548 1009 548 1009 436.5 884.5 c 128,-1,48
 325 760 325 760 280 553 c 0,49,50
 245 389 245 389 245 304 c 0,51,52
 245 204 245 204 286 159.5 c 128,-1,53
 327 115 327 115 416 115 c 0,54,55
 536 115 536 115 630.5 154 c 128,-1,56
 725 193 725 193 760 255 c 1,57,-1
 867 747 l 2,41,42
EndSplineSet
Validated: 1048577
EndChar

StartChar: e
Encoding: 101 101 214
Width: 1200
GlyphClass: 2
Flags: W
AnchorPoint: "Anchor-14" 720 1124 basechar 0
AnchorPoint: "Anchor-13" 736 56 basechar 0
AnchorPoint: "Anchor-12" 480 0 basechar 0
LayerCount: 2
Fore
SplineSet
741 171 m 128,-1,1
 847 222 847 222 922 302 c 1,2,-1
 993 176 l 1,3,4
 902 85 902 85 768.5 30 c 128,-1,5
 635 -25 635 -25 516 -25 c 0,6,7
 425 -25 425 -25 353.5 16.5 c 128,-1,8
 282 58 282 58 240 133.5 c 128,-1,9
 198 209 198 209 196 305 c 1,10,11
 141 283 141 283 122 262 c 1,12,-1
 60 382 l 1,13,14
 89 429 89 429 204 469 c 1,15,16
 226 674 226 674 304 828 c 128,-1,17
 382 982 382 982 505.5 1065.5 c 128,-1,18
 629 1149 629 1149 784 1149 c 0,19,20
 909 1149 909 1149 977 1084.5 c 128,-1,21
 1045 1020 1045 1020 1045 895 c 0,22,23
 1045 739 1045 739 945 636 c 128,-1,24
 845 533 845 533 713.5 478.5 c 128,-1,25
 582 424 582 424 382 365 c 2,26,-1
 342 355 l 1,27,-1
 342 320 l 2,28,29
 342 233 342 233 399 176.5 c 128,-1,30
 456 120 456 120 540 120 c 0,31,0
 635 120 635 120 741 171 c 128,-1,1
502 874.5 m 128,-1,33
 391 740 391 740 356 511 c 1,34,35
 531 555 531 555 636.5 591 c 128,-1,36
 742 627 742 627 821 698 c 128,-1,37
 900 769 900 769 900 880 c 0,38,39
 900 940 900 940 862.5 974.5 c 128,-1,40
 825 1009 825 1009 769 1009 c 0,41,32
 613 1009 613 1009 502 874.5 c 128,-1,33
EndSplineSet
Validated: 1048577
Substitution2: "Single Substitution lookup 156 subtable" u_e.liga
Substitution2: "Single Substitution lookup 155 subtable" t_e.liga
Substitution2: "Single Substitution lookup 154 subtable" s_e.liga
Substitution2: "Single Substitution lookup 153 subtable" r_e.liga
Substitution2: "Single Substitution lookup 152 subtable" n_e.liga
Substitution2: "Single Substitution lookup 151 subtable" m_e.liga
Substitution2: "Single Substitution lookup 149 subtable" l_e.liga
Substitution2: "Single Substitution lookup 148 subtable" k_e.liga
Substitution2: "Single Substitution lookup 147 subtable" i_e.liga
Substitution2: "Single Substitution lookup 146 subtable" h_e.liga
Substitution2: "Single Substitution lookup 144 subtable" LIG
Substitution2: "Single Substitution lookup 143 subtable" e_e.liga
Substitution2: "Single Substitution lookup 142 subtable" d_e.liga
Substitution2: "Single Substitution lookup 141 subtable" a_e.liga
Substitution2: "'sinf' Scientific Inferiors lookup 10 subtable" uni2091
Substitution2: "'subs' Subscript lookup 9 subtable" uni2091
AlternateSubs2: "'aalt' Access All Alternates lookup 1 subtable" uni2091 a_e.liga d_e.liga e_e.liga LIG h_e.liga i_e.liga k_e.liga l_e.liga m_e.liga n_e.liga r_e.liga s_e.liga t_e.liga u_e.liga
EndChar

StartChar: eogonek
Encoding: 281 281 229
Width: 1200
GlyphClass: 2
Flags: W
AnchorPoint: "Anchor-14" 720 1124 basechar 0
AnchorPoint: "Anchor-13" 736 56 basechar 0
AnchorPoint: "Anchor-12" 480 0 basechar 0
LayerCount: 2
Fore
SplineSet
622 -51 m 128,-1,1
 580 -82 580 -82 580 -113 c 0,2,3
 580 -160 580 -160 653 -160 c 0,4,5
 678 -160 678 -160 702.5 -150 c 128,-1,6
 727 -140 727 -140 742 -124 c 1,7,-1
 847 -224 l 1,8,9
 816 -259 816 -259 761.5 -279.5 c 128,-1,10
 707 -300 707 -300 651 -300 c 0,11,12
 551 -300 551 -300 490 -258 c 128,-1,13
 429 -216 429 -216 429 -145 c 0,14,15
 429 -85 429 -85 495 -25 c 1,16,17
 366 -16 366 -16 282 74.5 c 128,-1,18
 198 165 198 165 196 305 c 1,19,20
 141 283 141 283 122 262 c 1,21,-1
 60 382 l 1,22,23
 89 429 89 429 204 469 c 1,24,25
 226 674 226 674 304 828 c 128,-1,26
 382 982 382 982 505.5 1065.5 c 128,-1,27
 629 1149 629 1149 784 1149 c 0,28,29
 909 1149 909 1149 977 1084.5 c 128,-1,30
 1045 1020 1045 1020 1045 895 c 0,31,32
 1045 739 1045 739 945 636 c 128,-1,33
 845 533 845 533 713.5 478.5 c 128,-1,34
 582 424 582 424 382 365 c 2,35,-1
 342 355 l 1,36,-1
 342 320 l 2,37,38
 342 233 342 233 399 176.5 c 128,-1,39
 456 120 456 120 540 120 c 0,40,41
 635 120 635 120 741 171 c 128,-1,42
 847 222 847 222 922 302 c 1,43,-1
 993 176 l 1,44,45
 902 85 902 85 758 25 c 0,46,0
 664 -20 664 -20 622 -51 c 128,-1,1
502 874.5 m 128,-1,48
 391 740 391 740 356 511 c 1,49,50
 531 555 531 555 636.5 591 c 128,-1,51
 742 627 742 627 821 698 c 128,-1,52
 900 769 900 769 900 880 c 0,53,54
 900 940 900 940 862.5 974.5 c 128,-1,55
 825 1009 825 1009 769 1009 c 0,56,47
 613 1009 613 1009 502 874.5 c 128,-1,48
EndSplineSet
Validated: 1048577
EndChar

StartChar: f
Encoding: 102 102 231
Width: 1200
GlyphClass: 2
Flags: W
AnchorPoint: "Anchor-14" 867 1818 basechar 0
AnchorPoint: "Anchor-12" 480 0 basechar 0
LayerCount: 2
Fore
SplineSet
253.5 -318.5 m 128,-1,1
 200 -262 200 -262 200 -169 c 0,2,3
 200 -53 200 -53 232.5 140 c 128,-1,4
 265 333 265 333 325 547 c 1,5,6
 141 658 141 658 142 731 c 0,7,8
 142 776 142 776 190 804.5 c 128,-1,9
 238 833 238 833 315 833 c 2,10,-1
 415 833 l 1,11,12
 488 1064 488 1064 554 1203 c 128,-1,13
 620 1342 620 1342 699 1411 c 128,-1,14
 778 1480 778 1480 880 1480 c 0,15,16
 1018 1480 1018 1480 1092.5 1407.5 c 128,-1,17
 1167 1335 1167 1335 1185 1193 c 1,18,-1
 1042 1131 l 1,19,20
 1033 1244 1033 1244 997.5 1292 c 128,-1,21
 962 1340 962 1340 882 1340 c 0,22,23
 820 1340 820 1340 772 1290 c 128,-1,24
 724 1240 724 1240 677.5 1134.5 c 128,-1,25
 631 1029 631 1029 564 833 c 1,26,-1
 1018 833 l 1,27,-1
 989 691 l 1,28,-1
 516 691 l 1,29,30
 511 678 511 678 504.5 657 c 128,-1,31
 498 636 498 636 493 622 c 1,32,33
 620 522 620 522 691 403.5 c 128,-1,34
 762 285 762 285 762 160 c 0,35,36
 762 4 762 4 717.5 -117 c 128,-1,37
 673 -238 673 -238 589 -306.5 c 128,-1,38
 505 -375 505 -375 395 -375 c 0,39,0
 307 -375 307 -375 253.5 -318.5 c 128,-1,1
378 715 m 1,40,-1
 336 722 l 2,41,42
 289 733 289 733 269 733 c 0,43,44
 256 733 256 733 251 727 c 0,45,46
 231 703 231 703 358 656 c 1,47,-1
 378 715 l 1,40,-1
515.5 -185.5 m 128,-1,49
 564 -136 564 -136 591 -50 c 128,-1,50
 618 36 618 36 618 147 c 0,51,52
 618 231 618 231 574.5 304.5 c 128,-1,53
 531 378 531 378 445 456 c 1,54,55
 400 285 400 285 373.5 121.5 c 128,-1,56
 347 -42 347 -42 345 -153 c 0,57,58
 349 -189 349 -189 365.5 -212 c 128,-1,59
 382 -235 382 -235 405 -235 c 0,60,48
 467 -235 467 -235 515.5 -185.5 c 128,-1,49
EndSplineSet
Validated: 1048609
Substitution2: "Single Substitution lookup 146 subtable" LIG
Substitution2: "Single Substitution lookup 145 subtable" f_f.liga
Substitution2: "Single Substitution lookup 144 subtable" LIG
AlternateSubs2: "'aalt' Access All Alternates lookup 1 subtable" LIG f_f.liga
EndChar

StartChar: g
Encoding: 103 103 232
Width: 1200
GlyphClass: 2
Flags: W
AnchorPoint: "Anchor-14" 738 1124 basechar 0
AnchorPoint: "Anchor-12" 384 -455 basechar 0
LayerCount: 2
Fore
SplineSet
105 -334 m 128,-1,1
 45 -293 45 -293 47 -225 c 0,2,3
 47 -149 47 -149 131 -94.5 c 128,-1,4
 215 -40 215 -40 370 -10 c 128,-1,5
 525 20 525 20 733 20 c 1,6,7
 748 49 748 49 765 122 c 2,8,-1
 776 164 l 1,9,10
 731 126 731 126 647.5 105 c 128,-1,11
 564 84 564 84 482 84 c 0,12,13
 333 84 333 84 242 169.5 c 128,-1,14
 151 255 151 255 151 396 c 0,15,16
 147 578 147 578 244.5 752.5 c 128,-1,17
 342 927 342 927 494.5 1038 c 128,-1,18
 647 1149 647 1149 798 1149 c 0,19,20
 942 1149 942 1149 1013.5 1106.5 c 128,-1,21
 1085 1064 1085 1064 1084 969 c 0,22,23
 1084 927 1084 927 1044 724.5 c 128,-1,24
 1004 522 1004 522 954 308.5 c 128,-1,25
 904 95 904 95 875 16 c 1,26,27
 917 18 917 18 950.5 25.5 c 128,-1,28
 984 33 984 33 1042 51 c 1,29,-1
 996 -95 l 1,30,31
 936 -117 936 -117 811 -120 c 1,32,33
 733 -236 733 -236 584 -305.5 c 128,-1,34
 435 -375 435 -375 264 -375 c 0,35,0
 165 -375 165 -375 105 -334 c 128,-1,1
677.5 236.5 m 128,-1,37
 742 249 742 249 777.5 286.5 c 128,-1,38
 813 324 813 324 827 402 c 2,39,-1
 895 729 l 2,40,41
 937 924 937 924 938 949 c 0,42,43
 936 978 936 978 924.5 991 c 128,-1,44
 913 1004 913 1004 884 1006.5 c 128,-1,45
 855 1009 855 1009 785 1009 c 0,46,47
 683 1009 683 1009 567 919 c 128,-1,48
 451 829 451 829 373 690 c 128,-1,49
 295 551 295 551 295 416 c 0,50,51
 295 329 295 329 350 276.5 c 128,-1,52
 405 224 405 224 495 224 c 0,53,36
 613 224 613 224 677.5 236.5 c 128,-1,37
471.5 -204 m 128,-1,55
 558 -173 558 -173 622 -122 c 1,56,57
 449 -131 449 -131 322.5 -158 c 128,-1,58
 196 -185 196 -185 195 -213 c 0,59,60
 195 -220 195 -220 226.5 -227.5 c 128,-1,61
 258 -235 258 -235 298 -235 c 0,62,54
 385 -235 385 -235 471.5 -204 c 128,-1,55
EndSplineSet
Validated: 1048609
EndChar

StartChar: h
Encoding: 104 104 237
Width: 1200
GlyphClass: 2
Flags: W
AnchorPoint: "Anchor-14" 427 1389 basechar 0
AnchorPoint: "Anchor-12" 504 0 basechar 0
LayerCount: 2
Fore
SplineSet
1064 58 m 1,0,1
 1039 20 1039 20 981.5 -2.5 c 128,-1,2
 924 -25 924 -25 864 -25 c 0,3,4
 797 -25 797 -25 755 9.5 c 128,-1,5
 713 44 713 44 713 102 c 0,6,7
 711 175 711 175 747.5 330 c 128,-1,8
 784 485 784 485 855 724 c 0,9,10
 882 815 882 815 882 873 c 0,11,12
 882 1009 882 1009 738 1009 c 0,13,14
 662 1009 662 1009 570 931 c 128,-1,15
 478 853 478 853 405.5 734.5 c 128,-1,16
 333 616 333 616 311 507 c 2,17,-1
 204 0 l 1,18,-1
 53 0 l 1,19,-1
 360 1455 l 1,20,-1
 511 1455 l 1,21,-1
 398 922 l 1,22,23
 478 1031 478 1031 568 1090 c 128,-1,24
 658 1149 658 1149 753 1149 c 0,25,26
 1031 1149 1031 1149 1031 909 c 0,27,28
 1031 822 1031 822 996 707 c 0,29,30
 863 271 863 271 862 153 c 0,31,32
 864 135 864 135 876.5 125 c 128,-1,33
 889 115 889 115 909 115 c 0,34,35
 931 115 931 115 955.5 133 c 128,-1,36
 980 151 980 151 998 180 c 1,37,-1
 1064 58 l 1,0,1
EndSplineSet
Validated: 1048609
Substitution2: "Single Substitution lookup 146 subtable" LIG
Substitution2: "'sinf' Scientific Inferiors lookup 10 subtable" uni2095
Substitution2: "'subs' Subscript lookup 9 subtable" uni2095
AlternateSubs2: "'aalt' Access All Alternates lookup 1 subtable" uni2095 LIG
EndChar

StartChar: hbar
Encoding: 295 295 238
Width: 1200
GlyphClass: 2
Flags: W
AnchorPoint: "Anchor-14" 427 1389 basechar 0
AnchorPoint: "Anchor-12" 504 0 basechar 0
LayerCount: 2
Fore
SplineSet
1064 58 m 1,0,1
 1039 20 1039 20 981.5 -2.5 c 128,-1,2
 924 -25 924 -25 864 -25 c 0,3,4
 797 -25 797 -25 755 9.5 c 128,-1,5
 713 44 713 44 713 102 c 0,6,7
 711 175 711 175 747.5 330 c 128,-1,8
 784 485 784 485 855 724 c 0,9,10
 882 815 882 815 882 873 c 0,11,12
 882 1009 882 1009 738 1009 c 0,13,14
 662 1009 662 1009 570 931 c 128,-1,15
 478 853 478 853 405.5 734.5 c 128,-1,16
 333 616 333 616 311 507 c 2,17,-1
 204 0 l 1,18,-1
 53 0 l 1,19,-1
 307 1209 l 1,20,-1
 204 1209 l 1,21,-1
 235 1349 l 1,22,-1
 338 1349 l 1,23,-1
 360 1455 l 1,24,-1
 511 1455 l 1,25,-1
 489 1349 l 1,26,-1
 738 1349 l 1,27,-1
 707 1209 l 1,28,-1
 458 1209 l 1,29,-1
 398 922 l 1,30,31
 478 1031 478 1031 568 1090 c 128,-1,32
 658 1149 658 1149 753 1149 c 0,33,34
 1031 1149 1031 1149 1031 909 c 0,35,36
 1031 822 1031 822 996 707 c 0,37,38
 863 271 863 271 862 153 c 0,39,40
 864 135 864 135 876.5 125 c 128,-1,41
 889 115 889 115 909 115 c 0,42,43
 931 115 931 115 955.5 133 c 128,-1,44
 980 151 980 151 998 180 c 1,45,-1
 1064 58 l 1,0,1
EndSplineSet
Validated: 1048609
EndChar

StartChar: dotlessi
Encoding: 305 305 241
Width: 1200
GlyphClass: 2
Flags: W
AnchorPoint: "Anchor-14" 604 1124 basechar 0
AnchorPoint: "Anchor-13" 736 13 basechar 0
AnchorPoint: "Anchor-12" 591 0 basechar 0
LayerCount: 2
Fore
SplineSet
412 34 m 128,-1,1
 333 93 333 93 333 231 c 0,2,3
 333 333 333 333 373 476 c 2,4,-1
 482 864 l 2,5,6
 487 886 487 886 487 904 c 0,7,8
 487 937 487 937 467 956.5 c 128,-1,9
 447 976 447 976 404 984 c 1,10,-1
 440 1124 l 1,11,12
 536 1109 536 1109 589 1063.5 c 128,-1,13
 642 1018 642 1018 642 945 c 0,14,15
 642 923 642 923 633 887 c 2,16,-1
 520 476 l 2,17,18
 485 354 485 354 485 276 c 0,19,20
 485 187 485 187 530 151 c 128,-1,21
 575 115 575 115 669 115 c 0,22,23
 733 115 733 115 774.5 145.5 c 128,-1,24
 816 176 816 176 882 265 c 1,25,-1
 996 185 l 1,26,27
 911 65 911 65 837.5 20 c 128,-1,28
 764 -25 764 -25 656 -25 c 0,29,0
 491 -25 491 -25 412 34 c 128,-1,1
EndSplineSet
Validated: 1048577
EndChar

StartChar: iogonek
Encoding: 303 303 251
Width: 1200
GlyphClass: 2
Flags: W
AnchorPoint: "Anchor-14" 675 1460 basechar 0
AnchorPoint: "Anchor-13" 736 13 basechar 0
AnchorPoint: "Anchor-12" 591 0 basechar 0
LayerCount: 2
Fore
SplineSet
568.5 1342.5 m 128,-1,1
 542 1360 542 1360 542 1402 c 0,2,3
 542 1426 542 1426 547 1455 c 0,4,5
 560 1517 560 1517 590 1539.5 c 128,-1,6
 620 1562 620 1562 685 1562 c 0,7,8
 749 1562 749 1562 775.5 1545.5 c 128,-1,9
 802 1529 802 1529 802 1487 c 0,10,11
 802 1462 802 1462 795 1435 c 0,12,13
 782 1373 782 1373 753 1349 c 128,-1,14
 724 1325 724 1325 658 1325 c 0,15,0
 595 1325 595 1325 568.5 1342.5 c 128,-1,1
625.5 -92 m 128,-1,17
 580 -124 580 -124 580 -156 c 0,18,19
 580 -203 580 -203 653 -204 c 0,20,21
 678 -204 678 -204 702.5 -194 c 128,-1,22
 727 -184 727 -184 742 -167 c 1,23,-1
 847 -267 l 1,24,25
 816 -302 816 -302 761.5 -323 c 128,-1,26
 707 -344 707 -344 651 -344 c 0,27,28
 551 -344 551 -344 490 -302 c 128,-1,29
 429 -260 429 -260 429 -189 c 0,30,31
 429 -144 429 -144 466.5 -99.5 c 128,-1,32
 504 -55 504 -55 564 -20 c 1,33,34
 446 -5 446 -5 389.5 55.5 c 128,-1,35
 333 116 333 116 333 233 c 0,36,37
 333 333 333 333 373 476 c 2,38,-1
 482 864 l 2,39,40
 487 886 487 886 487 904 c 0,41,42
 487 937 487 937 467 956.5 c 128,-1,43
 447 976 447 976 404 984 c 1,44,-1
 440 1124 l 1,45,46
 536 1109 536 1109 589 1063.5 c 128,-1,47
 642 1018 642 1018 642 945 c 0,48,49
 642 923 642 923 633 887 c 2,50,-1
 520 476 l 2,51,52
 485 354 485 354 485 276 c 0,53,54
 485 187 485 187 530 151 c 128,-1,55
 575 115 575 115 669 115 c 0,56,57
 733 115 733 115 774.5 145.5 c 128,-1,58
 816 176 816 176 882 265 c 1,59,-1
 996 185 l 1,60,61
 936 101 936 101 885.5 56 c 128,-1,62
 835 11 835 11 778 -7 c 1,63,16
 671 -60 671 -60 625.5 -92 c 128,-1,17
EndSplineSet
Validated: 1048577
EndChar

StartChar: uni0237
Encoding: 567 567 254
Width: 1200
GlyphClass: 2
Flags: W
AnchorPoint: "Anchor-14" 911 1124 basechar 0
AnchorPoint: "Anchor-12" 384 -455 basechar 0
LayerCount: 2
Fore
SplineSet
-4 -334 m 128,-1,1
 -64 -293 -64 -293 -62 -225 c 0,2,3
 -62 -150 -62 -150 21.5 -95 c 128,-1,4
 105 -40 105 -40 259 -8 c 128,-1,5
 413 24 413 24 618 27 c 1,6,7
 649 105 649 105 710 360.5 c 128,-1,8
 771 616 771 616 820 856 c 0,9,10
 824 885 824 885 824 896 c 0,11,12
 824 929 824 929 805.5 949 c 128,-1,13
 787 969 787 969 742 976 c 1,14,-1
 782 1116 l 1,15,16
 977 1083 977 1083 976 933 c 0,17,18
 976 909 976 909 971 878 c 0,19,20
 835 194 835 194 762 18 c 1,21,22
 813 20 813 20 842 26.5 c 128,-1,23
 871 33 871 33 933 55 c 1,24,-1
 887 -95 l 1,25,26
 827 -117 827 -117 702 -120 c 1,27,28
 624 -236 624 -236 474.5 -305.5 c 128,-1,29
 325 -375 325 -375 155 -375 c 0,30,0
 56 -375 56 -375 -4 -334 c 128,-1,1
362.5 -204 m 128,-1,32
 449 -173 449 -173 513 -122 c 1,33,34
 340 -131 340 -131 213.5 -158 c 128,-1,35
 87 -185 87 -185 85 -213 c 0,36,37
 85 -220 85 -220 117 -227.5 c 128,-1,38
 149 -235 149 -235 189 -235 c 0,39,31
 276 -235 276 -235 362.5 -204 c 128,-1,32
EndSplineSet
Validated: 1048609
EndChar

StartChar: k
Encoding: 107 107 256
Width: 1200
GlyphClass: 2
Flags: W
AnchorPoint: "Anchor-14" 880 1818 basechar 0
AnchorPoint: "Anchor-12" 493 0 basechar 0
LayerCount: 2
Fore
SplineSet
865 154 m 128,-1,1
 895 193 895 193 918 256 c 1,2,-1
 1024 133 l 1,3,4
 902 -25 902 -25 785 -25 c 0,5,6
 705 -25 705 -25 660.5 63 c 128,-1,7
 616 151 616 151 607 307 c 0,8,9
 605 371 605 371 575 430 c 128,-1,10
 545 489 545 489 502 522 c 1,11,-1
 564 635 l 1,12,13
 677 631 677 631 765 661 c 128,-1,14
 853 691 853 691 903 749 c 128,-1,15
 953 807 953 807 953 885 c 0,16,17
 953 943 953 943 907.5 982.5 c 128,-1,18
 862 1022 862 1022 802 1022 c 0,19,20
 666 1022 666 1022 554 913 c 128,-1,21
 442 804 442 804 382 616 c 1,22,-1
 251 0 l 1,23,-1
 100 0 l 1,24,-1
 407 1455 l 1,25,-1
 560 1455 l 1,26,-1
 467 1016 l 1,27,28
 623 1161 623 1161 818 1162 c 0,29,30
 938 1162 938 1162 1018 1092 c 128,-1,31
 1098 1022 1098 1022 1098 911 c 0,32,33
 1098 766 1098 766 992.5 655 c 128,-1,34
 887 544 887 544 715 505 c 1,35,36
 735 463 735 463 746.5 414 c 128,-1,37
 758 365 758 365 760 327 c 0,38,39
 764 222 764 222 774 168.5 c 128,-1,40
 784 115 784 115 807 115 c 0,41,0
 835 115 835 115 865 154 c 128,-1,1
EndSplineSet
Validated: 1048609
Substitution2: "Single Substitution lookup 148 subtable" LIG
Substitution2: "'sinf' Scientific Inferiors lookup 10 subtable" uni2096
Substitution2: "'subs' Subscript lookup 9 subtable" uni2096
AlternateSubs2: "'aalt' Access All Alternates lookup 1 subtable" uni2096 LIG
EndChar

StartChar: l
Encoding: 108 108 258
Width: 1200
GlyphClass: 2
Flags: W
AnchorPoint: "Anchor-15" 1284 1455 basechar 0
AnchorPoint: "Anchor-14" 825 1455 basechar 0
AnchorPoint: "Anchor-12" 462 0 basechar 0
LayerCount: 2
Fore
SplineSet
775.5 158.5 m 128,-1,1
 836 202 836 202 876 267 c 1,2,-1
 991 184 l 1,3,4
 927 89 927 89 833.5 32 c 128,-1,5
 740 -25 740 -25 651 -25 c 0,6,7
 547 -25 547 -25 480 40 c 128,-1,8
 413 105 413 105 398 216 c 1,9,10
 218 81 218 81 16 -2 c 1,11,-1
 -33 125 l 1,12,13
 198 221 198 221 395 398 c 1,14,15
 400 925 400 925 492 1202.5 c 128,-1,16
 584 1480 584 1480 776 1480 c 0,17,18
 876 1480 876 1480 934.5 1411 c 128,-1,19
 993 1342 993 1342 993 1218 c 0,20,21
 993 993 993 993 871 760 c 128,-1,22
 749 527 749 527 540 335 c 1,23,24
 544 239 544 239 578.5 177 c 128,-1,25
 613 115 613 115 664 115 c 256,26,0
 715 115 715 115 775.5 158.5 c 128,-1,1
655.5 1231.5 m 128,-1,28
 607 1125 607 1125 577 943.5 c 128,-1,29
 547 762 547 762 540 544 c 1,30,31
 682 704 682 704 762 879.5 c 128,-1,32
 842 1055 842 1055 842 1211 c 0,33,34
 842 1278 842 1278 823 1308 c 128,-1,35
 804 1338 804 1338 762 1338 c 0,36,27
 704 1338 704 1338 655.5 1231.5 c 128,-1,28
EndSplineSet
Validated: 1048577
Substitution2: "Single Substitution lookup 157 subtable" u_l.liga
Substitution2: "Single Substitution lookup 156 subtable" t_l.liga
Substitution2: "Single Substitution lookup 155 subtable" s_l.liga
Substitution2: "Single Substitution lookup 154 subtable" r_l.liga
Substitution2: "Single Substitution lookup 153 subtable" n_l.liga
Substitution2: "Single Substitution lookup 152 subtable" m_l.liga
Substitution2: "Single Substitution lookup 151 subtable" LIG
Substitution2: "Single Substitution lookup 150 subtable" l_l.liga
Substitution2: "Single Substitution lookup 149 subtable" LIG
Substitution2: "Single Substitution lookup 148 subtable" k_l.liga
Substitution2: "Single Substitution lookup 147 subtable" i_l.liga
Substitution2: "Single Substitution lookup 146 subtable" h_l.liga
Substitution2: "Single Substitution lookup 142 subtable" d_l.liga
Substitution2: "Single Substitution lookup 141 subtable" a_l.liga
Substitution2: "'sinf' Scientific Inferiors lookup 10 subtable" uni2097
Substitution2: "'subs' Subscript lookup 9 subtable" uni2097
AlternateSubs2: "'aalt' Access All Alternates lookup 1 subtable" uni2097 a_l.liga d_l.liga h_l.liga i_l.liga k_l.liga LIG l_l.liga m_l.liga n_l.liga r_l.liga s_l.liga t_l.liga u_l.liga
EndChar

StartChar: lcaron
Encoding: 318 318 260
Width: 1200
GlyphClass: 2
Flags: W
AnchorPoint: "Anchor-15" 1284 1455 basechar 0
AnchorPoint: "Anchor-14" 825 1455 basechar 0
AnchorPoint: "Anchor-12" 462 0 basechar 0
LayerCount: 2
Fore
SplineSet
871 760 m 128,-1,1
 749 527 749 527 540 335 c 1,2,3
 544 239 544 239 578.5 177 c 128,-1,4
 613 115 613 115 664 115 c 256,5,6
 715 115 715 115 775.5 158.5 c 128,-1,7
 836 202 836 202 876 267 c 1,8,-1
 991 184 l 1,9,10
 927 89 927 89 833.5 32 c 128,-1,11
 740 -25 740 -25 651 -25 c 0,12,13
 547 -25 547 -25 480 40 c 128,-1,14
 413 105 413 105 398 216 c 1,15,16
 218 81 218 81 16 -2 c 1,17,-1
 -33 125 l 1,18,19
 198 221 198 221 395 398 c 1,20,21
 400 925 400 925 492 1202.5 c 128,-1,22
 584 1480 584 1480 776 1480 c 0,23,24
 876 1480 876 1480 934.5 1411 c 128,-1,25
 993 1342 993 1342 993 1218 c 0,26,0
 993 993 993 993 871 760 c 128,-1,1
1045 960 m 1,27,-1
 1135 1453 l 1,28,-1
 1287 1453 l 1,29,-1
 1165 960 l 1,30,-1
 1045 960 l 1,27,-1
655.5 1231.5 m 128,-1,32
 607 1125 607 1125 577 943.5 c 128,-1,33
 547 762 547 762 540 544 c 1,34,35
 682 704 682 704 762 879.5 c 128,-1,36
 842 1055 842 1055 842 1211 c 0,37,38
 842 1278 842 1278 823 1308 c 128,-1,39
 804 1338 804 1338 762 1338 c 0,40,31
 704 1338 704 1338 655.5 1231.5 c 128,-1,32
EndSplineSet
Validated: 1048577
EndChar

StartChar: lslash
Encoding: 322 322 262
Width: 1200
GlyphClass: 2
Flags: W
AnchorPoint: "Anchor-15" 1284 1455 basechar 0
AnchorPoint: "Anchor-14" 825 1455 basechar 0
AnchorPoint: "Anchor-12" 462 0 basechar 0
LayerCount: 2
Fore
SplineSet
951 951 m 1,0,1
 900 787 900 787 793.5 629 c 128,-1,2
 687 471 687 471 540 335 c 1,3,4
 544 239 544 239 578.5 177 c 128,-1,5
 613 115 613 115 664 115 c 256,6,7
 715 115 715 115 775.5 158.5 c 128,-1,8
 836 202 836 202 876 267 c 1,9,-1
 991 184 l 1,10,11
 927 89 927 89 833.5 32 c 128,-1,12
 740 -25 740 -25 651 -25 c 0,13,14
 547 -25 547 -25 480 40 c 128,-1,15
 413 105 413 105 398 216 c 1,16,17
 218 81 218 81 16 -2 c 1,18,-1
 -33 125 l 1,19,20
 198 221 198 221 395 398 c 1,21,22
 399 613 399 613 409 745 c 1,23,-1
 313 709 l 1,24,-1
 345 860 l 1,25,-1
 425 889 l 1,26,27
 500 1480 500 1480 776 1480 c 0,28,29
 876 1480 876 1480 934.5 1411 c 128,-1,30
 993 1342 993 1342 993 1218 c 0,31,32
 993 1165 993 1165 984 1102 c 1,33,-1
 1095 1144 l 1,34,-1
 1056 991 l 1,35,-1
 951 951 l 1,0,1
655.5 1232.5 m 128,-1,37
 607 1127 607 1127 578 947 c 1,38,-1
 818 1040 l 1,39,40
 842 1124 842 1124 842 1211 c 0,41,42
 842 1278 842 1278 823 1308 c 128,-1,43
 804 1338 804 1338 762 1338 c 0,44,36
 704 1338 704 1338 655.5 1232.5 c 128,-1,37
558 802 m 1,45,46
 545 691 545 691 540 544 c 1,47,48
 680 700 680 700 762 880 c 1,49,-1
 558 802 l 1,45,46
EndSplineSet
Validated: 1048577
EndChar

StartChar: m
Encoding: 109 109 263
Width: 1200
GlyphClass: 2
Flags: W
AnchorPoint: "Anchor-14" 720 1124 basechar 0
AnchorPoint: "Anchor-12" 480 0 basechar 0
LayerCount: 2
Fore
SplineSet
824 11 m 128,-1,1
 784 47 784 47 784 107 c 0,2,3
 784 182 784 182 820 332 c 128,-1,4
 856 482 856 482 927 724 c 0,5,6
 972 873 972 873 973 940 c 0,7,8
 973 1009 973 1009 925 1009 c 0,9,10
 858 1009 858 1009 818 970 c 128,-1,11
 778 931 778 931 747 833.5 c 128,-1,12
 716 736 716 736 675 535 c 2,13,-1
 564 0 l 1,14,-1
 415 0 l 1,15,-1
 565 720 l 2,16,17
 581 796 581 796 593 857 c 128,-1,18
 605 918 605 918 605 949 c 256,19,20
 605 980 605 980 593.5 994.5 c 128,-1,21
 582 1009 582 1009 553 1009 c 0,22,23
 495 1009 495 1009 461 974.5 c 128,-1,24
 427 940 427 940 397 843.5 c 128,-1,25
 367 747 367 747 322 531 c 2,26,-1
 211 0 l 1,27,-1
 60 0 l 1,28,-1
 262 940 l 2,29,30
 262 945 262 945 264.5 951.5 c 128,-1,31
 267 958 267 958 267 965 c 0,32,33
 267 985 267 985 256 997 c 128,-1,34
 245 1009 245 1009 224 1009 c 0,35,36
 208 1009 208 1009 186 996.5 c 128,-1,37
 164 984 164 984 129 953 c 1,38,-1
 65 1065 l 1,39,40
 90 1103 90 1103 147.5 1126 c 128,-1,41
 205 1149 205 1149 265 1149 c 0,42,43
 323 1149 323 1149 356 1120 c 128,-1,44
 389 1091 389 1091 396 1042 c 1,45,46
 440 1095 440 1095 480 1122 c 128,-1,47
 520 1149 520 1149 567 1149 c 0,48,49
 632 1149 632 1149 667 1129 c 128,-1,50
 702 1109 702 1109 713.5 1080 c 128,-1,51
 725 1051 725 1051 731 1007 c 1,52,53
 786 1083 786 1083 831 1116 c 128,-1,54
 876 1149 876 1149 940 1149 c 0,55,56
 1122 1149 1122 1149 1122 965 c 0,57,58
 1122 865 1122 865 1067 707 c 0,59,60
 925 294 925 294 933 153 c 0,61,62
 935 135 935 135 947.5 125 c 128,-1,63
 960 115 960 115 980 115 c 0,64,65
 1002 115 1002 115 1025.5 132 c 128,-1,66
 1049 149 1049 149 1069 180 c 1,67,-1
 1135 58 l 1,68,69
 1110 20 1110 20 1052.5 -2.5 c 128,-1,70
 995 -25 995 -25 935 -25 c 0,71,0
 864 -25 864 -25 824 11 c 128,-1,1
EndSplineSet
Validated: 1048609
Substitution2: "Single Substitution lookup 152 subtable" LIG
Substitution2: "Single Substitution lookup 151 subtable" LIG
Substitution2: "'sinf' Scientific Inferiors lookup 10 subtable" uni2098
Substitution2: "'subs' Subscript lookup 9 subtable" uni2098
AlternateSubs2: "'aalt' Access All Alternates lookup 1 subtable" uni2098 LIG
EndChar

StartChar: n
Encoding: 110 110 264
Width: 1200
GlyphClass: 2
Flags: W
AnchorPoint: "Anchor-14" 720 1124 basechar 0
AnchorPoint: "Anchor-12" 480 0 basechar 0
LayerCount: 2
Fore
SplineSet
1078 58 m 1,0,1
 1054 22 1054 22 996 -1.5 c 128,-1,2
 938 -25 938 -25 878 -25 c 0,3,4
 811 -25 811 -25 771 9.5 c 128,-1,5
 731 44 731 44 729 102 c 0,6,7
 725 186 725 186 761.5 354 c 128,-1,8
 798 522 798 522 869 725 c 0,9,10
 900 812 900 812 900 878 c 256,11,12
 900 943 900 943 867.5 976 c 128,-1,13
 835 1009 835 1009 773 1009 c 0,14,15
 704 1009 704 1009 616.5 934.5 c 128,-1,16
 529 860 529 860 459 748 c 128,-1,17
 389 636 389 636 367 533 c 2,18,-1
 256 0 l 1,19,-1
 104 0 l 1,20,-1
 305 940 l 2,21,22
 305 944 305 944 308 951 c 128,-1,23
 311 958 311 958 311 964 c 0,24,25
 311 984 311 984 298 996.5 c 128,-1,26
 285 1009 285 1009 265 1009 c 0,27,28
 249 1009 249 1009 229 996.5 c 128,-1,29
 209 984 209 984 173 953 c 1,30,-1
 111 1065 l 1,31,32
 135 1101 135 1101 192 1125 c 128,-1,33
 249 1149 249 1149 309 1149 c 0,34,35
 374 1149 374 1149 419.5 1110 c 128,-1,36
 465 1071 465 1071 465 1011 c 0,37,38
 465 986 465 986 458 964 c 2,39,-1
 444 913 l 1,40,41
 522 1024 522 1024 612 1086.5 c 128,-1,42
 702 1149 702 1149 785 1149 c 0,43,44
 914 1149 914 1149 982.5 1088 c 128,-1,45
 1051 1027 1051 1027 1051 911 c 0,46,47
 1051 824 1051 824 1013 709 c 0,48,49
 869 274 869 274 878 153 c 0,50,51
 878 135 878 135 891 125 c 128,-1,52
 904 115 904 115 924 115 c 0,53,54
 948 115 948 115 971.5 132 c 128,-1,55
 995 149 995 149 1015 180 c 1,56,-1
 1078 58 l 1,0,1
EndSplineSet
Validated: 1048609
Substitution2: "Single Substitution lookup 153 subtable" LIG
Substitution2: "Single Substitution lookup 152 subtable" LIG
Substitution2: "'sinf' Scientific Inferiors lookup 10 subtable" uni2099
Substitution2: "'subs' Subscript lookup 9 subtable" uni2099
AlternateSubs2: "'aalt' Access All Alternates lookup 1 subtable" uni2099 LIG
EndChar

StartChar: eng
Encoding: 331 331 268
Width: 1200
GlyphClass: 2
Flags: W
AnchorPoint: "Anchor-14" 720 1124 basechar 0
AnchorPoint: "Anchor-12" 480 0 basechar 0
LayerCount: 2
Fore
SplineSet
1078 58 m 1,0,1
 1053 18 1053 18 982 -7 c 1,2,3
 957 -123 957 -123 915 -188 c 128,-1,4
 873 -253 873 -253 800 -281 c 128,-1,5
 727 -309 727 -309 605 -309 c 1,6,-1
 622 -169 l 1,7,8
 720 -169 720 -169 762.5 -138 c 128,-1,9
 805 -107 805 -107 827 -20 c 1,10,11
 780 -5 780 -5 754.5 29.5 c 128,-1,12
 729 64 729 64 729 115 c 0,13,14
 729 202 729 202 765.5 365.5 c 128,-1,15
 802 529 802 529 869 725 c 0,16,17
 900 812 900 812 900 878 c 256,18,19
 900 943 900 943 867.5 976 c 128,-1,20
 835 1009 835 1009 773 1009 c 0,21,22
 704 1009 704 1009 616.5 934.5 c 128,-1,23
 529 860 529 860 459 748 c 128,-1,24
 389 636 389 636 367 533 c 2,25,-1
 256 0 l 1,26,-1
 104 0 l 1,27,-1
 305 940 l 2,28,29
 305 944 305 944 308 951 c 128,-1,30
 311 958 311 958 311 964 c 0,31,32
 311 984 311 984 298 996.5 c 128,-1,33
 285 1009 285 1009 265 1009 c 0,34,35
 249 1009 249 1009 229 996.5 c 128,-1,36
 209 984 209 984 173 953 c 1,37,-1
 111 1065 l 1,38,39
 135 1101 135 1101 192 1125 c 128,-1,40
 249 1149 249 1149 309 1149 c 0,41,42
 374 1149 374 1149 419.5 1110 c 128,-1,43
 465 1071 465 1071 465 1011 c 0,44,45
 465 986 465 986 458 964 c 2,46,-1
 444 913 l 1,47,48
 522 1024 522 1024 612 1086.5 c 128,-1,49
 702 1149 702 1149 785 1149 c 0,50,51
 914 1149 914 1149 982.5 1088 c 128,-1,52
 1051 1027 1051 1027 1051 911 c 0,53,54
 1051 824 1051 824 1013 709 c 0,55,56
 869 274 869 274 878 153 c 0,57,58
 878 135 878 135 891 125 c 128,-1,59
 904 115 904 115 924 115 c 0,60,61
 948 115 948 115 971.5 132 c 128,-1,62
 995 149 995 149 1015 180 c 1,63,-1
 1078 58 l 1,0,1
EndSplineSet
Validated: 1048609
EndChar

StartChar: o
Encoding: 111 111 270
Width: 1200
GlyphClass: 2
Flags: W
AnchorPoint: "Anchor-15" 1229 1124 basechar 0
AnchorPoint: "Anchor-14" 720 1124 basechar 0
AnchorPoint: "Anchor-13" 920 18 basechar 0
AnchorPoint: "Anchor-12" 480 0 basechar 0
LayerCount: 2
Fore
SplineSet
227 45 m 128,-1,1
 149 115 149 115 149 278 c 0,2,3
 149 391 149 391 185 569 c 0,4,5
 218 734 218 734 296.5 867 c 128,-1,6
 375 1000 375 1000 484 1074.5 c 128,-1,7
 593 1149 593 1149 716 1149 c 0,8,9
 894 1149 894 1149 974.5 1079 c 128,-1,10
 1055 1009 1055 1009 1055 849 c 0,11,12
 1055 725 1055 725 1015 555 c 0,13,14
 979 388 979 388 900.5 256 c 128,-1,15
 822 124 822 124 714.5 49.5 c 128,-1,16
 607 -25 607 -25 484 -25 c 0,17,0
 305 -25 305 -25 227 45 c 128,-1,1
657.5 174 m 128,-1,19
 735 233 735 233 793 336.5 c 128,-1,20
 851 440 851 440 876 569 c 0,21,22
 905 713 905 713 905 809 c 0,23,24
 905 920 905 920 858 964.5 c 128,-1,25
 811 1009 811 1009 702 1009 c 0,26,27
 622 1009 622 1009 545.5 951 c 128,-1,28
 469 893 469 893 411 789 c 128,-1,29
 353 685 353 685 324 555 c 0,30,31
 291 406 291 406 291 315 c 0,32,33
 291 206 291 206 340 160.5 c 128,-1,34
 389 115 389 115 498 115 c 0,35,18
 580 115 580 115 657.5 174 c 128,-1,19
EndSplineSet
Validated: 1
Substitution2: "Single Substitution lookup 140 subtable" ordmasculine
Substitution2: "'sinf' Scientific Inferiors lookup 10 subtable" uni2092
Substitution2: "'subs' Subscript lookup 9 subtable" uni2092
AlternateSubs2: "'aalt' Access All Alternates lookup 1 subtable" uni2092 ordmasculine
EndChar

StartChar: ohorn
Encoding: 417 417 283
Width: 1200
GlyphClass: 2
Flags: W
AnchorPoint: "Anchor-15" 1549 1236 basechar 0
AnchorPoint: "Anchor-14" 720 1124 basechar 0
AnchorPoint: "Anchor-13" 920 18 basechar 0
AnchorPoint: "Anchor-12" 480 0 basechar 0
LayerCount: 2
Fore
SplineSet
1271 1325 m 1,0,-1
 1424 1325 l 1,1,-1
 1365 1055 l 2,2,3
 1341 944 1341 944 1269.5 877.5 c 128,-1,4
 1198 811 1198 811 1102 811 c 0,5,6
 1075 811 1075 811 1055 818 c 1,7,8
 1050 705 1050 705 1015 555 c 0,9,10
 979 388 979 388 900.5 256 c 128,-1,11
 822 124 822 124 714.5 49.5 c 128,-1,12
 607 -25 607 -25 484 -25 c 0,13,14
 306 -25 306 -25 227.5 45 c 128,-1,15
 149 115 149 115 149 278 c 0,16,17
 149 391 149 391 185 569 c 0,18,19
 218 734 218 734 296.5 867 c 128,-1,20
 375 1000 375 1000 484 1074.5 c 128,-1,21
 593 1149 593 1149 716 1149 c 0,22,23
 860 1149 860 1149 939 1104.5 c 128,-1,24
 1018 1060 1018 1060 1044 960 c 1,25,26
 1064 951 1064 951 1095 951 c 0,27,28
 1140 951 1140 951 1172.5 983.5 c 128,-1,29
 1205 1016 1205 1016 1216 1067 c 2,30,-1
 1271 1325 l 1,0,-1
905 809 m 0,32,33
 905 920 905 920 858 964.5 c 128,-1,34
 811 1009 811 1009 702 1009 c 0,35,36
 622 1009 622 1009 545.5 951 c 128,-1,37
 469 893 469 893 411 789 c 128,-1,38
 353 685 353 685 324 555 c 0,39,40
 291 406 291 406 291 315 c 0,41,42
 291 206 291 206 340 160.5 c 128,-1,43
 389 115 389 115 498 115 c 0,44,45
 580 115 580 115 657.5 174 c 128,-1,46
 735 233 735 233 793 336.5 c 128,-1,47
 851 440 851 440 876 569 c 0,48,31
 905 713 905 713 905 809 c 0,32,33
EndSplineSet
Validated: 1
EndChar

StartChar: oslash
Encoding: 248 248 291
Width: 1200
GlyphClass: 2
Flags: W
AnchorPoint: "Anchor-15" 1229 1124 basechar 0
AnchorPoint: "Anchor-14" 720 1124 basechar 0
AnchorPoint: "Anchor-13" 920 18 basechar 0
AnchorPoint: "Anchor-12" 480 0 basechar 0
LayerCount: 2
Fore
SplineSet
1096 1211 m 1,0,-1
 998 1055 l 1,1,2
 1054 986 1054 986 1055 849 c 0,3,4
 1055 727 1055 727 1015 555 c 0,5,6
 979 388 979 388 900.5 256 c 128,-1,7
 822 124 822 124 714.5 49.5 c 128,-1,8
 607 -25 607 -25 484 -25 c 0,9,10
 384 -25 384 -25 324 -5 c 1,11,-1
 273 -85 l 1,12,-1
 100 -85 l 1,13,-1
 202 73 l 1,14,15
 149 144 149 144 149 280 c 0,16,17
 149 393 149 393 185 569 c 0,18,19
 218 734 218 734 296.5 867 c 128,-1,20
 375 1000 375 1000 484 1074.5 c 128,-1,21
 593 1149 593 1149 716 1149 c 0,22,23
 812 1149 812 1149 875 1131 c 1,24,-1
 925 1211 l 1,25,-1
 1096 1211 l 1,0,-1
291 313 m 0,27,28
 291 269 291 269 300 229 c 1,29,-1
 791 1000 l 1,30,31
 749 1009 749 1009 702 1009 c 0,32,33
 622 1009 622 1009 545.5 951 c 128,-1,34
 469 893 469 893 411 789 c 128,-1,35
 353 685 353 685 324 555 c 0,36,26
 291 406 291 406 291 313 c 0,27,28
905 811 m 0,38,39
 905 856 905 856 896 896 c 1,40,-1
 405 125 l 1,41,42
 447 114 447 114 498 115 c 0,43,44
 580 115 580 115 657.5 174 c 128,-1,45
 735 233 735 233 793 336.5 c 128,-1,46
 851 440 851 440 876 569 c 0,47,37
 905 729 905 729 905 811 c 0,38,39
EndSplineSet
Validated: 33
EndChar

StartChar: oe
Encoding: 339 339 293
Width: 1200
GlyphClass: 2
Flags: W
AnchorPoint: "Anchor-14" 720 1124 basechar 0
AnchorPoint: "Anchor-12" 480 0 basechar 0
LayerCount: 2
Fore
SplineSet
1120 1060 m 128,-1,1
 1173 971 1173 971 1173 816 c 0,2,3
 1173 692 1173 692 1136 527 c 1,4,-1
 669 527 l 1,5,6
 645 409 645 409 645 311 c 0,7,8
 645 218 645 218 666 166.5 c 128,-1,9
 687 115 687 115 727 115 c 0,10,11
 762 115 762 115 826.5 163 c 128,-1,12
 891 211 891 211 947 280 c 1,13,-1
 1051 187 l 1,14,15
 976 92 976 92 881.5 33.5 c 128,-1,16
 787 -25 787 -25 713 -25 c 256,17,18
 638 -25 638 -25 586.5 18.5 c 128,-1,19
 535 62 535 62 515 136 c 1,20,21
 455 58 455 58 380 16.5 c 128,-1,22
 305 -25 305 -25 231 -25 c 0,23,24
 129 -25 129 -25 76.5 59.5 c 128,-1,25
 24 144 24 144 24 295 c 0,26,27
 24 415 24 415 60 571 c 0,28,29
 98 738 98 738 167 869 c 128,-1,30
 236 1000 236 1000 325.5 1074.5 c 128,-1,31
 415 1149 415 1149 511 1149 c 0,32,33
 593 1149 593 1149 641 1101 c 128,-1,34
 689 1053 689 1053 698 971 c 1,35,36
 754 1055 754 1055 826 1102 c 128,-1,37
 898 1149 898 1149 967 1149 c 0,38,0
 1067 1149 1067 1149 1120 1060 c 128,-1,1
355.5 172 m 128,-1,40
 413 229 413 229 459 332.5 c 128,-1,41
 505 436 505 436 531 569 c 0,42,43
 556 716 556 716 556 824 c 0,44,45
 556 911 556 911 540.5 960 c 128,-1,46
 525 1009 525 1009 496 1009 c 0,47,48
 445 1009 445 1009 389 949 c 128,-1,49
 333 889 333 889 282 784.5 c 128,-1,50
 231 680 231 680 198 553 c 0,51,52
 163 420 163 420 164 307 c 0,53,54
 164 220 164 220 185.5 167.5 c 128,-1,55
 207 115 207 115 245 115 c 0,56,39
 298 115 298 115 355.5 172 c 128,-1,40
1020 678 m 1,57,58
 1033 753 1033 753 1033 822 c 0,59,60
 1033 907 1033 907 1012 958 c 128,-1,61
 991 1009 991 1009 953 1009 c 0,62,63
 884 1009 884 1009 813 912.5 c 128,-1,64
 742 816 742 816 700 669 c 1,65,-1
 1020 678 l 1,57,58
EndSplineSet
Validated: 1048609
EndChar

StartChar: p
Encoding: 112 112 294
Width: 1200
GlyphClass: 2
Flags: W
AnchorPoint: "Anchor-14" 720 1124 basechar 0
AnchorPoint: "Anchor-12" 480 0 basechar 0
LayerCount: 2
Fore
SplineSet
1009.5 1083.5 m 128,-1,1
 1084 1018 1084 1018 1084 862 c 0,2,3
 1084 751 1084 751 1044 555 c 0,4,5
 1011 386 1011 386 936.5 254 c 128,-1,6
 862 122 862 122 757.5 48.5 c 128,-1,7
 653 -25 653 -25 531 -25 c 0,8,9
 444 -25 444 -25 381 -9 c 128,-1,10
 318 7 318 7 291 38 c 1,11,-1
 207 -331 l 1,12,-1
 56 -331 l 1,13,-1
 238 520 l 2,14,15
 242 538 242 538 249 569 c 0,16,17
 254 598 254 598 258 609 c 2,18,-1
 327 940 l 2,19,20
 327 951 327 951 331 973 c 0,21,22
 329 989 329 989 317 999 c 128,-1,23
 305 1009 305 1009 285 1009 c 0,24,25
 263 1009 263 1009 239 991 c 128,-1,26
 215 973 215 973 196 944 c 1,27,-1
 131 1065 l 1,28,29
 156 1103 156 1103 213.5 1126 c 128,-1,30
 271 1149 271 1149 331 1149 c 0,31,32
 406 1149 406 1149 442 1120 c 128,-1,33
 478 1091 478 1091 476 1029 c 1,34,35
 527 1085 527 1085 605.5 1117 c 128,-1,36
 684 1149 684 1149 764 1149 c 0,37,0
 935 1149 935 1149 1009.5 1083.5 c 128,-1,1
944 829 m 0,39,40
 944 929 944 929 898.5 969 c 128,-1,41
 853 1009 853 1009 749 1009 c 0,42,43
 614 1009 614 1009 530.5 917 c 128,-1,44
 447 825 447 825 404 609 c 2,45,-1
 375 458 l 2,46,47
 346 313 346 313 345 249 c 0,48,49
 345 191 345 191 365 162 c 128,-1,50
 385 133 385 133 426 124 c 128,-1,51
 467 115 467 115 545 115 c 0,52,53
 663 115 663 115 760.5 239.5 c 128,-1,54
 858 364 858 364 905 569 c 0,55,38
 944 749 944 749 944 829 c 0,39,40
EndSplineSet
Validated: 1048609
Substitution2: "'sinf' Scientific Inferiors lookup 10 subtable" uni209A
Substitution2: "'subs' Subscript lookup 9 subtable" uni209A
Substitution2: "'aalt' Access All Alternates lookup 0 subtable" uni209A
EndChar

StartChar: thorn
Encoding: 254 254 295
Width: 1200
GlyphClass: 2
Flags: W
AnchorPoint: "Anchor-14" 720 1124 basechar 0
AnchorPoint: "Anchor-12" 480 0 basechar 0
LayerCount: 2
Fore
SplineSet
975.5 1083.5 m 128,-1,1
 1051 1018 1051 1018 1051 864 c 0,2,3
 1051 755 1051 755 1007 555 c 0,4,5
 971 384 971 384 896.5 253 c 128,-1,6
 822 122 822 122 719 48.5 c 128,-1,7
 616 -25 616 -25 495 -25 c 0,8,9
 408 -25 408 -25 345 -9 c 128,-1,10
 282 7 282 7 255 38 c 1,11,-1
 171 -331 l 1,12,-1
 20 -331 l 1,13,-1
 396 1455 l 1,14,-1
 547 1455 l 1,15,-1
 456 1040 l 1,16,17
 505 1091 505 1091 579 1120 c 128,-1,18
 653 1149 653 1149 727 1149 c 0,19,0
 900 1149 900 1149 975.5 1083.5 c 128,-1,1
902 827 m 0,21,22
 902 929 902 929 859 969 c 128,-1,23
 816 1009 816 1009 713 1009 c 0,24,25
 618 1009 618 1009 552.5 967 c 128,-1,26
 487 925 487 925 439 826 c 128,-1,27
 391 727 391 727 355 555 c 0,28,29
 310 337 310 337 309 253 c 0,30,31
 309 191 309 191 329 162 c 128,-1,32
 349 133 349 133 390 124 c 128,-1,33
 431 115 431 115 509 115 c 0,34,35
 589 115 589 115 662 172 c 128,-1,36
 735 229 735 229 789.5 332.5 c 128,-1,37
 844 436 844 436 869 569 c 0,38,20
 902 736 902 736 902 827 c 0,21,22
EndSplineSet
Validated: 1048577
EndChar

StartChar: q
Encoding: 113 113 296
Width: 1200
GlyphClass: 2
Flags: W
AnchorPoint: "Anchor-14" 720 1124 basechar 0
AnchorPoint: "Anchor-12" 480 0 basechar 0
LayerCount: 2
Fore
SplineSet
955 1124 m 1,0,-1
 1104 1124 l 1,1,-1
 796 -331 l 1,2,-1
 645 -331 l 1,3,-1
 733 76 l 1,4,5
 686 32 686 32 612 3.5 c 128,-1,6
 538 -25 538 -25 465 -25 c 0,7,8
 294 -25 294 -25 219.5 40 c 128,-1,9
 145 105 145 105 145 262 c 0,10,11
 145 373 145 373 185 569 c 0,12,13
 218 738 218 738 292.5 870 c 128,-1,14
 367 1002 367 1002 471.5 1075.5 c 128,-1,15
 576 1149 576 1149 698 1149 c 0,16,17
 789 1149 789 1149 849 1126.5 c 128,-1,18
 909 1104 909 1104 935 1065 c 1,19,-1
 955 1124 l 1,0,-1
706.5 208.5 m 128,-1,21
 791 302 791 302 831 533 c 2,22,-1
 845 620 l 2,23,24
 874 784 874 784 875 853 c 0,25,26
 875 946 875 946 833 977.5 c 128,-1,27
 791 1009 791 1009 684 1009 c 0,28,29
 566 1009 566 1009 468.5 884.5 c 128,-1,30
 371 760 371 760 324 555 c 0,31,32
 286 375 286 375 285 295 c 0,33,34
 285 195 285 195 330.5 155 c 128,-1,35
 376 115 376 115 480 115 c 0,36,20
 622 115 622 115 706.5 208.5 c 128,-1,21
EndSplineSet
Validated: 1048577
EndChar

StartChar: r
Encoding: 114 114 297
Width: 1200
GlyphClass: 2
Flags: W
AnchorPoint: "Anchor-14" 720 1124 basechar 0
AnchorPoint: "Anchor-12" 716 0 basechar 0
LayerCount: 2
Fore
SplineSet
1051 198 m 1,0,1
 1020 98 1020 98 939 36.5 c 128,-1,2
 858 -25 858 -25 762 -25 c 0,3,4
 669 -25 669 -25 615.5 35.5 c 128,-1,5
 562 96 562 96 562 196 c 0,6,7
 562 478 562 478 775 845 c 1,8,9
 693 809 693 809 614 789 c 128,-1,10
 535 769 535 769 478 769 c 2,11,-1
 467 769 l 1,12,13
 396 613 396 613 251 455 c 1,14,-1
 165 573 l 1,15,16
 267 675 267 675 331 787 c 1,17,18
 251 811 251 811 206.5 858 c 128,-1,19
 162 905 162 905 162 971 c 0,20,21
 160 1049 160 1049 214.5 1099 c 128,-1,22
 269 1149 269 1149 355 1149 c 0,23,24
 428 1149 428 1149 472 1098 c 128,-1,25
 516 1047 516 1047 516 964 c 0,26,27
 516 949 516 949 513 909 c 1,28,29
 595 916 595 916 715 966 c 128,-1,30
 835 1016 835 1016 951 1093 c 1,31,-1
 1049 1024 l 1,32,33
 889 789 889 789 797 575.5 c 128,-1,34
 705 362 705 362 707 202 c 0,35,36
 709 162 709 162 728 138.5 c 128,-1,37
 747 115 747 115 775 115 c 0,38,39
 819 115 819 115 858.5 151 c 128,-1,40
 898 187 898 187 915 244 c 1,41,-1
 1051 198 l 1,0,1
304.5 941 m 128,-1,43
 331 924 331 924 382 915 c 1,44,45
 387 942 387 942 387 965 c 0,46,47
 387 1001 387 1001 373.5 1024 c 128,-1,48
 360 1047 360 1047 336 1047 c 256,49,50
 312 1047 312 1047 295 1031 c 128,-1,51
 278 1015 278 1015 278 989 c 0,52,42
 278 958 278 958 304.5 941 c 128,-1,43
EndSplineSet
Validated: 1048609
Substitution2: "Single Substitution lookup 154 subtable" LIG
Substitution2: "Single Substitution lookup 153 subtable" LIG
Substitution2: "Single Substitution lookup 146 subtable" f_r.liga
AlternateSubs2: "'aalt' Access All Alternates lookup 1 subtable" f_r.liga LIG
EndChar

StartChar: s
Encoding: 115 115 301
Width: 1200
GlyphClass: 2
Flags: W
AnchorPoint: "Anchor-14" 727 1124 basechar 0
AnchorPoint: "Anchor-12" 487 0 basechar 0
LayerCount: 2
Fore
SplineSet
210.5 39.5 m 128,-1,1
 105 104 105 104 49 215 c 1,2,-1
 185 282 l 1,3,4
 218 207 218 207 291 161 c 128,-1,5
 364 115 364 115 444 115 c 0,6,7
 535 115 535 115 602 166.5 c 128,-1,8
 669 218 669 218 705.5 310 c 128,-1,9
 742 402 742 402 742 518 c 0,10,11
 740 563 740 563 727.5 600.5 c 128,-1,12
 715 638 715 638 687 685 c 1,13,14
 603 592 603 592 478 530.5 c 128,-1,15
 353 469 353 469 229 460 c 1,16,-1
 211 602 l 1,17,18
 322 606 322 606 429 662 c 128,-1,19
 536 718 536 718 600 804 c 1,20,21
 556 849 556 849 530.5 899 c 128,-1,22
 505 949 505 949 507 987 c 0,23,24
 503 1058 503 1058 549 1103.5 c 128,-1,25
 595 1149 595 1149 669 1149 c 0,26,27
 745 1149 745 1149 788 1104.5 c 128,-1,28
 831 1060 831 1060 831 987 c 0,29,30
 831 949 831 949 817.5 904.5 c 128,-1,31
 804 860 804 860 778 822 c 1,32,33
 887 669 887 669 887 524 c 0,34,35
 887 419 887 419 863.5 338.5 c 128,-1,36
 840 258 840 258 780 182 c 1,37,38
 907 246 907 246 964 309 c 1,39,-1
 1051 213 l 1,40,41
 971 106 971 106 803 40.5 c 128,-1,42
 635 -25 635 -25 449 -25 c 0,43,0
 316 -25 316 -25 210.5 39.5 c 128,-1,1
705.5 945.5 m 128,-1,45
 713 971 713 971 713 996 c 0,46,47
 713 1020 713 1020 701 1033.5 c 128,-1,48
 689 1047 689 1047 667 1049 c 0,49,50
 647 1049 647 1049 635.5 1036.5 c 128,-1,51
 624 1024 624 1024 624 1002 c 0,52,53
 624 975 624 975 636.5 948.5 c 128,-1,54
 649 922 649 922 676 885 c 1,55,44
 698 920 698 920 705.5 945.5 c 128,-1,45
EndSplineSet
Validated: 1048609
Substitution2: "Single Substitution lookup 155 subtable" LIG
Substitution2: "Single Substitution lookup 154 subtable" LIG
Substitution2: "Single Substitution lookup 146 subtable" f_s.liga
Substitution2: "'sinf' Scientific Inferiors lookup 10 subtable" uni209B
Substitution2: "'subs' Subscript lookup 9 subtable" uni209B
AlternateSubs2: "'aalt' Access All Alternates lookup 1 subtable" uni209B f_s.liga LIG
EndChar

StartChar: scedilla
Encoding: 351 351 304
Width: 1200
GlyphClass: 2
Flags: W
AnchorPoint: "Anchor-14" 727 1124 basechar 0
AnchorPoint: "Anchor-12" 487 0 basechar 0
LayerCount: 2
Fore
SplineSet
1051 213 m 1,0,1
 982 122 982 122 846.5 59 c 128,-1,2
 711 -4 711 -4 553 -20 c 1,3,-1
 535 -82 l 1,4,5
 584 -95 584 -95 614.5 -130 c 128,-1,6
 645 -165 645 -165 645 -213 c 0,7,8
 645 -220 645 -220 642 -242 c 0,9,10
 626 -318 626 -318 558.5 -365.5 c 128,-1,11
 491 -413 491 -413 396 -413 c 0,12,13
 332 -413 332 -413 282.5 -390 c 128,-1,14
 233 -367 233 -367 213 -333 c 1,15,-1
 287 -233 l 1,16,17
 302 -251 302 -251 333 -261 c 128,-1,18
 364 -271 364 -271 400 -271 c 0,19,20
 435 -271 435 -271 462 -255.5 c 128,-1,21
 489 -240 489 -240 495 -216 c 0,22,23
 499 -198 499 -198 467 -188 c 128,-1,24
 435 -178 435 -178 375 -178 c 1,25,-1
 402 -24 l 1,26,27
 286 -13 286 -13 193 50 c 128,-1,28
 100 113 100 113 49 215 c 1,29,-1
 185 282 l 1,30,31
 218 207 218 207 291 161 c 128,-1,32
 364 115 364 115 444 115 c 0,33,34
 535 115 535 115 602 166.5 c 128,-1,35
 669 218 669 218 705.5 310 c 128,-1,36
 742 402 742 402 742 518 c 0,37,38
 740 563 740 563 727.5 600.5 c 128,-1,39
 715 638 715 638 687 685 c 1,40,41
 603 592 603 592 478 530.5 c 128,-1,42
 353 469 353 469 229 460 c 1,43,-1
 211 602 l 1,44,45
 322 606 322 606 429 662 c 128,-1,46
 536 718 536 718 600 804 c 1,47,48
 556 849 556 849 530.5 899 c 128,-1,49
 505 949 505 949 507 987 c 0,50,51
 503 1058 503 1058 549 1103.5 c 128,-1,52
 595 1149 595 1149 669 1149 c 0,53,54
 745 1149 745 1149 788 1104.5 c 128,-1,55
 831 1060 831 1060 831 987 c 0,56,57
 831 949 831 949 817.5 904.5 c 128,-1,58
 804 860 804 860 778 822 c 1,59,60
 887 669 887 669 887 524 c 0,61,62
 887 419 887 419 863.5 338.5 c 128,-1,63
 840 258 840 258 780 182 c 1,64,65
 907 246 907 246 964 309 c 1,66,-1
 1051 213 l 1,0,1
701 1033.5 m 128,-1,68
 689 1047 689 1047 667 1049 c 0,69,70
 647 1049 647 1049 635.5 1036.5 c 128,-1,71
 624 1024 624 1024 624 1002 c 0,72,73
 624 975 624 975 636.5 948.5 c 128,-1,74
 649 922 649 922 676 885 c 1,75,76
 698 920 698 920 705.5 945.5 c 128,-1,77
 713 971 713 971 713 996 c 0,78,67
 713 1020 713 1020 701 1033.5 c 128,-1,68
EndSplineSet
Validated: 1048609
Substitution2: "'locl' Localized Forms in Latin lookup 6 subtable" uni0219
Substitution2: "'aalt' Access All Alternates lookup 0 subtable" uni0219
EndChar

StartChar: germandbls
Encoding: 223 223 307
Width: 1200
GlyphClass: 2
Flags: W
AnchorPoint: "Anchor-14" 720 1124 basechar 0
AnchorPoint: "Anchor-12" 480 0 basechar 0
LayerCount: 2
Fore
SplineSet
988.5 702.5 m 128,-1,1
 1015 658 1015 658 1015 585 c 0,2,3
 1015 518 1015 518 993 415 c 0,4,5
 962 259 962 259 904.5 169.5 c 128,-1,6
 847 80 847 80 749 40 c 128,-1,7
 651 0 651 0 491 0 c 2,8,-1
 358 0 l 1,9,-1
 387 140 l 1,10,-1
 515 140 l 2,11,12
 622 140 622 140 686.5 166.5 c 128,-1,13
 751 193 751 193 789 254.5 c 128,-1,14
 827 316 827 316 853 429 c 0,15,16
 871 516 871 516 871 558 c 0,17,18
 871 642 871 642 819 672 c 128,-1,19
 767 702 767 702 642 702 c 2,20,-1
 544 702 l 1,21,-1
 573 844 l 1,22,-1
 616 844 l 2,23,24
 727 844 727 844 790 864 c 128,-1,25
 853 884 853 884 889 934.5 c 128,-1,26
 925 985 925 985 945 1085 c 0,27,28
 958 1147 958 1147 958 1195 c 0,29,30
 958 1277 958 1277 908 1308.5 c 128,-1,31
 858 1340 858 1340 735 1340 c 0,32,33
 644 1340 644 1340 588.5 1315.5 c 128,-1,34
 533 1291 533 1291 500 1234.5 c 128,-1,35
 467 1178 467 1178 445 1075 c 2,36,-1
 216 0 l 1,37,-1
 67 0 l 1,38,-1
 298 1082 l 2,39,40
 331 1233 331 1233 383.5 1318.5 c 128,-1,41
 436 1404 436 1404 522.5 1442 c 128,-1,42
 609 1480 609 1480 749 1480 c 0,43,44
 940 1480 940 1480 1023.5 1422.5 c 128,-1,45
 1107 1365 1107 1365 1107 1233 c 0,46,47
 1107 1168 1107 1168 1087 1071 c 0,48,49
 1060 953 1060 953 1022.5 891 c 128,-1,50
 985 829 985 829 905 780 c 1,51,0
 962 747 962 747 988.5 702.5 c 128,-1,1
EndSplineSet
Validated: 1048577
EndChar

StartChar: t
Encoding: 116 116 308
Width: 1200
GlyphClass: 2
Flags: W
AnchorPoint: "Anchor-15" 1229 1124 basechar 0
AnchorPoint: "Anchor-14" 720 1124 basechar 0
AnchorPoint: "Anchor-12" 571 0 basechar 0
LayerCount: 2
Fore
SplineSet
390.5 33 m 128,-1,1
 325 91 325 91 325 218 c 0,2,3
 325 298 325 298 347 404 c 2,4,-1
 469 984 l 1,5,-1
 244 984 l 1,6,-1
 275 1124 l 1,7,-1
 500 1124 l 1,8,-1
 567 1455 l 1,9,-1
 718 1455 l 1,10,-1
 649 1124 l 1,11,-1
 1027 1124 l 1,12,-1
 998 984 l 1,13,-1
 620 984 l 1,14,-1
 493 396 l 2,15,16
 475 311 475 311 475 251 c 0,17,18
 475 176 475 176 507.5 145.5 c 128,-1,19
 540 115 540 115 616 115 c 0,20,21
 683 115 683 115 722.5 125.5 c 128,-1,22
 762 136 762 136 787.5 161.5 c 128,-1,23
 813 187 813 187 840 236 c 1,24,-1
 971 176 l 1,25,26
 909 60 909 60 829 17.5 c 128,-1,27
 749 -25 749 -25 602 -25 c 0,28,0
 456 -25 456 -25 390.5 33 c 128,-1,1
EndSplineSet
Validated: 1048577
Substitution2: "Single Substitution lookup 158 subtable" LIG
Substitution2: "Single Substitution lookup 157 subtable" t_t.liga
Substitution2: "Single Substitution lookup 156 subtable" LIG
Substitution2: "Single Substitution lookup 155 subtable" LIG
Substitution2: "'sinf' Scientific Inferiors lookup 10 subtable" uni209C
Substitution2: "'subs' Subscript lookup 9 subtable" uni209C
AlternateSubs2: "'aalt' Access All Alternates lookup 1 subtable" uni209C LIG t_t.liga
EndChar

StartChar: tbar
Encoding: 359 359 309
Width: 1200
GlyphClass: 2
Flags: W
AnchorPoint: "Anchor-15" 1229 1124 basechar 0
AnchorPoint: "Anchor-14" 720 1124 basechar 0
AnchorPoint: "Anchor-12" 571 0 basechar 0
LayerCount: 2
Fore
SplineSet
998 984 m 1,0,-1
 620 984 l 1,1,-1
 564 727 l 1,2,-1
 944 727 l 1,3,-1
 915 587 l 1,4,-1
 535 587 l 1,5,-1
 493 396 l 2,6,7
 475 311 475 311 475 251 c 0,8,9
 475 176 475 176 507.5 145.5 c 128,-1,10
 540 115 540 115 616 115 c 0,11,12
 683 115 683 115 722.5 125.5 c 128,-1,13
 762 136 762 136 787.5 161.5 c 128,-1,14
 813 187 813 187 840 236 c 1,15,-1
 971 176 l 1,16,17
 909 60 909 60 829 17.5 c 128,-1,18
 749 -25 749 -25 602 -25 c 0,19,20
 457 -25 457 -25 391 33 c 128,-1,21
 325 91 325 91 325 218 c 0,22,23
 325 298 325 298 347 404 c 2,24,-1
 385 587 l 1,25,-1
 158 587 l 1,26,-1
 187 727 l 1,27,-1
 415 727 l 1,28,-1
 469 984 l 1,29,-1
 244 984 l 1,30,-1
 275 1124 l 1,31,-1
 500 1124 l 1,32,-1
 567 1455 l 1,33,-1
 718 1455 l 1,34,-1
 649 1124 l 1,35,-1
 1027 1124 l 1,36,-1
 998 984 l 1,0,-1
EndSplineSet
Validated: 1048577
EndChar

StartChar: tcaron
Encoding: 357 357 310
Width: 1200
GlyphClass: 2
Flags: W
AnchorPoint: "Anchor-15" 1229 1124 basechar 0
AnchorPoint: "Anchor-14" 720 1124 basechar 0
AnchorPoint: "Anchor-12" 571 0 basechar 0
LayerCount: 2
Fore
SplineSet
927 1227 m 1,0,-1
 807 1227 l 1,1,-1
 896 1720 l 1,2,-1
 1049 1720 l 1,3,-1
 927 1227 l 1,0,-1
390.5 33 m 128,-1,5
 325 91 325 91 325 218 c 0,6,7
 325 298 325 298 347 404 c 2,8,-1
 469 984 l 1,9,-1
 244 984 l 1,10,-1
 275 1124 l 1,11,-1
 500 1124 l 1,12,-1
 567 1455 l 1,13,-1
 718 1455 l 1,14,-1
 649 1124 l 1,15,-1
 1027 1124 l 1,16,-1
 998 984 l 1,17,-1
 620 984 l 1,18,-1
 493 396 l 2,19,20
 475 311 475 311 475 251 c 0,21,22
 475 176 475 176 507.5 145.5 c 128,-1,23
 540 115 540 115 616 115 c 0,24,25
 683 115 683 115 722.5 125.5 c 128,-1,26
 762 136 762 136 787.5 161.5 c 128,-1,27
 813 187 813 187 840 236 c 1,28,-1
 971 176 l 1,29,30
 909 60 909 60 829 17.5 c 128,-1,31
 749 -25 749 -25 602 -25 c 0,32,4
 456 -25 456 -25 390.5 33 c 128,-1,5
EndSplineSet
Validated: 1048577
EndChar

StartChar: uni0163
Encoding: 355 355 311
Width: 1200
GlyphClass: 2
Flags: W
AnchorPoint: "Anchor-15" 1229 1124 basechar 0
AnchorPoint: "Anchor-14" 720 1124 basechar 0
AnchorPoint: "Anchor-12" 571 0 basechar 0
LayerCount: 2
Fore
SplineSet
620 984 m 1,0,-1
 493 396 l 2,1,2
 475 311 475 311 475 251 c 0,3,4
 475 176 475 176 507.5 145.5 c 128,-1,5
 540 115 540 115 616 115 c 0,6,7
 683 115 683 115 722.5 125.5 c 128,-1,8
 762 136 762 136 787.5 161.5 c 128,-1,9
 813 187 813 187 840 236 c 1,10,-1
 971 176 l 1,11,12
 913 67 913 67 839 22.5 c 128,-1,13
 765 -22 765 -22 636 -25 c 1,14,-1
 620 -82 l 1,15,16
 671 -95 671 -95 700 -130 c 128,-1,17
 729 -165 729 -165 729 -215 c 0,18,19
 729 -233 729 -233 727 -242 c 0,20,21
 711 -318 711 -318 643 -365.5 c 128,-1,22
 575 -413 575 -413 480 -413 c 0,23,24
 416 -413 416 -413 367 -390 c 128,-1,25
 318 -367 318 -367 296 -333 c 1,26,-1
 373 -233 l 1,27,28
 386 -251 386 -251 417.5 -261 c 128,-1,29
 449 -271 449 -271 485 -271 c 0,30,31
 523 -271 523 -271 550.5 -253.5 c 128,-1,32
 578 -236 578 -236 578 -213 c 0,33,34
 578 -197 578 -197 546.5 -187.5 c 128,-1,35
 515 -178 515 -178 458 -178 c 1,36,-1
 487 -15 l 1,37,38
 403 5 403 5 364 61.5 c 128,-1,39
 325 118 325 118 325 218 c 0,40,41
 325 298 325 298 347 404 c 2,42,-1
 469 984 l 1,43,-1
 244 984 l 1,44,-1
 275 1124 l 1,45,-1
 500 1124 l 1,46,-1
 567 1455 l 1,47,-1
 718 1455 l 1,48,-1
 649 1124 l 1,49,-1
 1027 1124 l 1,50,-1
 998 984 l 1,51,-1
 620 984 l 1,0,-1
EndSplineSet
Validated: 1048577
Substitution2: "'locl' Localized Forms in Latin lookup 6 subtable" uni021B
Substitution2: "'aalt' Access All Alternates lookup 0 subtable" uni021B
EndChar

StartChar: u
Encoding: 117 117 313
Width: 1200
GlyphClass: 2
Flags: W
AnchorPoint: "Anchor-15" 1256 1124 basechar 0
AnchorPoint: "Anchor-14" 715 1124 basechar 0
AnchorPoint: "Anchor-13" 956 22 basechar 0
AnchorPoint: "Anchor-12" 407 0 basechar 0
LayerCount: 2
Fore
SplineSet
109 1065 m 1,0,1
 134 1103 134 1103 191.5 1126 c 128,-1,2
 249 1149 249 1149 309 1149 c 0,3,4
 378 1149 378 1149 419 1112.5 c 128,-1,5
 460 1076 460 1076 460 1016 c 0,6,7
 460 929 460 929 423.5 762.5 c 128,-1,8
 387 596 387 596 318 398 c 0,9,10
 289 313 289 313 289 251 c 0,11,12
 289 115 289 115 435 115 c 0,13,14
 504 115 504 115 586.5 189.5 c 128,-1,15
 669 264 669 264 734.5 375.5 c 128,-1,16
 800 487 800 487 822 591 c 2,17,-1
 933 1124 l 1,18,-1
 1084 1124 l 1,19,-1
 882 184 l 2,20,21
 882 179 882 179 880 172 c 128,-1,22
 878 165 878 165 878 156 c 0,23,24
 878 138 878 138 891 126.5 c 128,-1,25
 904 115 904 115 924 115 c 0,26,27
 940 115 940 115 960 127.5 c 128,-1,28
 980 140 980 140 1015 171 c 1,29,-1
 1078 58 l 1,30,31
 1053 20 1053 20 995.5 -2.5 c 128,-1,32
 938 -25 938 -25 878 -25 c 0,33,34
 813 -25 813 -25 767.5 14 c 128,-1,35
 722 53 722 53 722 113 c 0,36,37
 722 138 722 138 729 160 c 2,38,-1
 745 211 l 1,39,40
 578 -25 578 -25 420 -25 c 0,41,42
 280 -25 280 -25 209 35.5 c 128,-1,43
 138 96 138 96 138 215 c 0,44,45
 138 300 138 300 176 415 c 0,46,47
 318 851 318 851 311 971 c 0,48,49
 309 989 309 989 296.5 999 c 128,-1,50
 284 1009 284 1009 264 1009 c 0,51,52
 242 1009 242 1009 217.5 991 c 128,-1,53
 193 973 193 973 175 944 c 1,54,-1
 109 1065 l 1,0,1
EndSplineSet
Validated: 33
Substitution2: "Single Substitution lookup 157 subtable" LIG
Substitution2: "Single Substitution lookup 156 subtable" LIG
Substitution2: "'aalt' Access All Alternates lookup 0 subtable" LIG
EndChar

StartChar: uhorn
Encoding: 432 432 326
Width: 1200
GlyphClass: 2
Flags: W
AnchorPoint: "Anchor-15" 1564 1344 basechar 0
AnchorPoint: "Anchor-14" 715 1124 basechar 0
AnchorPoint: "Anchor-13" 956 22 basechar 0
AnchorPoint: "Anchor-12" 407 0 basechar 0
LayerCount: 2
Fore
SplineSet
1285 1433 m 1,0,-1
 1438 1433 l 1,1,-1
 1380 1162 l 2,2,3
 1356 1051 1356 1051 1284.5 984.5 c 128,-1,4
 1213 918 1213 918 1116 918 c 0,5,6
 1083 918 1083 918 1044 935 c 1,7,-1
 882 184 l 2,8,9
 882 179 882 179 880 172 c 128,-1,10
 878 165 878 165 878 156 c 0,11,12
 878 138 878 138 891 126.5 c 128,-1,13
 904 115 904 115 924 115 c 0,14,15
 940 115 940 115 960 127.5 c 128,-1,16
 980 140 980 140 1015 171 c 1,17,-1
 1078 58 l 1,18,19
 1053 20 1053 20 995.5 -2.5 c 128,-1,20
 938 -25 938 -25 878 -25 c 0,21,22
 813 -25 813 -25 767.5 14 c 128,-1,23
 722 53 722 53 722 113 c 0,24,25
 722 138 722 138 729 160 c 2,26,-1
 745 211 l 1,27,28
 578 -25 578 -25 420 -25 c 0,29,30
 280 -25 280 -25 209 35.5 c 128,-1,31
 138 96 138 96 138 215 c 0,32,33
 138 300 138 300 176 415 c 0,34,35
 318 851 318 851 311 971 c 0,36,37
 309 989 309 989 296.5 999 c 128,-1,38
 284 1009 284 1009 264 1009 c 0,39,40
 242 1009 242 1009 217.5 991 c 128,-1,41
 193 973 193 973 175 944 c 1,42,-1
 109 1065 l 1,43,44
 134 1103 134 1103 191.5 1126 c 128,-1,45
 249 1149 249 1149 309 1149 c 0,46,47
 378 1149 378 1149 419 1112.5 c 128,-1,48
 460 1076 460 1076 460 1016 c 0,49,50
 460 929 460 929 423.5 762.5 c 128,-1,51
 387 596 387 596 318 398 c 0,52,53
 289 313 289 313 289 251 c 0,54,55
 289 115 289 115 435 115 c 0,56,57
 504 115 504 115 586.5 189.5 c 128,-1,58
 669 264 669 264 734.5 375.5 c 128,-1,59
 800 487 800 487 822 591 c 2,60,-1
 933 1124 l 1,61,-1
 1084 1124 l 1,62,-1
 1071 1062 l 1,63,64
 1086 1058 1086 1058 1107 1058 c 0,65,66
 1152 1058 1152 1058 1186 1090 c 128,-1,67
 1220 1122 1220 1122 1231 1175 c 2,68,-1
 1285 1433 l 1,0,-1
EndSplineSet
Validated: 33
EndChar

StartChar: uogonek
Encoding: 371 371 334
Width: 1200
GlyphClass: 2
Flags: W
AnchorPoint: "Anchor-15" 1256 1124 basechar 0
AnchorPoint: "Anchor-14" 715 1124 basechar 0
AnchorPoint: "Anchor-13" 956 22 basechar 0
AnchorPoint: "Anchor-12" 407 0 basechar 0
LayerCount: 2
Fore
SplineSet
1078 58 m 1,0,1
 1063 38 1063 38 1042 22 c 2,2,-1
 1038 20 l 2,3,4
 1014 4 1014 4 975 -9 c 0,5,6
 880 -56 880 -56 840 -86 c 128,-1,7
 800 -116 800 -116 800 -147 c 0,8,9
 800 -194 800 -194 873 -195 c 0,10,11
 898 -195 898 -195 922.5 -185 c 128,-1,12
 947 -175 947 -175 962 -158 c 1,13,-1
 1067 -258 l 1,14,15
 1036 -293 1036 -293 981.5 -314 c 128,-1,16
 927 -335 927 -335 871 -335 c 0,17,18
 771 -335 771 -335 710 -293 c 128,-1,19
 649 -251 649 -251 649 -180 c 0,20,21
 649 -133 649 -133 689 -86.5 c 128,-1,22
 729 -40 729 -40 795 -5 c 1,23,24
 762 13 762 13 742 44 c 128,-1,25
 722 75 722 75 722 113 c 0,26,27
 722 138 722 138 729 160 c 2,28,-1
 745 211 l 1,29,30
 578 -25 578 -25 420 -25 c 0,31,32
 280 -25 280 -25 209 35.5 c 128,-1,33
 138 96 138 96 138 215 c 0,34,35
 138 300 138 300 176 415 c 0,36,37
 318 851 318 851 311 971 c 0,38,39
 309 989 309 989 296.5 999 c 128,-1,40
 284 1009 284 1009 264 1009 c 0,41,42
 242 1009 242 1009 217.5 991 c 128,-1,43
 193 973 193 973 175 944 c 1,44,-1
 109 1065 l 1,45,46
 134 1103 134 1103 191.5 1126 c 128,-1,47
 249 1149 249 1149 309 1149 c 0,48,49
 378 1149 378 1149 419 1112.5 c 128,-1,50
 460 1076 460 1076 460 1016 c 0,51,52
 460 929 460 929 423.5 762.5 c 128,-1,53
 387 596 387 596 318 398 c 0,54,55
 289 313 289 313 289 251 c 0,56,57
 289 115 289 115 435 115 c 0,58,59
 504 115 504 115 586.5 189.5 c 128,-1,60
 669 264 669 264 734.5 375.5 c 128,-1,61
 800 487 800 487 822 591 c 2,62,-1
 933 1124 l 1,63,-1
 1084 1124 l 1,64,-1
 882 184 l 2,65,66
 882 179 882 179 880 172 c 128,-1,67
 878 165 878 165 878 156 c 0,68,69
 878 138 878 138 891 126.5 c 128,-1,70
 904 115 904 115 924 115 c 0,71,72
 940 115 940 115 960 127.5 c 128,-1,73
 980 140 980 140 1015 171 c 1,74,-1
 1078 58 l 1,0,1
EndSplineSet
Validated: 33
EndChar

StartChar: v
Encoding: 118 118 337
Width: 1200
GlyphClass: 2
Flags: W
AnchorPoint: "Anchor-14" 720 1124 basechar 0
AnchorPoint: "Anchor-12" 480 0 basechar 0
LayerCount: 2
Fore
SplineSet
409 -2 m 1,0,-1
 258 1124 l 1,1,-1
 411 1124 l 1,2,-1
 529 240 l 1,3,4
 591 344 591 344 698 502 c 0,5,6
 840 713 840 713 915.5 849 c 128,-1,7
 991 985 991 985 1016 1124 c 1,8,-1
 1169 1124 l 1,9,10
 1133 959 1133 959 1045.5 800.5 c 128,-1,11
 958 642 958 642 802 405 c 0,12,13
 704 254 704 254 652 172.5 c 128,-1,14
 600 91 600 91 551 0 c 1,15,-1
 409 -2 l 1,0,-1
EndSplineSet
Validated: 1048577
EndChar

StartChar: w
Encoding: 119 119 338
Width: 1200
GlyphClass: 2
Flags: W
AnchorPoint: "Anchor-14" 720 1124 basechar 0
AnchorPoint: "Anchor-12" 480 0 basechar 0
LayerCount: 2
Fore
SplineSet
1224 1124 m 1,0,1
 1189 951 1189 951 1129 794.5 c 128,-1,2
 1069 638 1069 638 965 402 c 0,3,4
 845 126 845 126 798 0 c 1,5,-1
 649 0 l 1,6,-1
 600 473 l 1,7,8
 558 397 558 397 482 275 c 0,9,10
 373 104 373 104 322 0 c 1,11,-1
 175 0 l 1,12,-1
 209 1124 l 1,13,-1
 362 1124 l 1,14,-1
 331 275 l 1,15,-1
 355 315 l 2,16,17
 448 464 448 464 498.5 564.5 c 128,-1,18
 549 665 549 665 569 771 c 1,19,-1
 567 789 l 1,20,-1
 720 789 l 1,21,-1
 718 776 l 1,22,-1
 767 295 l 1,23,-1
 824 425 l 2,24,25
 922 649 922 649 980 802.5 c 128,-1,26
 1038 956 1038 956 1073 1124 c 1,27,-1
 1224 1124 l 1,0,1
EndSplineSet
Validated: 1048577
EndChar

StartChar: x
Encoding: 120 120 343
Width: 1200
GlyphClass: 2
Flags: W
AnchorPoint: "Anchor-14" 720 1124 basechar 0
AnchorPoint: "Anchor-12" 480 0 basechar 0
LayerCount: 2
Fore
SplineSet
1144 1124 m 1,0,1
 1097 988 1097 988 986.5 855 c 128,-1,2
 876 722 876 722 693 545 c 1,3,-1
 924 0 l 1,4,-1
 751 0 l 1,5,-1
 571 425 l 1,6,7
 446 303 446 303 358.5 202.5 c 128,-1,8
 271 102 271 102 216 0 c 1,9,-1
 49 0 l 1,10,11
 114 131 114 131 222.5 251 c 128,-1,12
 331 371 331 371 518 551 c 1,13,-1
 276 1124 l 1,14,-1
 449 1124 l 1,15,-1
 640 669 l 1,16,17
 767 794 767 794 852.5 904.5 c 128,-1,18
 938 1015 938 1015 982 1124 c 1,19,-1
 1144 1124 l 1,0,1
EndSplineSet
Validated: 1048577
Substitution2: "'sinf' Scientific Inferiors lookup 10 subtable" uni2093
Substitution2: "'subs' Subscript lookup 9 subtable" uni2093
Substitution2: "'aalt' Access All Alternates lookup 0 subtable" uni2093
EndChar

StartChar: y
Encoding: 121 121 344
Width: 1200
GlyphClass: 2
Flags: W
AnchorPoint: "Anchor-14" 720 1124 basechar 0
AnchorPoint: "Anchor-12" 871 -93 basechar 0
LayerCount: 2
Fore
SplineSet
105 -334 m 128,-1,1
 45 -293 45 -293 47 -225 c 0,2,3
 47 -112 47 -112 231.5 -45 c 128,-1,4
 416 22 416 22 731 27 c 1,5,6
 738 42 738 42 760 107 c 0,7,8
 765 120 765 120 769 131 c 128,-1,9
 773 142 773 142 776 151 c 1,10,11
 741 116 741 116 675 100 c 128,-1,12
 609 84 609 84 536 84 c 0,13,14
 452 84 452 84 388 119.5 c 128,-1,15
 324 155 324 155 287.5 215 c 128,-1,16
 251 275 251 275 251 345 c 0,17,18
 251 383 251 383 265 431 c 0,19,20
 323 609 323 609 358 752.5 c 128,-1,21
 393 896 393 896 395 971 c 0,22,23
 393 989 393 989 380 999 c 128,-1,24
 367 1009 367 1009 347 1009 c 0,25,26
 325 1009 325 1009 300.5 991 c 128,-1,27
 276 973 276 973 258 944 c 1,28,-1
 193 1065 l 1,29,30
 218 1103 218 1103 275.5 1126 c 128,-1,31
 333 1149 333 1149 393 1149 c 0,32,33
 458 1149 458 1149 499 1113.5 c 128,-1,34
 540 1078 540 1078 540 1022 c 0,35,36
 542 935 542 935 507.5 777.5 c 128,-1,37
 473 620 473 620 409 424 c 0,38,39
 398 389 398 389 398 360 c 0,40,41
 398 298 398 298 439 261 c 128,-1,42
 480 224 480 224 549 224 c 0,43,44
 676 224 676 224 741.5 266.5 c 128,-1,45
 807 309 807 309 831 427 c 2,46,-1
 976 1124 l 1,47,-1
 1124 1124 l 1,48,49
 997 519 997 519 949.5 305 c 128,-1,50
 902 91 902 91 871 18 c 1,51,52
 922 20 922 20 951 26.5 c 128,-1,53
 980 33 980 33 1042 55 c 1,54,-1
 996 -95 l 1,55,56
 936 -117 936 -117 811 -120 c 1,57,58
 733 -236 733 -236 584 -305.5 c 128,-1,59
 435 -375 435 -375 264 -375 c 0,60,0
 165 -375 165 -375 105 -334 c 128,-1,1
471.5 -204 m 128,-1,62
 558 -173 558 -173 622 -122 c 1,63,64
 449 -131 449 -131 322.5 -158 c 128,-1,65
 196 -185 196 -185 195 -213 c 0,66,67
 195 -220 195 -220 226.5 -227.5 c 128,-1,68
 258 -235 258 -235 298 -235 c 0,69,61
 385 -235 385 -235 471.5 -204 c 128,-1,62
EndSplineSet
Validated: 1048609
Substitution2: "Single Substitution lookup 146 subtable" f_y.liga
Substitution2: "'aalt' Access All Alternates lookup 0 subtable" f_y.liga
EndChar

StartChar: z
Encoding: 122 122 352
Width: 1200
GlyphClass: 2
Flags: W
AnchorPoint: "Anchor-14" 720 1124 basechar 0
AnchorPoint: "Anchor-12" 480 0 basechar 0
LayerCount: 2
Fore
SplineSet
934 71 m 128,-1,1
 973 80 973 80 1029 98 c 0,2,3
 1093 118 1093 118 1144.5 129 c 128,-1,4
 1196 140 1196 140 1275 140 c 1,5,-1
 1235 -2 l 1,6,7
 1195 -2 1195 -2 1163 -9 c 128,-1,8
 1131 -16 1131 -16 1085 -33 c 0,9,10
 1010 -57 1010 -57 955 -67.5 c 128,-1,11
 900 -78 900 -78 809 -78 c 0,12,13
 747 -78 747 -78 701.5 -64.5 c 128,-1,14
 656 -51 656 -51 589 -24 c 0,15,16
 542 -2 542 -2 507.5 9 c 128,-1,17
 473 20 473 20 433 20 c 0,18,19
 409 20 409 20 373 15 c 0,20,21
 306 8 306 8 248.5 3 c 128,-1,22
 191 -2 191 -2 84 0 c 1,23,-1
 107 93 l 1,24,-1
 873 984 l 1,25,-1
 300 984 l 1,26,-1
 331 1124 l 1,27,-1
 1109 1124 l 1,28,-1
 1089 1031 l 1,29,-1
 335 151 l 1,30,-1
 391 156 l 2,31,32
 442 160 442 160 465 160 c 0,33,34
 523 160 523 160 566 147.5 c 128,-1,35
 609 135 609 135 664 109 c 256,36,37
 719 84 719 84 755 73 c 128,-1,38
 791 62 791 62 838 62 c 0,39,0
 895 62 895 62 934 71 c 128,-1,1
EndSplineSet
Validated: 1048609
EndChar

StartChar: Q_j.liga
Encoding: 65540 -1 356
Width: 1200
GlyphClass: 3
Flags: W
LayerCount: 2
Fore
SplineSet
1082.5 1545.5 m 128,-1,1
 1109 1529 1109 1529 1109 1487 c 0,2,3
 1109 1462 1109 1462 1102 1435 c 0,4,5
 1089 1373 1089 1373 1060 1349 c 128,-1,6
 1031 1325 1031 1325 965 1325 c 0,7,8
 901 1325 901 1325 875 1342.5 c 128,-1,9
 849 1360 849 1360 849 1402 c 0,10,11
 849 1426 849 1426 855 1455 c 0,12,13
 868 1517 868 1517 897.5 1539.5 c 128,-1,14
 927 1562 927 1562 993 1562 c 0,15,0
 1056 1562 1056 1562 1082.5 1545.5 c 128,-1,1
782 1116 m 1,16,17
 977 1083 977 1083 976 933 c 0,18,19
 976 909 976 909 971 878 c 0,20,21
 835 194 835 194 762 18 c 1,22,23
 813 20 813 20 842 26.5 c 128,-1,24
 871 33 871 33 933 55 c 1,25,-1
 887 -95 l 1,26,27
 827 -117 827 -117 702 -120 c 1,28,29
 624 -236 624 -236 474.5 -305.5 c 128,-1,30
 325 -375 325 -375 155 -375 c 0,31,32
 80 -375 80 -375 25.5 -350 c 128,-1,33
 -29 -325 -29 -325 -49 -282 c 1,34,35
 -147 -333 -147 -333 -255 -333 c 0,36,37
 -379 -333 -379 -333 -466 -277.5 c 128,-1,38
 -553 -222 -553 -222 -651 -122 c 1,39,40
 -706 -162 -706 -162 -754 -183 c 128,-1,41
 -802 -204 -802 -204 -858 -204 c 0,42,43
 -938 -204 -938 -204 -982.5 -162 c 128,-1,44
 -1027 -120 -1027 -120 -1027 -51 c 0,45,46
 -1027 -20 -1027 -20 -1020 7 c 0,47,48
 -998 83 -998 83 -935 127 c 1,49,50
 -966 196 -966 196 -965 316 c 0,51,52
 -965 449 -965 449 -924 658 c 2,53,-1
 -893 804 l 2,54,55
 -840 1060 -840 1060 -768 1205.5 c 128,-1,56
 -696 1351 -696 1351 -585.5 1415.5 c 128,-1,57
 -475 1480 -475 1480 -304 1480 c 0,58,59
 -115 1480 -115 1480 -31 1402 c 128,-1,60
 53 1324 53 1324 53 1144 c 0,61,62
 53 1008 53 1008 9 796 c 2,63,-1
 -20 651 l 2,64,65
 -65 429 -65 429 -125 291 c 128,-1,66
 -185 153 -185 153 -271.5 79 c 128,-1,67
 -358 5 -358 5 -484 -16 c 1,68,69
 -520 -31 -520 -31 -536 -42 c 1,70,71
 -471 -113 -471 -113 -402 -153 c 128,-1,72
 -333 -193 -333 -193 -242 -193 c 0,73,74
 -177 -193 -177 -193 -129.5 -174.5 c 128,-1,75
 -82 -156 -82 -156 -16 -116 c 0,76,77
 71 -63 71 -63 153 -31.5 c 128,-1,78
 235 0 235 0 367 9 c 0,79,80
 474 24 474 24 618 27 c 1,81,82
 649 105 649 105 710 360.5 c 128,-1,83
 771 616 771 616 820 856 c 0,84,85
 824 885 824 885 824 896 c 0,86,87
 824 929 824 929 805.5 949 c 128,-1,88
 787 969 787 969 742 976 c 1,89,-1
 782 1116 l 1,16,17
-776 651 m 2,90,91
 -816 451 -816 451 -816 345 c 0,92,93
 -816 270 -816 270 -798 222.5 c 128,-1,94
 -780 175 -780 175 -742 149 c 0,95,96
 -737 145 -737 145 -729.5 142.5 c 128,-1,97
 -722 140 -722 140 -713 133 c 0,98,99
 -666 115 -666 115 -593 115 c 0,100,101
 -537 115 -537 115 -487 125 c 2,102,-1
 -464 133 l 1,103,-1
 -464 133 l 1,104,105
 -353 168 -353 168 -285.5 288.5 c 128,-1,106
 -218 409 -218 409 -167 658 c 2,107,-1
 -136 804 l 2,108,109
 -96 993 -96 993 -96 1111 c 0,110,111
 -96 1236 -96 1236 -148 1288 c 128,-1,112
 -200 1340 -200 1340 -318 1340 c 0,113,114
 -438 1340 -438 1340 -517 1289 c 128,-1,115
 -596 1238 -596 1238 -650.5 1121 c 128,-1,116
 -705 1004 -705 1004 -747 796 c 2,117,-1
 -776 651 l 2,90,91
-885 -31 m 0,119,120
 -885 -46 -885 -46 -874.5 -55 c 128,-1,121
 -864 -64 -864 -64 -845 -64 c 0,122,123
 -825 -64 -825 -64 -809 -54 c 128,-1,124
 -793 -44 -793 -44 -762 -18 c 1,125,126
 -773 -11 -773 -11 -795 0 c 256,127,128
 -817 11 -817 11 -838 11 c 0,129,130
 -869 11 -869 11 -880 -11 c 0,131,118
 -885 -22 -885 -22 -885 -31 c 0,119,120
362.5 -204 m 128,-1,133
 449 -173 449 -173 513 -122 c 1,134,135
 389 -129 389 -129 287 -145.5 c 128,-1,136
 185 -162 185 -162 133 -182 c 0,137,138
 120 -186 120 -186 98 -196 c 0,139,140
 85 -205 85 -205 85 -213 c 256,141,142
 85 -220 85 -220 117 -227.5 c 128,-1,143
 149 -235 149 -235 189 -235 c 0,144,132
 276 -235 276 -235 362.5 -204 c 128,-1,133
EndSplineSet
Validated: 37
EndChar

StartChar: a_e.liga
Encoding: 65541 -1 357
Width: 1200
GlyphClass: 3
Flags: W
LayerCount: 2
Fore
SplineSet
741 171 m 128,-1,1
 847 222 847 222 922 302 c 1,2,-1
 993 176 l 1,3,4
 902 85 902 85 768.5 30 c 128,-1,5
 635 -25 635 -25 516 -25 c 0,6,7
 427 -25 427 -25 355.5 15.5 c 128,-1,8
 284 56 284 56 242 130 c 128,-1,9
 200 204 200 204 196 298 c 1,10,11
 129 262 129 262 95 231 c 0,12,13
 70 206 70 206 4 133 c 0,14,15
 -41 78 -41 78 -74 46.5 c 128,-1,16
 -107 15 -107 15 -152.5 -5 c 128,-1,17
 -198 -25 -198 -25 -258 -25 c 256,18,19
 -318 -25 -318 -25 -359 8.5 c 128,-1,20
 -400 42 -400 42 -404 93 c 0,21,22
 -408 118 -408 118 -404 125 c 1,23,24
 -457 56 -457 56 -528.5 15.5 c 128,-1,25
 -600 -25 -600 -25 -673 -25 c 0,26,27
 -822 -25 -822 -25 -911 67.5 c 128,-1,28
 -1000 160 -1000 160 -998 311 c 0,29,30
 -998 506 -998 506 -904.5 701 c 128,-1,31
 -811 896 -811 896 -665.5 1022.5 c 128,-1,32
 -520 1149 -520 1149 -376 1149 c 256,33,34
 -232 1149 -232 1149 -161.5 1105.5 c 128,-1,35
 -91 1062 -91 1062 -91 964 c 0,36,37
 -91 939 -91 939 -128 761.5 c 128,-1,38
 -165 584 -165 584 -247 204 c 0,39,40
 -254 160 -254 160 -255 151 c 0,41,42
 -255 115 -255 115 -213 115 c 0,43,44
 -191 115 -191 115 -163.5 140 c 128,-1,45
 -136 165 -136 165 -84 225 c 0,46,47
 -37 283 -37 283 27 347 c 0,48,49
 91 405 91 405 202 451 c 1,50,51
 222 662 222 662 299 819 c 128,-1,52
 376 976 376 976 500.5 1062.5 c 128,-1,53
 625 1149 625 1149 784 1149 c 0,54,55
 909 1149 909 1149 977 1084.5 c 128,-1,56
 1045 1020 1045 1020 1045 895 c 0,57,58
 1045 746 1045 746 964.5 651 c 128,-1,59
 884 556 884 556 769.5 505.5 c 128,-1,60
 655 455 655 455 464 395 c 2,61,-1
 342 356 l 1,62,-1
 342 320 l 2,63,64
 342 233 342 233 399 176.5 c 128,-1,65
 456 120 456 120 540 120 c 0,66,0
 635 120 635 120 741 171 c 128,-1,1
-302 616.5 m 128,-1,68
 -289 678 -289 678 -280 720 c 0,69,70
 -238 918 -238 918 -236 949 c 0,71,72
 -240 984 -240 984 -272.5 996.5 c 128,-1,73
 -305 1009 -305 1009 -389 1009 c 0,74,75
 -484 1009 -484 1009 -594 901 c 128,-1,76
 -704 793 -704 793 -779.5 632 c 128,-1,77
 -855 471 -855 471 -855 324 c 0,78,79
 -853 229 -853 229 -799 172 c 128,-1,80
 -745 115 -745 115 -660 115 c 0,81,82
 -567 115 -567 115 -475.5 215.5 c 128,-1,83
 -384 316 -384 316 -331 469 c 1,84,67
 -315 555 -315 555 -302 616.5 c 128,-1,68
579 947 m 128,-1,86
 493 885 493 885 434.5 770.5 c 128,-1,87
 376 656 376 656 355 502 c 1,88,-1
 435 524 l 2,89,90
 593 568 593 568 684 604 c 128,-1,91
 775 640 775 640 837.5 706.5 c 128,-1,92
 900 773 900 773 900 880 c 0,93,94
 900 940 900 940 862.5 974.5 c 128,-1,95
 825 1009 825 1009 769 1009 c 0,96,85
 665 1009 665 1009 579 947 c 128,-1,86
EndSplineSet
Validated: 33
EndChar

StartChar: a_l.liga
Encoding: 65542 -1 358
Width: 1200
GlyphClass: 3
Flags: W
LayerCount: 2
Fore
SplineSet
775.5 158.5 m 128,-1,1
 836 202 836 202 876 267 c 1,2,-1
 991 184 l 1,3,4
 927 89 927 89 833.5 32 c 128,-1,5
 740 -25 740 -25 651 -25 c 0,6,7
 549 -25 549 -25 482 38.5 c 128,-1,8
 415 102 415 102 398 213 c 1,9,10
 238 108 238 108 49 29 c 0,11,12
 -22 2 -22 2 -99 -11.5 c 128,-1,13
 -176 -25 -176 -25 -242 -25 c 256,14,15
 -307 -25 -307 -25 -354.5 8.5 c 128,-1,16
 -402 42 -402 42 -404 93 c 0,17,18
 -408 118 -408 118 -404 125 c 1,19,20
 -457 56 -457 56 -528.5 15.5 c 128,-1,21
 -600 -25 -600 -25 -673 -25 c 0,22,23
 -822 -25 -822 -25 -911 67.5 c 128,-1,24
 -1000 160 -1000 160 -998 311 c 0,25,26
 -998 506 -998 506 -904.5 701 c 128,-1,27
 -811 896 -811 896 -665.5 1022.5 c 128,-1,28
 -520 1149 -520 1149 -376 1149 c 256,29,30
 -232 1149 -232 1149 -161.5 1105.5 c 128,-1,31
 -91 1062 -91 1062 -91 964 c 0,32,33
 -91 939 -91 939 -128 761.5 c 128,-1,34
 -165 584 -165 584 -247 204 c 0,35,36
 -251 175 -251 175 -251 165 c 0,37,38
 -251 138 -251 138 -238 126.5 c 128,-1,39
 -225 115 -225 115 -196 115 c 0,40,41
 -105 115 -105 115 0 156 c 0,42,43
 220 249 220 249 395 384 c 1,44,45
 399 926 399 926 493 1203 c 128,-1,46
 587 1480 587 1480 804 1480 c 0,47,48
 904 1480 904 1480 962 1414.5 c 128,-1,49
 1020 1349 1020 1349 1020 1236 c 0,50,51
 1020 963 1020 963 894.5 730.5 c 128,-1,52
 769 498 769 498 542 315 c 1,53,54
 549 226 549 226 582.5 170.5 c 128,-1,55
 616 115 616 115 664 115 c 0,56,0
 715 115 715 115 775.5 158.5 c 128,-1,1
658.5 1227 m 128,-1,58
 604 1116 604 1116 574 927 c 128,-1,59
 544 738 544 738 540 507 c 1,60,61
 696 662 696 662 782.5 845.5 c 128,-1,62
 869 1029 869 1029 869 1229 c 0,63,64
 869 1338 869 1338 789 1338 c 0,65,57
 713 1338 713 1338 658.5 1227 c 128,-1,58
-475.5 215.5 m 128,-1,67
 -384 316 -384 316 -331 469 c 1,68,69
 -315 554 -315 554 -302 616 c 128,-1,70
 -289 678 -289 678 -280 720 c 0,71,72
 -238 918 -238 918 -236 949 c 0,73,74
 -240 984 -240 984 -272.5 996.5 c 128,-1,75
 -305 1009 -305 1009 -389 1009 c 0,76,77
 -484 1009 -484 1009 -594 901 c 128,-1,78
 -704 793 -704 793 -779.5 632 c 128,-1,79
 -855 471 -855 471 -855 324 c 0,80,81
 -853 229 -853 229 -799 172 c 128,-1,82
 -745 115 -745 115 -660 115 c 0,83,66
 -567 115 -567 115 -475.5 215.5 c 128,-1,67
EndSplineSet
Validated: 33
EndChar

StartChar: d_e.liga
Encoding: 65543 -1 359
Width: 1200
GlyphClass: 3
Flags: W
LayerCount: 2
Fore
SplineSet
741 171 m 128,-1,1
 847 222 847 222 922 302 c 1,2,-1
 993 176 l 1,3,4
 902 85 902 85 768.5 30 c 128,-1,5
 635 -25 635 -25 516 -25 c 0,6,7
 389 -25 389 -25 302.5 54 c 128,-1,8
 216 133 216 133 200 262 c 1,9,10
 102 209 102 209 62 160 c 0,11,12
 -23 56 -23 56 -81.5 15.5 c 128,-1,13
 -140 -25 -140 -25 -200 -25 c 0,14,15
 -271 -25 -271 -25 -308 2 c 128,-1,16
 -345 29 -345 29 -347 89 c 1,17,18
 -391 33 -391 33 -472 4 c 128,-1,19
 -553 -25 -553 -25 -689 -25 c 0,20,21
 -847 -25 -847 -25 -917 43 c 128,-1,22
 -987 111 -987 111 -987 269 c 0,23,24
 -987 382 -987 382 -951 567 c 0,25,26
 -916 740 -916 740 -835.5 872 c 128,-1,27
 -755 1004 -755 1004 -638.5 1076.5 c 128,-1,28
 -522 1149 -522 1149 -384 1149 c 0,29,30
 -311 1149 -311 1149 -254.5 1121 c 128,-1,31
 -198 1093 -198 1093 -169 1044 c 1,32,-1
 -76 1455 l 1,33,-1
 75 1455 l 1,34,-1
 -193 202 l 2,35,36
 -198 175 -198 175 -198 156 c 0,37,38
 -198 134 -198 134 -189 124.5 c 128,-1,39
 -180 115 -180 115 -155 115 c 0,40,41
 -140 115 -140 115 -122 133 c 128,-1,42
 -104 151 -104 151 -60 207 c 2,43,-1
 -2 282 l 2,44,45
 60 360 60 360 200 422 c 1,46,47
 216 640 216 640 292.5 804.5 c 128,-1,48
 369 969 369 969 495.5 1059 c 128,-1,49
 622 1149 622 1149 784 1149 c 0,50,51
 909 1149 909 1149 977 1084.5 c 128,-1,52
 1045 1020 1045 1020 1045 895 c 0,53,54
 1045 751 1045 751 959 651 c 128,-1,55
 873 551 873 551 753 491 c 128,-1,56
 633 431 633 431 440 358 c 0,57,58
 345 323 345 323 342 322 c 2,59,-1
 342 320 l 2,60,61
 342 233 342 233 399 176.5 c 128,-1,62
 456 120 456 120 540 120 c 0,63,0
 635 120 635 120 741 171 c 128,-1,1
-224 747 m 2,64,65
 -220 767 -220 767 -220 805 c 0,66,67
 -220 898 -220 898 -268 953.5 c 128,-1,68
 -316 1009 -316 1009 -398 1009 c 0,69,70
 -543 1009 -543 1009 -654 884.5 c 128,-1,71
 -765 760 -765 760 -811 553 c 0,72,73
 -846 389 -846 389 -845 304 c 0,74,75
 -845 204 -845 204 -804.5 159.5 c 128,-1,76
 -764 115 -764 115 -675 115 c 0,77,78
 -555 115 -555 115 -460 154 c 128,-1,79
 -365 193 -365 193 -331 255 c 1,80,-1
 -224 747 l 2,64,65
574.5 944.5 m 128,-1,82
 487 880 487 880 429 761 c 128,-1,83
 371 642 371 642 351 480 c 1,84,85
 396 496 396 496 431 505 c 0,86,87
 589 558 589 558 681 599 c 128,-1,88
 773 640 773 640 836.5 709 c 128,-1,89
 900 778 900 778 900 880 c 0,90,91
 900 940 900 940 862.5 974.5 c 128,-1,92
 825 1009 825 1009 769 1009 c 0,93,81
 662 1009 662 1009 574.5 944.5 c 128,-1,82
EndSplineSet
Validated: 33
EndChar

StartChar: d_l.liga
Encoding: 65544 -1 360
Width: 1200
GlyphClass: 3
Flags: W
LayerCount: 2
Fore
SplineSet
782 158.5 m 128,-1,1
 842 202 842 202 880 267 c 1,2,-1
 996 184 l 1,3,4
 932 89 932 89 838.5 32 c 128,-1,5
 745 -25 745 -25 656 -25 c 0,6,7
 554 -25 554 -25 487 38.5 c 128,-1,8
 420 102 420 102 405 209 c 1,9,10
 250 109 250 109 53 25 c 0,11,12
 -22 -2 -22 -2 -81 -13.5 c 128,-1,13
 -140 -25 -140 -25 -200 -25 c 0,14,15
 -271 -25 -271 -25 -308 2 c 128,-1,16
 -345 29 -345 29 -347 89 c 1,17,18
 -391 33 -391 33 -472 4 c 128,-1,19
 -553 -25 -553 -25 -689 -25 c 0,20,21
 -847 -25 -847 -25 -917 43 c 128,-1,22
 -987 111 -987 111 -987 269 c 0,23,24
 -987 382 -987 382 -951 567 c 0,25,26
 -916 740 -916 740 -835.5 872 c 128,-1,27
 -755 1004 -755 1004 -638.5 1076.5 c 128,-1,28
 -522 1149 -522 1149 -384 1149 c 0,29,30
 -311 1149 -311 1149 -254.5 1121 c 128,-1,31
 -198 1093 -198 1093 -169 1044 c 1,32,-1
 -76 1455 l 1,33,-1
 75 1455 l 1,34,-1
 -193 204 l 2,35,36
 -200 164 -200 164 -200 153 c 0,37,38
 -200 133 -200 133 -190 124 c 128,-1,39
 -180 115 -180 115 -155 115 c 0,40,41
 -126 115 -126 115 -93 122 c 128,-1,42
 -60 129 -60 129 5 155 c 0,43,44
 223 248 223 248 400 380 c 1,45,46
 404 924 404 924 498.5 1202 c 128,-1,47
 593 1480 593 1480 809 1480 c 0,48,49
 909 1480 909 1480 967 1414.5 c 128,-1,50
 1025 1349 1025 1349 1025 1236 c 0,51,52
 1025 963 1025 963 900 729 c 128,-1,53
 775 495 775 495 547 313 c 1,54,55
 554 224 554 224 587 169.5 c 128,-1,56
 620 115 620 115 669 115 c 0,57,0
 722 115 722 115 782 158.5 c 128,-1,1
663.5 1226.5 m 128,-1,59
 609 1115 609 1115 579 925.5 c 128,-1,60
 549 736 549 736 545 505 c 1,61,62
 701 660 701 660 788 842.5 c 128,-1,63
 875 1025 875 1025 875 1229 c 0,64,65
 875 1338 875 1338 795 1338 c 0,66,58
 718 1338 718 1338 663.5 1226.5 c 128,-1,59
-224 747 m 2,67,68
 -220 767 -220 767 -220 805 c 0,69,70
 -220 898 -220 898 -268 953.5 c 128,-1,71
 -316 1009 -316 1009 -398 1009 c 0,72,73
 -543 1009 -543 1009 -654 884.5 c 128,-1,74
 -765 760 -765 760 -811 553 c 0,75,76
 -846 389 -846 389 -845 304 c 0,77,78
 -845 204 -845 204 -804.5 159.5 c 128,-1,79
 -764 115 -764 115 -675 115 c 0,80,81
 -555 115 -555 115 -460 154 c 128,-1,82
 -365 193 -365 193 -331 255 c 1,83,-1
 -224 747 l 2,67,68
EndSplineSet
Validated: 33
EndChar

StartChar: e_e.liga
Encoding: 65545 -1 361
Width: 1200
GlyphClass: 3
Flags: W
LayerCount: 2
Fore
SplineSet
741 171 m 128,-1,1
 847 222 847 222 922 302 c 1,2,-1
 993 176 l 1,3,4
 902 85 902 85 768.5 30 c 128,-1,5
 635 -25 635 -25 516 -25 c 0,6,7
 427 -25 427 -25 354.5 16.5 c 128,-1,8
 282 58 282 58 240 132.5 c 128,-1,9
 198 207 198 207 196 302 c 1,10,11
 78 264 78 264 13 220 c 0,12,13
 -334 -25 -334 -25 -575 -25 c 0,14,15
 -666 -25 -666 -25 -737.5 16.5 c 128,-1,16
 -809 58 -809 58 -851 133.5 c 128,-1,17
 -893 209 -893 209 -895 305 c 1,18,19
 -950 283 -950 283 -969 262 c 1,20,-1
 -1031 382 l 1,21,22
 -1002 429 -1002 429 -887 469 c 1,23,24
 -865 674 -865 674 -787 828 c 128,-1,25
 -709 982 -709 982 -585.5 1065.5 c 128,-1,26
 -462 1149 -462 1149 -307 1149 c 0,27,28
 -182 1149 -182 1149 -113.5 1084.5 c 128,-1,29
 -45 1020 -45 1020 -45 895 c 0,30,31
 -45 739 -45 739 -145 636 c 128,-1,32
 -245 533 -245 533 -377 478.5 c 128,-1,33
 -509 424 -509 424 -709 365 c 2,34,-1
 -749 355 l 1,35,-1
 -749 320 l 2,36,37
 -749 233 -749 233 -692 176.5 c 128,-1,38
 -635 120 -635 120 -551 120 c 0,39,40
 -458 120 -458 120 -338 174.5 c 128,-1,41
 -218 229 -218 229 -55 342 c 0,42,43
 -13 373 -13 373 50 396.5 c 128,-1,44
 113 420 113 420 202 445 c 1,45,46
 220 658 220 658 297.5 817 c 128,-1,47
 375 976 375 976 500 1062.5 c 128,-1,48
 625 1149 625 1149 784 1149 c 0,49,50
 909 1149 909 1149 977 1084.5 c 128,-1,51
 1045 1020 1045 1020 1045 895 c 0,52,53
 1045 737 1045 737 943.5 632 c 128,-1,54
 842 527 842 527 702 470 c 128,-1,55
 562 413 562 413 342 347 c 1,56,-1
 342 320 l 2,57,58
 342 233 342 233 399 176.5 c 128,-1,59
 456 120 456 120 540 120 c 0,60,0
 635 120 635 120 741 171 c 128,-1,1
-589 874.5 m 128,-1,62
 -700 740 -700 740 -735 511 c 1,63,64
 -560 555 -560 555 -454.5 591 c 128,-1,65
 -349 627 -349 627 -270 698 c 128,-1,66
 -191 769 -191 769 -191 880 c 0,67,68
 -191 940 -191 940 -228 974.5 c 128,-1,69
 -265 1009 -265 1009 -322 1009 c 0,70,61
 -478 1009 -478 1009 -589 874.5 c 128,-1,62
576.5 945.5 m 128,-1,72
 489 882 489 882 431 763.5 c 128,-1,73
 373 645 373 645 353 485 c 1,74,75
 524 532 524 532 636.5 577 c 128,-1,76
 749 622 749 622 824.5 695.5 c 128,-1,77
 900 769 900 769 900 880 c 0,78,79
 900 940 900 940 862.5 974.5 c 128,-1,80
 825 1009 825 1009 769 1009 c 0,81,71
 664 1009 664 1009 576.5 945.5 c 128,-1,72
EndSplineSet
Validated: 1
EndChar

StartChar: f_f.liga
Encoding: 65546 -1 362
Width: 1200
GlyphClass: 3
Flags: W
LayerCount: 2
Fore
SplineSet
772 1290 m 128,-1,1
 724 1240 724 1240 677.5 1134.5 c 128,-1,2
 631 1029 631 1029 564 833 c 1,3,-1
 1018 833 l 1,4,-1
 989 691 l 1,5,-1
 516 691 l 1,6,7
 511 678 511 678 504.5 657 c 128,-1,8
 498 636 498 636 493 622 c 1,9,10
 620 522 620 522 691 403.5 c 128,-1,11
 762 285 762 285 762 160 c 0,12,13
 762 4 762 4 717.5 -117 c 128,-1,14
 673 -238 673 -238 589 -306.5 c 128,-1,15
 505 -375 505 -375 395 -375 c 0,16,17
 308 -375 308 -375 254 -318.5 c 128,-1,18
 200 -262 200 -262 200 -169 c 0,19,20
 200 -53 200 -53 232.5 140 c 128,-1,21
 265 333 265 333 325 547 c 1,22,23
 190 629 190 629 153 691 c 1,24,-1
 -575 691 l 1,25,26
 -580 678 -580 678 -586.5 657 c 128,-1,27
 -593 636 -593 636 -598 622 c 1,28,29
 -471 522 -471 522 -400 403.5 c 128,-1,30
 -329 285 -329 285 -329 160 c 0,31,32
 -329 4 -329 4 -373.5 -117 c 128,-1,33
 -418 -238 -418 -238 -501.5 -306.5 c 128,-1,34
 -585 -375 -585 -375 -696 -375 c 0,35,36
 -783 -375 -783 -375 -837 -318.5 c 128,-1,37
 -891 -262 -891 -262 -891 -169 c 0,38,39
 -891 -53 -891 -53 -858 140 c 128,-1,40
 -825 333 -825 333 -765 547 c 1,41,42
 -949 658 -949 658 -949 731 c 0,43,44
 -949 776 -949 776 -901 804.5 c 128,-1,45
 -853 833 -853 833 -776 833 c 2,46,-1
 -676 833 l 1,47,48
 -603 1064 -603 1064 -537 1203 c 128,-1,49
 -471 1342 -471 1342 -392 1411 c 128,-1,50
 -313 1480 -313 1480 -211 1480 c 0,51,52
 -73 1480 -73 1480 1.5 1407.5 c 128,-1,53
 76 1335 76 1335 95 1193 c 1,54,-1
 -49 1131 l 1,55,56
 -58 1244 -58 1244 -93.5 1292 c 128,-1,57
 -129 1340 -129 1340 -209 1340 c 0,58,59
 -271 1340 -271 1340 -319 1290 c 128,-1,60
 -367 1240 -367 1240 -413.5 1134.5 c 128,-1,61
 -460 1029 -460 1029 -527 833 c 1,62,-1
 415 833 l 1,63,64
 488 1064 488 1064 554 1203 c 128,-1,65
 620 1342 620 1342 699 1411 c 128,-1,66
 778 1480 778 1480 880 1480 c 0,67,68
 1018 1480 1018 1480 1092.5 1407.5 c 128,-1,69
 1167 1335 1167 1335 1185 1193 c 1,70,-1
 1042 1131 l 1,71,72
 1033 1244 1033 1244 997.5 1292 c 128,-1,73
 962 1340 962 1340 882 1340 c 0,74,0
 820 1340 820 1340 772 1290 c 128,-1,1
-733 656 m 1,76,-1
 -713 715 l 1,77,-1
 -756 722 l 2,78,79
 -803 733 -803 733 -822 733 c 0,80,81
 -838 733 -838 733 -840 727 c 0,82,75
 -860 703 -860 703 -733 656 c 1,76,-1
280 691 m 1,83,84
 315 671 315 671 358 656 c 1,85,-1
 371 691 l 1,86,-1
 280 691 l 1,83,84
-516.5 304.5 m 128,-1,88
 -560 378 -560 378 -645 456 c 1,89,90
 -690 285 -690 285 -717 121.5 c 128,-1,91
 -744 -42 -744 -42 -745 -153 c 0,92,93
 -741 -189 -741 -189 -725 -212 c 128,-1,94
 -709 -235 -709 -235 -685 -235 c 0,95,96
 -623 -235 -623 -235 -575 -185.5 c 128,-1,97
 -527 -136 -527 -136 -500 -50 c 128,-1,98
 -473 36 -473 36 -473 147 c 0,99,87
 -473 231 -473 231 -516.5 304.5 c 128,-1,88
574.5 304.5 m 128,-1,101
 531 378 531 378 445 456 c 1,102,103
 400 285 400 285 373.5 121.5 c 128,-1,104
 347 -42 347 -42 345 -153 c 0,105,106
 349 -189 349 -189 365.5 -212 c 128,-1,107
 382 -235 382 -235 405 -235 c 0,108,109
 467 -235 467 -235 515.5 -185.5 c 128,-1,110
 564 -136 564 -136 591 -50 c 128,-1,111
 618 36 618 36 618 147 c 0,112,100
 618 231 618 231 574.5 304.5 c 128,-1,101
EndSplineSet
Validated: 33
EndChar

StartChar: f_f_i.liga
Encoding: 65547 -1 363
Width: 1200
GlyphClass: 3
Flags: W
LayerCount: 2
Fore
SplineSet
593.5 1342.5 m 128,-1,1
 567 1360 567 1360 567 1402 c 0,2,3
 567 1426 567 1426 573 1455 c 0,4,5
 588 1517 588 1517 616.5 1539.5 c 128,-1,6
 645 1562 645 1562 711 1562 c 0,7,8
 775 1562 775 1562 801 1545.5 c 128,-1,9
 827 1529 827 1529 827 1487 c 0,10,11
 827 1462 827 1462 820 1435 c 0,12,13
 807 1373 807 1373 778 1349 c 128,-1,14
 749 1325 749 1325 684 1325 c 0,15,0
 620 1325 620 1325 593.5 1342.5 c 128,-1,1
1022 185 m 1,16,17
 937 65 937 65 862 20 c 128,-1,18
 787 -25 787 -25 682 -25 c 0,19,20
 517 -25 517 -25 436.5 34 c 128,-1,21
 356 93 356 93 356 229 c 0,22,23
 356 325 356 325 398 476 c 2,24,-1
 493 816 l 1,25,26
 404 754 404 754 284 726 c 128,-1,27
 164 698 164 698 83 694.5 c 128,-1,28
 2 691 2 691 -104 691 c 2,29,-1
 -575 691 l 1,30,31
 -580 678 -580 678 -586.5 657 c 128,-1,32
 -593 636 -593 636 -598 622 c 1,33,34
 -471 522 -471 522 -400 403.5 c 128,-1,35
 -329 285 -329 285 -329 160 c 0,36,37
 -329 4 -329 4 -373.5 -117 c 128,-1,38
 -418 -238 -418 -238 -501.5 -306.5 c 128,-1,39
 -585 -375 -585 -375 -696 -375 c 0,40,41
 -783 -375 -783 -375 -837 -318.5 c 128,-1,42
 -891 -262 -891 -262 -891 -169 c 0,43,44
 -891 -53 -891 -53 -858 140 c 128,-1,45
 -825 333 -825 333 -765 547 c 1,46,47
 -900 629 -900 629 -938 691 c 1,48,-1
 -1665 691 l 1,49,50
 -1670 678 -1670 678 -1677 657 c 128,-1,51
 -1684 636 -1684 636 -1689 622 c 1,52,53
 -1562 522 -1562 522 -1491 403.5 c 128,-1,54
 -1420 285 -1420 285 -1420 160 c 0,55,56
 -1420 4 -1420 4 -1464.5 -117 c 128,-1,57
 -1509 -238 -1509 -238 -1592.5 -306.5 c 128,-1,58
 -1676 -375 -1676 -375 -1787 -375 c 0,59,60
 -1874 -375 -1874 -375 -1928 -318.5 c 128,-1,61
 -1982 -262 -1982 -262 -1982 -169 c 0,62,63
 -1982 -53 -1982 -53 -1949 140 c 128,-1,64
 -1916 333 -1916 333 -1856 547 c 1,65,66
 -2040 658 -2040 658 -2040 731 c 0,67,68
 -2040 776 -2040 776 -1992 804.5 c 128,-1,69
 -1944 833 -1944 833 -1867 833 c 2,70,-1
 -1767 833 l 1,71,72
 -1694 1064 -1694 1064 -1628 1203 c 128,-1,73
 -1562 1342 -1562 1342 -1483 1411 c 128,-1,74
 -1404 1480 -1404 1480 -1302 1480 c 0,75,76
 -1164 1480 -1164 1480 -1089.5 1407.5 c 128,-1,77
 -1015 1335 -1015 1335 -996 1193 c 1,78,-1
 -1140 1131 l 1,79,80
 -1149 1244 -1149 1244 -1184.5 1292 c 128,-1,81
 -1220 1340 -1220 1340 -1300 1340 c 0,82,83
 -1362 1340 -1362 1340 -1410 1290 c 128,-1,84
 -1458 1240 -1458 1240 -1504.5 1134.5 c 128,-1,85
 -1551 1029 -1551 1029 -1618 833 c 1,86,-1
 -676 833 l 1,87,88
 -603 1064 -603 1064 -537 1203 c 128,-1,89
 -471 1342 -471 1342 -392 1411 c 128,-1,90
 -313 1480 -313 1480 -211 1480 c 0,91,92
 -73 1480 -73 1480 1.5 1407.5 c 128,-1,93
 76 1335 76 1335 95 1193 c 1,94,-1
 -49 1131 l 1,95,96
 -58 1244 -58 1244 -93.5 1292 c 128,-1,97
 -129 1340 -129 1340 -209 1340 c 0,98,99
 -271 1340 -271 1340 -319 1290 c 128,-1,100
 -367 1240 -367 1240 -413.5 1134.5 c 128,-1,101
 -460 1029 -460 1029 -527 833 c 1,102,-1
 -73 833 l 2,103,104
 54 833 54 833 176 845.5 c 128,-1,105
 298 858 298 858 420 922.5 c 128,-1,106
 542 987 542 987 558 1124 c 1,107,-1
 704 1124 l 1,108,-1
 544 476 l 2,109,110
 513 349 513 349 513 280 c 0,111,112
 513 189 513 189 556.5 152 c 128,-1,113
 600 115 600 115 695 115 c 0,114,115
 759 115 759 115 800.5 145.5 c 128,-1,116
 842 176 842 176 907 265 c 1,117,-1
 1022 185 l 1,16,17
-1824 656 m 1,119,-1
 -1804 715 l 1,120,-1
 -1847 722 l 2,121,122
 -1894 733 -1894 733 -1913 733 c 0,123,124
 -1929 733 -1929 733 -1931 727 c 0,125,118
 -1951 703 -1951 703 -1824 656 c 1,119,-1
-811 691 m 1,126,127
 -776 671 -776 671 -733 656 c 1,128,-1
 -720 691 l 1,129,-1
 -811 691 l 1,126,127
-1607.5 304.5 m 128,-1,131
 -1651 378 -1651 378 -1736 456 c 1,132,133
 -1781 285 -1781 285 -1808 121.5 c 128,-1,134
 -1835 -42 -1835 -42 -1836 -153 c 0,135,136
 -1832 -189 -1832 -189 -1816 -212 c 128,-1,137
 -1800 -235 -1800 -235 -1776 -235 c 0,138,139
 -1714 -235 -1714 -235 -1666 -185.5 c 128,-1,140
 -1618 -136 -1618 -136 -1591 -50 c 128,-1,141
 -1564 36 -1564 36 -1564 147 c 0,142,130
 -1564 231 -1564 231 -1607.5 304.5 c 128,-1,131
-516.5 304.5 m 128,-1,144
 -560 378 -560 378 -645 456 c 1,145,146
 -690 285 -690 285 -717 121.5 c 128,-1,147
 -744 -42 -744 -42 -745 -153 c 0,148,149
 -741 -189 -741 -189 -725 -212 c 128,-1,150
 -709 -235 -709 -235 -685 -235 c 0,151,152
 -623 -235 -623 -235 -575 -185.5 c 128,-1,153
 -527 -136 -527 -136 -500 -50 c 128,-1,154
 -473 36 -473 36 -473 147 c 0,155,143
 -473 231 -473 231 -516.5 304.5 c 128,-1,144
EndSplineSet
Validated: 33
EndChar

StartChar: f_i.liga
Encoding: 65548 -1 364
Width: 1200
GlyphClass: 3
Flags: W
LayerCount: 2
Fore
SplineSet
595.5 1342.5 m 128,-1,1
 569 1360 569 1360 569 1404 c 0,2,3
 569 1426 569 1426 575 1455 c 0,4,5
 590 1517 590 1517 618.5 1539.5 c 128,-1,6
 647 1562 647 1562 715 1562 c 0,7,8
 777 1562 777 1562 804 1544.5 c 128,-1,9
 831 1527 831 1527 831 1487 c 0,10,11
 831 1462 831 1462 824 1435 c 0,12,13
 811 1373 811 1373 781 1349 c 128,-1,14
 751 1325 751 1325 685 1325 c 0,15,0
 622 1325 622 1325 595.5 1342.5 c 128,-1,1
1022 185 m 1,16,17
 937 65 937 65 862 20 c 128,-1,18
 787 -25 787 -25 682 -25 c 0,19,20
 517 -25 517 -25 436.5 34 c 128,-1,21
 356 93 356 93 356 229 c 0,22,23
 356 325 356 325 398 476 c 2,24,-1
 493 816 l 1,25,26
 404 754 404 754 284 726 c 128,-1,27
 164 698 164 698 83 694.5 c 128,-1,28
 2 691 2 691 -104 691 c 2,29,-1
 -575 691 l 1,30,31
 -580 678 -580 678 -586.5 657 c 128,-1,32
 -593 636 -593 636 -598 622 c 1,33,34
 -471 522 -471 522 -400 403.5 c 128,-1,35
 -329 285 -329 285 -329 160 c 0,36,37
 -329 4 -329 4 -373.5 -117 c 128,-1,38
 -418 -238 -418 -238 -501.5 -306.5 c 128,-1,39
 -585 -375 -585 -375 -696 -375 c 0,40,41
 -783 -375 -783 -375 -837 -318.5 c 128,-1,42
 -891 -262 -891 -262 -891 -169 c 0,43,44
 -891 -53 -891 -53 -858 140 c 128,-1,45
 -825 333 -825 333 -765 547 c 1,46,47
 -949 658 -949 658 -949 731 c 0,48,49
 -949 776 -949 776 -901 804.5 c 128,-1,50
 -853 833 -853 833 -776 833 c 2,51,-1
 -676 833 l 1,52,53
 -603 1064 -603 1064 -537 1203 c 128,-1,54
 -471 1342 -471 1342 -392 1411 c 128,-1,55
 -313 1480 -313 1480 -211 1480 c 0,56,57
 -73 1480 -73 1480 1.5 1407.5 c 128,-1,58
 76 1335 76 1335 95 1193 c 1,59,-1
 -49 1131 l 1,60,61
 -58 1244 -58 1244 -93.5 1292 c 128,-1,62
 -129 1340 -129 1340 -209 1340 c 0,63,64
 -271 1340 -271 1340 -319 1290 c 128,-1,65
 -367 1240 -367 1240 -413.5 1134.5 c 128,-1,66
 -460 1029 -460 1029 -527 833 c 1,67,-1
 -73 833 l 2,68,69
 54 833 54 833 176 845.5 c 128,-1,70
 298 858 298 858 420 922.5 c 128,-1,71
 542 987 542 987 558 1124 c 1,72,-1
 704 1124 l 1,73,-1
 544 476 l 2,74,75
 513 349 513 349 513 280 c 0,76,77
 513 189 513 189 556.5 152 c 128,-1,78
 600 115 600 115 695 115 c 0,79,80
 759 115 759 115 800.5 145.5 c 128,-1,81
 842 176 842 176 907 265 c 1,82,-1
 1022 185 l 1,16,17
-733 656 m 1,84,-1
 -713 715 l 1,85,-1
 -756 722 l 2,86,87
 -803 733 -803 733 -822 733 c 0,88,89
 -838 733 -838 733 -840 727 c 0,90,83
 -860 703 -860 703 -733 656 c 1,84,-1
-516.5 304.5 m 128,-1,92
 -560 378 -560 378 -645 456 c 1,93,94
 -690 285 -690 285 -717 121.5 c 128,-1,95
 -744 -42 -744 -42 -745 -153 c 0,96,97
 -741 -189 -741 -189 -725 -212 c 128,-1,98
 -709 -235 -709 -235 -685 -235 c 0,99,100
 -623 -235 -623 -235 -575 -185.5 c 128,-1,101
 -527 -136 -527 -136 -500 -50 c 128,-1,102
 -473 36 -473 36 -473 147 c 0,103,91
 -473 231 -473 231 -516.5 304.5 c 128,-1,92
EndSplineSet
Validated: 33
EndChar

StartChar: f_j.liga
Encoding: 65549 -1 365
Width: 1200
GlyphClass: 3
Flags: W
LayerCount: 2
Fore
SplineSet
1105.5 1562.5 m 128,-1,1
 1140 1538 1140 1538 1140 1485 c 0,2,3
 1140 1472 1140 1472 1133 1433 c 0,4,5
 1118 1360 1118 1360 1081 1331 c 128,-1,6
 1044 1302 1044 1302 965 1302 c 0,7,8
 894 1302 894 1302 859.5 1326.5 c 128,-1,9
 825 1351 825 1351 825 1404 c 0,10,11
 825 1417 825 1417 833 1456 c 0,12,13
 848 1529 848 1529 885 1558 c 128,-1,14
 922 1587 922 1587 1000 1587 c 0,15,0
 1071 1587 1071 1587 1105.5 1562.5 c 128,-1,1
1015 1124 m 1,16,17
 890 517 890 517 843 307.5 c 128,-1,18
 796 98 796 98 764 18 c 1,19,20
 813 20 813 20 843 26.5 c 128,-1,21
 873 33 873 33 935 55 c 1,22,-1
 889 -95 l 1,23,24
 825 -117 825 -117 704 -120 c 1,25,26
 626 -236 626 -236 476.5 -305.5 c 128,-1,27
 327 -375 327 -375 156 -375 c 0,28,29
 56 -375 56 -375 -2 -334 c 128,-1,30
 -60 -293 -60 -293 -60 -224 c 0,31,32
 -60 -151 -60 -151 23.5 -95.5 c 128,-1,33
 107 -40 107 -40 261 -8 c 128,-1,34
 415 24 415 24 620 27 c 1,35,36
 664 138 664 138 807 833 c 1,37,-1
 802 825 l 1,38,39
 678 738 678 738 399 714.5 c 128,-1,40
 120 691 120 691 -104 691 c 2,41,-1
 -575 691 l 1,42,43
 -580 678 -580 678 -586.5 657 c 128,-1,44
 -593 636 -593 636 -598 622 c 1,45,46
 -471 522 -471 522 -400 403.5 c 128,-1,47
 -329 285 -329 285 -329 160 c 0,48,49
 -329 4 -329 4 -373.5 -117 c 128,-1,50
 -418 -238 -418 -238 -501.5 -306.5 c 128,-1,51
 -585 -375 -585 -375 -696 -375 c 0,52,53
 -783 -375 -783 -375 -837 -318.5 c 128,-1,54
 -891 -262 -891 -262 -891 -169 c 0,55,56
 -891 -53 -891 -53 -858 140 c 128,-1,57
 -825 333 -825 333 -765 547 c 1,58,59
 -949 658 -949 658 -949 731 c 0,60,61
 -949 776 -949 776 -901 804.5 c 128,-1,62
 -853 833 -853 833 -776 833 c 2,63,-1
 -676 833 l 1,64,65
 -603 1064 -603 1064 -537 1203 c 128,-1,66
 -471 1342 -471 1342 -392 1411 c 128,-1,67
 -313 1480 -313 1480 -211 1480 c 0,68,69
 -73 1480 -73 1480 1.5 1407.5 c 128,-1,70
 76 1335 76 1335 95 1193 c 1,71,-1
 -49 1131 l 1,72,73
 -58 1244 -58 1244 -93.5 1292 c 128,-1,74
 -129 1340 -129 1340 -209 1340 c 0,75,76
 -271 1340 -271 1340 -319 1290 c 128,-1,77
 -367 1240 -367 1240 -413.5 1134.5 c 128,-1,78
 -460 1029 -460 1029 -527 833 c 1,79,-1
 -73 833 l 2,80,81
 91 833 91 833 269 844.5 c 128,-1,82
 447 856 447 856 636 914.5 c 128,-1,83
 825 973 825 973 862 1096 c 1,84,-1
 867 1124 l 1,85,-1
 1015 1124 l 1,16,17
-733 656 m 1,87,-1
 -713 715 l 1,88,-1
 -756 722 l 2,89,90
 -803 733 -803 733 -822 733 c 0,91,92
 -838 733 -838 733 -840 727 c 0,93,86
 -860 703 -860 703 -733 656 c 1,87,-1
-516.5 304.5 m 128,-1,95
 -560 378 -560 378 -645 456 c 1,96,97
 -690 285 -690 285 -717 121.5 c 128,-1,98
 -744 -42 -744 -42 -745 -153 c 0,99,100
 -741 -189 -741 -189 -725 -212 c 128,-1,101
 -709 -235 -709 -235 -685 -235 c 0,102,103
 -623 -235 -623 -235 -575 -185.5 c 128,-1,104
 -527 -136 -527 -136 -500 -50 c 128,-1,105
 -473 36 -473 36 -473 147 c 0,106,94
 -473 231 -473 231 -516.5 304.5 c 128,-1,95
362.5 -204 m 128,-1,108
 449 -173 449 -173 513 -122 c 1,109,110
 340 -131 340 -131 213.5 -159 c 128,-1,111
 87 -187 87 -187 87 -213 c 0,112,113
 87 -220 87 -220 119 -227.5 c 128,-1,114
 151 -235 151 -235 189 -235 c 0,115,107
 276 -235 276 -235 362.5 -204 c 128,-1,108
EndSplineSet
Validated: 33
EndChar

StartChar: f_r.liga
Encoding: 65550 -1 366
Width: 1200
GlyphClass: 3
Flags: W
LayerCount: 2
Fore
SplineSet
1053 198 m 1,0,1
 1020 98 1020 98 939 36.5 c 128,-1,2
 858 -25 858 -25 764 -25 c 0,3,4
 673 -25 673 -25 618.5 32 c 128,-1,5
 564 89 564 89 564 185 c 0,6,7
 564 480 564 480 776 845 c 1,8,9
 694 809 694 809 615 789 c 128,-1,10
 536 769 536 769 480 769 c 0,11,12
 445 769 445 769 429 771 c 1,13,14
 369 711 369 711 267 673.5 c 128,-1,15
 165 636 165 636 22 636 c 0,16,17
 -43 636 -43 636 -102 644 c 2,18,-1
 -575 691 l 1,19,20
 -580 678 -580 678 -586.5 657 c 128,-1,21
 -593 636 -593 636 -598 622 c 1,22,23
 -471 522 -471 522 -400 403.5 c 128,-1,24
 -329 285 -329 285 -329 160 c 0,25,26
 -329 4 -329 4 -373.5 -117 c 128,-1,27
 -418 -238 -418 -238 -501.5 -306.5 c 128,-1,28
 -585 -375 -585 -375 -696 -375 c 0,29,30
 -783 -375 -783 -375 -837 -318.5 c 128,-1,31
 -891 -262 -891 -262 -891 -169 c 0,32,33
 -891 -53 -891 -53 -858 140 c 128,-1,34
 -825 333 -825 333 -765 547 c 1,35,36
 -949 658 -949 658 -949 731 c 0,37,38
 -949 776 -949 776 -901 804.5 c 128,-1,39
 -853 833 -853 833 -776 833 c 2,40,-1
 -676 833 l 1,41,42
 -603 1064 -603 1064 -537 1203 c 128,-1,43
 -471 1342 -471 1342 -392 1411 c 128,-1,44
 -313 1480 -313 1480 -211 1480 c 0,45,46
 -73 1480 -73 1480 1.5 1407.5 c 128,-1,47
 76 1335 76 1335 95 1193 c 1,48,-1
 -49 1131 l 1,49,50
 -58 1244 -58 1244 -93.5 1292 c 128,-1,51
 -129 1340 -129 1340 -209 1340 c 0,52,53
 -271 1340 -271 1340 -319 1290 c 128,-1,54
 -367 1240 -367 1240 -413.5 1134.5 c 128,-1,55
 -460 1029 -460 1029 -527 833 c 1,56,-1
 -73 784 l 2,57,58
 -8 777 -8 777 62 776 c 0,59,60
 197 776 197 776 275 811 c 1,61,62
 220 836 220 836 191 878 c 128,-1,63
 162 920 162 920 164 971 c 0,64,65
 160 1049 160 1049 214.5 1099 c 128,-1,66
 269 1149 269 1149 356 1149 c 0,67,68
 429 1149 429 1149 472.5 1099 c 128,-1,69
 516 1049 516 1049 516 967 c 0,70,71
 516 942 516 942 511 909 c 1,72,73
 595 916 595 916 715.5 966 c 128,-1,74
 836 1016 836 1016 953 1093 c 1,75,-1
 1051 1024 l 1,76,77
 891 791 891 791 799 577.5 c 128,-1,78
 707 364 707 364 707 202 c 0,79,80
 709 162 709 162 728 138.5 c 128,-1,81
 747 115 747 115 775 115 c 0,82,83
 820 115 820 115 860 151 c 128,-1,84
 900 187 900 187 916 244 c 1,85,-1
 1053 198 l 1,0,1
296.5 1031 m 128,-1,87
 280 1015 280 1015 280 989 c 0,88,89
 280 931 280 931 382 916 c 1,90,91
 389 938 389 938 389 965 c 0,92,93
 389 1001 389 1001 375.5 1024 c 128,-1,94
 362 1047 362 1047 338 1047 c 0,95,86
 313 1047 313 1047 296.5 1031 c 128,-1,87
-733 656 m 1,97,-1
 -713 715 l 1,98,-1
 -756 722 l 2,99,100
 -803 733 -803 733 -822 733 c 0,101,102
 -838 733 -838 733 -840 727 c 0,103,96
 -860 703 -860 703 -733 656 c 1,97,-1
-516.5 304.5 m 128,-1,105
 -560 378 -560 378 -645 456 c 1,106,107
 -690 285 -690 285 -717 121.5 c 128,-1,108
 -744 -42 -744 -42 -745 -153 c 0,109,110
 -741 -189 -741 -189 -725 -212 c 128,-1,111
 -709 -235 -709 -235 -685 -235 c 0,112,113
 -623 -235 -623 -235 -575 -185.5 c 128,-1,114
 -527 -136 -527 -136 -500 -50 c 128,-1,115
 -473 36 -473 36 -473 147 c 0,116,104
 -473 231 -473 231 -516.5 304.5 c 128,-1,105
EndSplineSet
Validated: 33
EndChar

StartChar: f_s.liga
Encoding: 65551 -1 367
Width: 1200
GlyphClass: 3
Flags: W
LayerCount: 2
Fore
SplineSet
1051 213 m 1,0,1
 973 106 973 106 804.5 40.5 c 128,-1,2
 636 -25 636 -25 451 -25 c 0,3,4
 318 -25 318 -25 211.5 39.5 c 128,-1,5
 105 104 105 104 51 215 c 1,6,-1
 187 282 l 1,7,8
 220 207 220 207 292.5 161 c 128,-1,9
 365 115 365 115 444 115 c 0,10,11
 535 115 535 115 602 166.5 c 128,-1,12
 669 218 669 218 706.5 310 c 128,-1,13
 744 402 744 402 744 518 c 0,14,15
 742 563 742 563 728.5 600.5 c 128,-1,16
 715 638 715 638 687 685 c 1,17,18
 656 656 656 656 620 643.5 c 128,-1,19
 584 631 584 631 536 631 c 0,20,21
 485 631 485 631 353 651 c 0,22,23
 228 671 228 671 126.5 682 c 128,-1,24
 25 693 25 693 -102 691 c 2,25,-1
 -575 691 l 1,26,27
 -580 678 -580 678 -586.5 657 c 128,-1,28
 -593 636 -593 636 -598 622 c 1,29,30
 -471 522 -471 522 -400 403.5 c 128,-1,31
 -329 285 -329 285 -329 160 c 0,32,33
 -329 4 -329 4 -373.5 -117 c 128,-1,34
 -418 -238 -418 -238 -501.5 -306.5 c 128,-1,35
 -585 -375 -585 -375 -696 -375 c 0,36,37
 -783 -375 -783 -375 -837 -318.5 c 128,-1,38
 -891 -262 -891 -262 -891 -169 c 0,39,40
 -891 -53 -891 -53 -858 140 c 128,-1,41
 -825 333 -825 333 -765 547 c 1,42,43
 -949 658 -949 658 -949 731 c 0,44,45
 -949 776 -949 776 -901 804.5 c 128,-1,46
 -853 833 -853 833 -776 833 c 2,47,-1
 -676 833 l 1,48,49
 -603 1064 -603 1064 -537 1203 c 128,-1,50
 -471 1342 -471 1342 -392 1411 c 128,-1,51
 -313 1480 -313 1480 -211 1480 c 0,52,53
 -73 1480 -73 1480 1.5 1407.5 c 128,-1,54
 76 1335 76 1335 95 1193 c 1,55,-1
 -49 1131 l 1,56,57
 -58 1244 -58 1244 -93.5 1292 c 128,-1,58
 -129 1340 -129 1340 -209 1340 c 0,59,60
 -271 1340 -271 1340 -319 1290 c 128,-1,61
 -367 1240 -367 1240 -413.5 1134.5 c 128,-1,62
 -460 1029 -460 1029 -527 833 c 1,63,-1
 -73 833 l 2,64,65
 45 831 45 831 139 818 c 128,-1,66
 233 805 233 805 338 782 c 0,67,68
 382 773 382 773 423.5 765.5 c 128,-1,69
 465 758 465 758 493 758 c 0,70,71
 562 758 562 758 602 804 c 1,72,73
 558 849 558 849 531.5 900 c 128,-1,74
 505 951 505 951 507 987 c 0,75,76
 505 1058 505 1058 550.5 1103.5 c 128,-1,77
 596 1149 596 1149 671 1149 c 256,78,79
 746 1149 746 1149 788.5 1107 c 128,-1,80
 831 1065 831 1065 831 995 c 0,81,82
 835 957 835 957 821 909.5 c 128,-1,83
 807 862 807 862 778 822 c 1,84,85
 889 671 889 671 889 524 c 0,86,87
 889 419 889 419 864.5 338.5 c 128,-1,88
 840 258 840 258 780 182 c 1,89,90
 904 242 904 242 964 309 c 1,91,-1
 1051 213 l 1,0,1
703 1033.5 m 128,-1,93
 691 1047 691 1047 669 1049 c 0,94,95
 649 1049 649 1049 637 1036.5 c 128,-1,96
 625 1024 625 1024 625 1002 c 0,97,98
 625 975 625 975 638 948.5 c 128,-1,99
 651 922 651 922 678 885 c 1,100,101
 714 943 714 943 715 995 c 0,102,92
 715 1020 715 1020 703 1033.5 c 128,-1,93
-733 656 m 1,104,-1
 -713 715 l 1,105,-1
 -756 722 l 2,106,107
 -803 733 -803 733 -822 733 c 0,108,109
 -838 733 -838 733 -840 727 c 0,110,103
 -860 703 -860 703 -733 656 c 1,104,-1
-516.5 304.5 m 128,-1,112
 -560 378 -560 378 -645 456 c 1,113,114
 -690 285 -690 285 -717 121.5 c 128,-1,115
 -744 -42 -744 -42 -745 -153 c 0,116,117
 -741 -189 -741 -189 -725 -212 c 128,-1,118
 -709 -235 -709 -235 -685 -235 c 0,119,120
 -623 -235 -623 -235 -575 -185.5 c 128,-1,121
 -527 -136 -527 -136 -500 -50 c 128,-1,122
 -473 36 -473 36 -473 147 c 0,123,111
 -473 231 -473 231 -516.5 304.5 c 128,-1,112
EndSplineSet
Validated: 33
EndChar

StartChar: f_y.liga
Encoding: 65552 -1 368
Width: 1200
GlyphClass: 3
Flags: W
LayerCount: 2
Fore
SplineSet
497.5 1114.5 m 128,-1,1
 542 1080 542 1080 540 1022 c 0,2,3
 542 937 542 937 508.5 780.5 c 128,-1,4
 475 624 475 624 409 424 c 0,5,6
 400 397 400 397 400 360 c 0,7,8
 400 298 400 298 440 261 c 128,-1,9
 480 224 480 224 549 224 c 0,10,11
 678 224 678 224 743.5 266.5 c 128,-1,12
 809 309 809 309 833 427 c 2,13,-1
 976 1124 l 1,14,-1
 1125 1124 l 1,15,16
 1081 917 1081 917 1080 905 c 0,17,18
 984 447 984 447 942 265.5 c 128,-1,19
 900 84 900 84 873 18 c 1,20,21
 922 20 922 20 952 26.5 c 128,-1,22
 982 33 982 33 1044 55 c 1,23,-1
 998 -95 l 1,24,25
 934 -117 934 -117 813 -120 c 1,26,27
 735 -236 735 -236 585.5 -305.5 c 128,-1,28
 436 -375 436 -375 265 -375 c 0,29,30
 165 -375 165 -375 107 -334 c 128,-1,31
 49 -293 49 -293 49 -224 c 0,32,33
 49 -151 49 -151 132.5 -95.5 c 128,-1,34
 216 -40 216 -40 370.5 -8 c 128,-1,35
 525 24 525 24 731 27 c 1,36,37
 742 49 742 49 762 109 c 2,38,-1
 776 151 l 1,39,40
 741 116 741 116 676 100 c 128,-1,41
 611 84 611 84 538 84 c 0,42,43
 454 84 454 84 389.5 119.5 c 128,-1,44
 325 155 325 155 289 215 c 128,-1,45
 253 275 253 275 253 345 c 0,46,47
 253 383 253 383 267 431 c 0,48,49
 394 829 394 829 395 971 c 0,50,51
 395 989 395 989 382 999 c 128,-1,52
 369 1009 369 1009 349 1009 c 0,53,54
 322 1009 322 1009 288.5 992 c 128,-1,55
 255 975 255 975 198 935 c 0,56,57
 94 866 94 866 1.5 816.5 c 128,-1,58
 -91 767 -91 767 -237.5 729 c 128,-1,59
 -384 691 -384 691 -575 691 c 1,60,61
 -580 678 -580 678 -586.5 657 c 128,-1,62
 -593 636 -593 636 -598 622 c 1,63,64
 -471 522 -471 522 -400 403.5 c 128,-1,65
 -329 285 -329 285 -329 160 c 0,66,67
 -329 4 -329 4 -373.5 -117 c 128,-1,68
 -418 -238 -418 -238 -501.5 -306.5 c 128,-1,69
 -585 -375 -585 -375 -696 -375 c 0,70,71
 -783 -375 -783 -375 -837 -318.5 c 128,-1,72
 -891 -262 -891 -262 -891 -169 c 0,73,74
 -891 -53 -891 -53 -858 140 c 128,-1,75
 -825 333 -825 333 -765 547 c 1,76,77
 -949 658 -949 658 -949 731 c 0,78,79
 -949 776 -949 776 -901 804.5 c 128,-1,80
 -853 833 -853 833 -776 833 c 2,81,-1
 -676 833 l 1,82,83
 -603 1064 -603 1064 -537 1203 c 128,-1,84
 -471 1342 -471 1342 -392 1411 c 128,-1,85
 -313 1480 -313 1480 -211 1480 c 0,86,87
 -73 1480 -73 1480 1.5 1407.5 c 128,-1,88
 76 1335 76 1335 95 1193 c 1,89,-1
 -49 1131 l 1,90,91
 -58 1244 -58 1244 -93.5 1292 c 128,-1,92
 -129 1340 -129 1340 -209 1340 c 0,93,94
 -271 1340 -271 1340 -319 1290 c 128,-1,95
 -367 1240 -367 1240 -413.5 1134.5 c 128,-1,96
 -460 1029 -460 1029 -527 833 c 1,97,98
 -382 833 -382 833 -265.5 863 c 128,-1,99
 -149 893 -149 893 -66.5 935.5 c 128,-1,100
 16 978 16 978 113 1040 c 0,101,102
 206 1098 206 1098 261 1123.5 c 128,-1,103
 316 1149 316 1149 376 1149 c 0,104,0
 453 1149 453 1149 497.5 1114.5 c 128,-1,1
-713 715 m 1,105,-1
 -756 722 l 2,106,107
 -803 733 -803 733 -822 733 c 0,108,109
 -838 733 -838 733 -840 727 c 0,110,111
 -860 703 -860 703 -733 656 c 1,112,-1
 -713 715 l 1,105,-1
-575.5 -185.5 m 128,-1,114
 -527 -136 -527 -136 -500 -50 c 128,-1,115
 -473 36 -473 36 -473 147 c 0,116,117
 -473 231 -473 231 -516.5 304.5 c 128,-1,118
 -560 378 -560 378 -645 456 c 1,119,120
 -690 285 -690 285 -717 121.5 c 128,-1,121
 -744 -42 -744 -42 -745 -153 c 0,122,123
 -741 -189 -741 -189 -725 -212 c 128,-1,124
 -709 -235 -709 -235 -685 -235 c 0,125,113
 -624 -235 -624 -235 -575.5 -185.5 c 128,-1,114
471.5 -204 m 128,-1,127
 558 -173 558 -173 622 -122 c 1,128,129
 449 -131 449 -131 322.5 -159 c 128,-1,130
 196 -187 196 -187 196 -213 c 0,131,132
 196 -220 196 -220 228 -227.5 c 128,-1,133
 260 -235 260 -235 298 -235 c 0,134,126
 385 -235 385 -235 471.5 -204 c 128,-1,127
EndSplineSet
Validated: 33
EndChar

StartChar: h_e.liga
Encoding: 65553 -1 369
Width: 1200
GlyphClass: 3
Flags: W
LayerCount: 2
Fore
SplineSet
741 171 m 128,-1,1
 847 222 847 222 922 302 c 1,2,-1
 993 176 l 1,3,4
 902 85 902 85 768.5 30 c 128,-1,5
 635 -25 635 -25 516 -25 c 0,6,7
 385 -25 385 -25 297 59.5 c 128,-1,8
 209 144 209 144 198 278 c 1,9,10
 82 222 82 222 35 160 c 0,11,12
 -49 55 -49 55 -116.5 15 c 128,-1,13
 -184 -25 -184 -25 -251 -25 c 256,14,15
 -318 -25 -318 -25 -360 9.5 c 128,-1,16
 -402 44 -402 44 -402 102 c 0,17,18
 -404 175 -404 175 -367.5 330 c 128,-1,19
 -331 485 -331 485 -260 724 c 0,20,21
 -233 815 -233 815 -233 873 c 0,22,23
 -233 1009 -233 1009 -376 1009 c 0,24,25
 -452 1009 -452 1009 -544 931 c 128,-1,26
 -636 853 -636 853 -709 734.5 c 128,-1,27
 -782 616 -782 616 -804 507 c 2,28,-1
 -911 0 l 1,29,-1
 -1062 0 l 1,30,-1
 -755 1455 l 1,31,-1
 -604 1455 l 1,32,-1
 -716 922 l 1,33,34
 -636 1031 -636 1031 -546 1090 c 128,-1,35
 -456 1149 -456 1149 -362 1149 c 0,36,37
 -84 1149 -84 1149 -84 909 c 0,38,39
 -84 822 -84 822 -118 707 c 0,40,41
 -251 271 -251 271 -253 153 c 0,42,43
 -251 135 -251 135 -238 125 c 128,-1,44
 -225 115 -225 115 -205 115 c 0,45,46
 -181 115 -181 115 -144 148.5 c 128,-1,47
 -107 182 -107 182 -29 282 c 0,48,49
 36 364 36 364 200 429 c 1,50,51
 216 645 216 645 293.5 808 c 128,-1,52
 371 971 371 971 497.5 1060 c 128,-1,53
 624 1149 624 1149 784 1149 c 0,54,55
 909 1149 909 1149 977 1084.5 c 128,-1,56
 1045 1020 1045 1020 1045 895 c 0,57,58
 1045 753 1045 753 960.5 656.5 c 128,-1,59
 876 560 876 560 758 502.5 c 128,-1,60
 640 445 640 445 444 375 c 0,61,62
 422 368 422 368 396.5 358.5 c 128,-1,63
 371 349 371 349 342 338 c 1,64,-1
 342 320 l 2,65,66
 342 233 342 233 399 176.5 c 128,-1,67
 456 120 456 120 540 120 c 0,68,0
 635 120 635 120 741 171 c 128,-1,1
576.5 944.5 m 128,-1,70
 489 880 489 880 430 761 c 128,-1,71
 371 642 371 642 351 482 c 1,72,73
 387 495 387 495 398 496 c 0,74,75
 563 549 563 549 663.5 592.5 c 128,-1,76
 764 636 764 636 832 706 c 128,-1,77
 900 776 900 776 900 880 c 0,78,79
 900 940 900 940 862.5 974.5 c 128,-1,80
 825 1009 825 1009 769 1009 c 0,81,69
 664 1009 664 1009 576.5 944.5 c 128,-1,70
EndSplineSet
Validated: 33
EndChar

StartChar: h_l.liga
Encoding: 65554 -1 370
Width: 1200
GlyphClass: 3
Flags: W
LayerCount: 2
Fore
SplineSet
775.5 158.5 m 128,-1,1
 836 202 836 202 876 267 c 1,2,-1
 991 184 l 1,3,4
 927 89 927 89 833.5 32 c 128,-1,5
 740 -25 740 -25 651 -25 c 0,6,7
 555 -25 555 -25 488.5 33 c 128,-1,8
 422 91 422 91 402 191 c 1,9,10
 253 87 253 87 86.5 31 c 128,-1,11
 -80 -25 -80 -25 -251 -25 c 0,12,13
 -318 -25 -318 -25 -360 9.5 c 128,-1,14
 -402 44 -402 44 -402 102 c 0,15,16
 -404 175 -404 175 -367.5 330 c 128,-1,17
 -331 485 -331 485 -260 724 c 0,18,19
 -233 815 -233 815 -233 873 c 0,20,21
 -233 1009 -233 1009 -376 1009 c 0,22,23
 -452 1009 -452 1009 -544 931 c 128,-1,24
 -636 853 -636 853 -709 734.5 c 128,-1,25
 -782 616 -782 616 -804 507 c 2,26,-1
 -911 0 l 1,27,-1
 -1062 0 l 1,28,-1
 -755 1455 l 1,29,-1
 -604 1455 l 1,30,-1
 -716 922 l 1,31,32
 -636 1031 -636 1031 -546 1090 c 128,-1,33
 -456 1149 -456 1149 -362 1149 c 0,34,35
 -84 1149 -84 1149 -84 909 c 0,36,37
 -84 822 -84 822 -118 707 c 0,38,39
 -251 271 -251 271 -253 153 c 0,40,41
 -251 135 -251 135 -238 125 c 128,-1,42
 -225 115 -225 115 -205 115 c 0,43,44
 -52 115 -52 115 101.5 180 c 128,-1,45
 255 245 255 245 395 360 c 1,46,47
 397 913 397 913 491 1196.5 c 128,-1,48
 585 1480 585 1480 804 1480 c 0,49,50
 904 1480 904 1480 962 1414.5 c 128,-1,51
 1020 1349 1020 1349 1020 1236 c 0,52,53
 1020 1000 1020 1000 890 747.5 c 128,-1,54
 760 495 760 495 544 302 c 1,55,56
 553 217 553 217 585.5 166 c 128,-1,57
 618 115 618 115 664 115 c 0,58,0
 715 115 715 115 775.5 158.5 c 128,-1,1
658.5 1225.5 m 128,-1,60
 604 1113 604 1113 574 922 c 128,-1,61
 544 731 544 731 540 500 c 1,62,63
 691 665 691 665 780 860 c 128,-1,64
 869 1055 869 1055 869 1229 c 0,65,66
 869 1338 869 1338 789 1338 c 0,67,59
 713 1338 713 1338 658.5 1225.5 c 128,-1,60
EndSplineSet
Validated: 33
EndChar

StartChar: i_e.liga
Encoding: 65555 -1 371
Width: 1200
GlyphClass: 3
Flags: W
LayerCount: 2
Fore
SplineSet
-543.5 1326.5 m 128,-1,1
 -576 1351 -576 1351 -576 1404 c 0,2,3
 -576 1428 -576 1428 -571 1456 c 0,4,5
 -556 1529 -556 1529 -518 1558 c 128,-1,6
 -480 1587 -480 1587 -402 1587 c 0,7,8
 -331 1587 -331 1587 -297.5 1562.5 c 128,-1,9
 -264 1538 -264 1538 -264 1487 c 0,10,11
 -264 1472 -264 1472 -271 1433 c 0,12,13
 -286 1360 -286 1360 -323 1331 c 128,-1,14
 -360 1302 -360 1302 -438 1302 c 0,15,0
 -511 1302 -511 1302 -543.5 1326.5 c 128,-1,1
741 171 m 128,-1,17
 847 222 847 222 922 302 c 1,18,-1
 993 176 l 1,19,20
 902 85 902 85 768.5 30 c 128,-1,21
 635 -25 635 -25 516 -25 c 0,22,23
 425 -25 425 -25 351.5 18.5 c 128,-1,24
 278 62 278 62 237 139 c 128,-1,25
 196 216 196 216 196 315 c 2,26,-1
 196 318 l 1,27,28
 69 273 69 273 13 224 c 0,29,30
 -103 120 -103 120 -174 68 c 128,-1,31
 -245 16 -245 16 -303.5 -4.5 c 128,-1,32
 -362 -25 -362 -25 -435 -25 c 0,33,34
 -600 -25 -600 -25 -679 34 c 128,-1,35
 -758 93 -758 93 -758 231 c 0,36,37
 -758 333 -758 333 -718 476 c 2,38,-1
 -609 864 l 2,39,40
 -604 886 -604 886 -604 904 c 0,41,42
 -604 937 -604 937 -624 956.5 c 128,-1,43
 -644 976 -644 976 -687 984 c 1,44,-1
 -651 1124 l 1,45,46
 -555 1109 -555 1109 -502 1063.5 c 128,-1,47
 -449 1018 -449 1018 -449 945 c 0,48,49
 -449 923 -449 923 -458 887 c 2,50,-1
 -571 476 l 2,51,52
 -606 354 -606 354 -605 276 c 0,53,54
 -605 187 -605 187 -560.5 151 c 128,-1,55
 -516 115 -516 115 -422 115 c 0,56,57
 -378 115 -378 115 -341.5 130 c 128,-1,58
 -305 145 -305 145 -252.5 184.5 c 128,-1,59
 -200 224 -200 224 -76 324 c 0,60,61
 8 393 8 393 202 449 c 1,62,63
 222 660 222 660 299 818 c 128,-1,64
 376 976 376 976 500.5 1062.5 c 128,-1,65
 625 1149 625 1149 784 1149 c 0,66,67
 909 1149 909 1149 977 1084.5 c 128,-1,68
 1045 1020 1045 1020 1045 895 c 0,69,70
 1045 744 1045 744 950.5 645.5 c 128,-1,71
 856 547 856 547 723.5 491.5 c 128,-1,72
 591 436 591 436 382 376 c 0,73,74
 373 372 373 372 342 364 c 1,75,-1
 342 320 l 2,76,77
 342 233 342 233 399 176.5 c 128,-1,78
 456 120 456 120 540 120 c 0,79,16
 635 120 635 120 741 171 c 128,-1,17
577.5 946.5 m 128,-1,81
 491 884 491 884 433 766.5 c 128,-1,82
 375 649 375 649 353 493 c 1,83,84
 531 542 531 542 641 584.5 c 128,-1,85
 751 627 751 627 825.5 699 c 128,-1,86
 900 771 900 771 900 880 c 0,87,88
 900 940 900 940 862.5 974.5 c 128,-1,89
 825 1009 825 1009 769 1009 c 0,90,80
 664 1009 664 1009 577.5 946.5 c 128,-1,81
EndSplineSet
Validated: 33
EndChar

StartChar: i_l.liga
Encoding: 65556 -1 372
Width: 1200
GlyphClass: 3
Flags: W
LayerCount: 2
Fore
SplineSet
-543.5 1326.5 m 128,-1,1
 -576 1351 -576 1351 -576 1404 c 0,2,3
 -576 1428 -576 1428 -571 1456 c 0,4,5
 -556 1529 -556 1529 -518 1558 c 128,-1,6
 -480 1587 -480 1587 -402 1587 c 0,7,8
 -331 1587 -331 1587 -297.5 1562.5 c 128,-1,9
 -264 1538 -264 1538 -264 1487 c 0,10,11
 -264 1472 -264 1472 -271 1433 c 0,12,13
 -286 1360 -286 1360 -323 1331 c 128,-1,14
 -360 1302 -360 1302 -438 1302 c 0,15,0
 -511 1302 -511 1302 -543.5 1326.5 c 128,-1,1
775.5 158.5 m 128,-1,17
 836 202 836 202 876 267 c 1,18,-1
 991 184 l 1,19,20
 927 89 927 89 833.5 32 c 128,-1,21
 740 -25 740 -25 651 -25 c 0,22,23
 535 -25 535 -25 465 56.5 c 128,-1,24
 395 138 395 138 395 275 c 2,25,-1
 395 276 l 1,26,27
 199 136 199 136 -16 55.5 c 128,-1,28
 -231 -25 -231 -25 -435 -25 c 0,29,30
 -600 -25 -600 -25 -679 34 c 128,-1,31
 -758 93 -758 93 -758 231 c 0,32,33
 -758 333 -758 333 -718 476 c 2,34,-1
 -609 864 l 2,35,36
 -604 886 -604 886 -604 904 c 0,37,38
 -604 937 -604 937 -624 956.5 c 128,-1,39
 -644 976 -644 976 -687 984 c 1,40,-1
 -651 1124 l 1,41,42
 -555 1109 -555 1109 -502 1063.5 c 128,-1,43
 -449 1018 -449 1018 -449 945 c 0,44,45
 -449 923 -449 923 -458 887 c 2,46,-1
 -571 476 l 2,47,48
 -606 354 -606 354 -605 276 c 0,49,50
 -605 187 -605 187 -560.5 151 c 128,-1,51
 -516 115 -516 115 -422 115 c 0,52,53
 -231 115 -231 115 -14.5 210 c 128,-1,54
 202 305 202 305 396 464 c 1,55,56
 405 964 405 964 500.5 1222 c 128,-1,57
 596 1480 596 1480 804 1480 c 0,58,59
 904 1480 904 1480 962 1414.5 c 128,-1,60
 1020 1349 1020 1349 1020 1236 c 0,61,62
 1020 1031 1020 1031 889 805.5 c 128,-1,63
 758 580 758 580 540 391 c 1,64,-1
 540 344 l 2,65,66
 544 242 544 242 578.5 178.5 c 128,-1,67
 613 115 613 115 664 115 c 256,68,16
 715 115 715 115 775.5 158.5 c 128,-1,17
619.5 1130 m 128,-1,70
 555 922 555 922 542 598 c 1,71,72
 693 753 693 753 781 917.5 c 128,-1,73
 869 1082 869 1082 869 1229 c 0,74,75
 869 1338 869 1338 789 1338 c 0,76,69
 684 1338 684 1338 619.5 1130 c 128,-1,70
EndSplineSet
Validated: 33
EndChar

StartChar: k_e.liga
Encoding: 65557 -1 373
Width: 1200
GlyphClass: 3
Flags: W
LayerCount: 2
Fore
SplineSet
741 171 m 128,-1,1
 847 222 847 222 922 302 c 1,2,-1
 993 176 l 1,3,4
 902 85 902 85 768.5 30 c 128,-1,5
 635 -25 635 -25 516 -25 c 0,6,7
 381 -25 381 -25 292.5 64 c 128,-1,8
 204 153 204 153 196 295 c 1,9,10
 72 244 72 244 27 198 c 0,11,12
 -106 73 -106 73 -175.5 24 c 128,-1,13
 -245 -25 -245 -25 -305 -25 c 0,14,15
 -385 -25 -385 -25 -430 63 c 128,-1,16
 -475 151 -475 151 -484 307 c 0,17,18
 -486 371 -486 371 -515.5 430 c 128,-1,19
 -545 489 -545 489 -589 522 c 1,20,-1
 -527 635 l 1,21,22
 -414 631 -414 631 -326 661 c 128,-1,23
 -238 691 -238 691 -188 749 c 128,-1,24
 -138 807 -138 807 -138 885 c 0,25,26
 -138 943 -138 943 -183.5 982.5 c 128,-1,27
 -229 1022 -229 1022 -289 1022 c 0,28,29
 -425 1022 -425 1022 -537 913 c 128,-1,30
 -649 804 -649 804 -709 616 c 1,31,-1
 -840 0 l 1,32,-1
 -991 0 l 1,33,-1
 -684 1455 l 1,34,-1
 -531 1455 l 1,35,-1
 -624 1016 l 1,36,37
 -468 1161 -468 1161 -273 1162 c 0,38,39
 -153 1162 -153 1162 -73 1092 c 128,-1,40
 7 1022 7 1022 7 911 c 0,41,42
 7 766 7 766 -98.5 655 c 128,-1,43
 -204 544 -204 544 -376 505 c 1,44,45
 -356 463 -356 463 -344.5 414 c 128,-1,46
 -333 365 -333 365 -331 327 c 0,47,48
 -327 222 -327 222 -317 168.5 c 128,-1,49
 -307 115 -307 115 -284 115 c 0,50,51
 -266 115 -266 115 -241 135.5 c 128,-1,52
 -216 156 -216 156 -153 222 c 2,53,-1
 -56 320 l 2,54,55
 15 391 15 391 202 453 c 1,56,57
 222 662 222 662 299 820 c 128,-1,58
 376 978 376 978 500.5 1063.5 c 128,-1,59
 625 1149 625 1149 784 1149 c 0,60,61
 909 1149 909 1149 977 1084.5 c 128,-1,62
 1045 1020 1045 1020 1045 895 c 0,63,64
 1045 746 1045 746 953.5 646.5 c 128,-1,65
 862 547 862 547 733.5 489 c 128,-1,66
 605 431 605 431 400 364 c 2,67,-1
 342 345 l 1,68,-1
 342 320 l 2,69,70
 342 233 342 233 399 176.5 c 128,-1,71
 456 120 456 120 540 120 c 0,72,0
 635 120 635 120 741 171 c 128,-1,1
577.5 947 m 128,-1,74
 491 885 491 885 433 769 c 128,-1,75
 375 653 375 653 353 496 c 1,76,77
 535 547 535 547 642 588 c 128,-1,78
 749 629 749 629 824.5 700 c 128,-1,79
 900 771 900 771 900 880 c 0,80,81
 900 940 900 940 862.5 974.5 c 128,-1,82
 825 1009 825 1009 769 1009 c 0,83,73
 664 1009 664 1009 577.5 947 c 128,-1,74
EndSplineSet
Validated: 33
EndChar

StartChar: k_l.liga
Encoding: 65558 -1 374
Width: 1200
GlyphClass: 3
Flags: W
LayerCount: 2
Fore
SplineSet
775.5 158.5 m 128,-1,1
 836 202 836 202 876 267 c 1,2,-1
 991 184 l 1,3,4
 927 89 927 89 833.5 32 c 128,-1,5
 740 -25 740 -25 651 -25 c 0,6,7
 553 -25 553 -25 486.5 35 c 128,-1,8
 420 95 420 95 402 198 c 1,9,10
 244 93 244 93 64.5 34 c 128,-1,11
 -115 -25 -115 -25 -305 -25 c 0,12,13
 -385 -25 -385 -25 -430 63 c 128,-1,14
 -475 151 -475 151 -484 307 c 0,15,16
 -486 371 -486 371 -515.5 430 c 128,-1,17
 -545 489 -545 489 -589 522 c 1,18,-1
 -527 635 l 1,19,20
 -414 631 -414 631 -326 661 c 128,-1,21
 -238 691 -238 691 -188 749 c 128,-1,22
 -138 807 -138 807 -138 885 c 0,23,24
 -138 943 -138 943 -183.5 982.5 c 128,-1,25
 -229 1022 -229 1022 -289 1022 c 0,26,27
 -425 1022 -425 1022 -537 913 c 128,-1,28
 -649 804 -649 804 -709 616 c 1,29,-1
 -840 0 l 1,30,-1
 -991 0 l 1,31,-1
 -684 1455 l 1,32,-1
 -531 1455 l 1,33,-1
 -624 1016 l 1,34,35
 -468 1161 -468 1161 -273 1162 c 0,36,37
 -153 1162 -153 1162 -73 1092 c 128,-1,38
 7 1022 7 1022 7 911 c 0,39,40
 7 766 7 766 -98.5 655 c 128,-1,41
 -204 544 -204 544 -376 505 c 1,42,43
 -356 463 -356 463 -344.5 414 c 128,-1,44
 -333 365 -333 365 -331 327 c 0,45,46
 -327 222 -327 222 -317 168.5 c 128,-1,47
 -307 115 -307 115 -284 115 c 0,48,49
 -102 115 -102 115 71.5 183 c 128,-1,50
 245 251 245 251 395 371 c 1,51,52
 399 918 399 918 492 1199 c 128,-1,53
 585 1480 585 1480 804 1480 c 0,54,55
 904 1480 904 1480 962 1414.5 c 128,-1,56
 1020 1349 1020 1349 1020 1236 c 0,57,58
 1020 998 1020 998 891 747 c 128,-1,59
 762 496 762 496 542 305 c 1,60,61
 551 220 551 220 584.5 167.5 c 128,-1,62
 618 115 618 115 664 115 c 0,63,0
 715 115 715 115 775.5 158.5 c 128,-1,1
658.5 1226.5 m 128,-1,65
 604 1115 604 1115 574 925.5 c 128,-1,66
 544 736 544 736 540 504 c 1,67,68
 693 669 693 669 781 862 c 128,-1,69
 869 1055 869 1055 869 1229 c 0,70,71
 869 1338 869 1338 789 1338 c 0,72,64
 713 1338 713 1338 658.5 1226.5 c 128,-1,65
EndSplineSet
Validated: 33
EndChar

StartChar: l_e.liga
Encoding: 65559 -1 375
Width: 1200
GlyphClass: 3
Flags: W
LayerCount: 2
Fore
SplineSet
741 171 m 128,-1,1
 847 222 847 222 922 302 c 1,2,-1
 993 176 l 1,3,4
 902 85 902 85 768.5 30 c 128,-1,5
 635 -25 635 -25 516 -25 c 0,6,7
 425 -25 425 -25 351.5 18.5 c 128,-1,8
 278 62 278 62 237 139 c 128,-1,9
 196 216 196 216 196 315 c 1,10,11
 67 270 67 270 11 222 c 0,12,13
 -140 95 -140 95 -247.5 35 c 128,-1,14
 -355 -25 -355 -25 -440 -25 c 0,15,16
 -540 -25 -540 -25 -607.5 36.5 c 128,-1,17
 -675 98 -675 98 -691 205 c 1,18,19
 -866 85 -866 85 -1075 -2 c 1,20,-1
 -1124 125 l 1,21,22
 -889 223 -889 223 -696 378 c 1,23,24
 -692 922 -692 922 -598 1201 c 128,-1,25
 -504 1480 -504 1480 -287 1480 c 0,26,27
 -187 1480 -187 1480 -129 1414.5 c 128,-1,28
 -71 1349 -71 1349 -71 1236 c 0,29,30
 -71 971 -71 971 -198 735.5 c 128,-1,31
 -325 500 -325 500 -549 313 c 1,32,33
 -540 224 -540 224 -507.5 169.5 c 128,-1,34
 -475 115 -475 115 -427 115 c 0,35,36
 -378 115 -378 115 -306.5 160 c 128,-1,37
 -235 205 -235 205 -78 325 c 0,38,39
 6 389 6 389 202 447 c 1,40,41
 220 658 220 658 298 817 c 128,-1,42
 376 976 376 976 500.5 1062.5 c 128,-1,43
 625 1149 625 1149 784 1149 c 0,44,45
 909 1149 909 1149 977 1084.5 c 128,-1,46
 1045 1020 1045 1020 1045 895 c 0,47,48
 1045 739 1045 739 943.5 637.5 c 128,-1,49
 842 536 842 536 706.5 481.5 c 128,-1,50
 571 427 571 427 342 360 c 1,51,-1
 342 320 l 2,52,53
 342 233 342 233 399 176.5 c 128,-1,54
 456 120 456 120 540 120 c 0,55,0
 635 120 635 120 741 171 c 128,-1,1
-432.5 1227 m 128,-1,57
 -487 1116 -487 1116 -517 927 c 128,-1,58
 -547 738 -547 738 -551 507 c 1,59,60
 -396 667 -396 667 -309 851 c 128,-1,61
 -222 1035 -222 1035 -222 1229 c 0,62,63
 -222 1338 -222 1338 -302 1338 c 0,64,56
 -378 1338 -378 1338 -432.5 1227 c 128,-1,57
577.5 945.5 m 128,-1,66
 491 882 491 882 432 765.5 c 128,-1,67
 373 649 373 649 353 491 c 1,68,69
 531 540 531 540 641 582.5 c 128,-1,70
 751 625 751 625 825.5 698 c 128,-1,71
 900 771 900 771 900 880 c 0,72,73
 900 940 900 940 862.5 974.5 c 128,-1,74
 825 1009 825 1009 769 1009 c 0,75,65
 664 1009 664 1009 577.5 945.5 c 128,-1,66
EndSplineSet
Validated: 1
EndChar

StartChar: l_l.liga
Encoding: 65560 -1 376
Width: 1200
GlyphClass: 3
Flags: W
LayerCount: 2
Fore
SplineSet
775.5 158.5 m 128,-1,1
 836 202 836 202 876 267 c 1,2,-1
 991 184 l 1,3,4
 927 89 927 89 833.5 32 c 128,-1,5
 740 -25 740 -25 651 -25 c 0,6,7
 535 -25 535 -25 465 56.5 c 128,-1,8
 395 138 395 138 395 275 c 2,9,-1
 395 284 l 1,10,11
 197 140 197 140 -20.5 57.5 c 128,-1,12
 -238 -25 -238 -25 -440 -25 c 0,13,14
 -540 -25 -540 -25 -607.5 36.5 c 128,-1,15
 -675 98 -675 98 -691 205 c 1,16,17
 -866 85 -866 85 -1075 -2 c 1,18,-1
 -1124 125 l 1,19,20
 -889 223 -889 223 -696 378 c 1,21,22
 -692 922 -692 922 -598 1201 c 128,-1,23
 -504 1480 -504 1480 -287 1480 c 0,24,25
 -187 1480 -187 1480 -129 1414.5 c 128,-1,26
 -71 1349 -71 1349 -71 1236 c 0,27,28
 -71 971 -71 971 -198 735.5 c 128,-1,29
 -325 500 -325 500 -549 313 c 1,30,31
 -540 224 -540 224 -507.5 169.5 c 128,-1,32
 -475 115 -475 115 -427 115 c 0,33,34
 -240 115 -240 115 -20 212 c 128,-1,35
 200 309 200 309 396 471 c 1,36,37
 405 969 405 969 500.5 1224.5 c 128,-1,38
 596 1480 596 1480 804 1480 c 0,39,40
 904 1480 904 1480 962 1414.5 c 128,-1,41
 1020 1349 1020 1349 1020 1236 c 0,42,43
 1020 1032 1020 1032 888 809.5 c 128,-1,44
 756 587 756 587 538 398 c 1,45,46
 540 380 540 380 540 344 c 0,47,48
 544 242 544 242 578.5 178.5 c 128,-1,49
 613 115 613 115 664 115 c 256,50,0
 715 115 715 115 775.5 158.5 c 128,-1,1
-432.5 1227 m 128,-1,52
 -487 1116 -487 1116 -517 927 c 128,-1,53
 -547 738 -547 738 -551 507 c 1,54,55
 -396 667 -396 667 -309 851 c 128,-1,56
 -222 1035 -222 1035 -222 1229 c 0,57,58
 -222 1338 -222 1338 -302 1338 c 0,59,51
 -378 1338 -378 1338 -432.5 1227 c 128,-1,52
620.5 1131.5 m 128,-1,61
 556 925 556 925 542 604 c 1,62,63
 693 759 693 759 781 921.5 c 128,-1,64
 869 1084 869 1084 869 1229 c 0,65,66
 869 1338 869 1338 789 1338 c 0,67,60
 685 1338 685 1338 620.5 1131.5 c 128,-1,61
EndSplineSet
Validated: 1
EndChar

StartChar: m_e.liga
Encoding: 65561 -1 377
Width: 1200
GlyphClass: 3
Flags: W
LayerCount: 2
Fore
SplineSet
741 171 m 128,-1,1
 847 222 847 222 922 302 c 1,2,-1
 993 176 l 1,3,4
 902 85 902 85 768.5 30 c 128,-1,5
 635 -25 635 -25 516 -25 c 0,6,7
 385 -25 385 -25 297 59.5 c 128,-1,8
 209 144 209 144 198 280 c 1,9,10
 145 242 145 242 125 196 c 0,11,12
 69 74 69 74 10 24.5 c 128,-1,13
 -49 -25 -49 -25 -156 -25 c 0,14,15
 -227 -25 -227 -25 -267 11 c 128,-1,16
 -307 47 -307 47 -307 107 c 0,17,18
 -307 182 -307 182 -271 332 c 128,-1,19
 -235 482 -235 482 -164 724 c 0,20,21
 -119 873 -119 873 -118 940 c 0,22,23
 -118 1009 -118 1009 -165 1009 c 0,24,25
 -232 1009 -232 1009 -272.5 970 c 128,-1,26
 -313 931 -313 931 -344 833.5 c 128,-1,27
 -375 736 -375 736 -416 535 c 2,28,-1
 -527 0 l 1,29,-1
 -676 0 l 1,30,-1
 -525 720 l 2,31,32
 -509 796 -509 796 -497 857 c 128,-1,33
 -485 918 -485 918 -485 949 c 256,34,35
 -485 980 -485 980 -497 994.5 c 128,-1,36
 -509 1009 -509 1009 -538 1009 c 0,37,38
 -596 1009 -596 1009 -630 974.5 c 128,-1,39
 -664 940 -664 940 -694 843.5 c 128,-1,40
 -724 747 -724 747 -769 531 c 2,41,-1
 -880 0 l 1,42,-1
 -1031 0 l 1,43,-1
 -829 940 l 2,44,45
 -829 945 -829 945 -826.5 951.5 c 128,-1,46
 -824 958 -824 958 -824 965 c 0,47,48
 -824 985 -824 985 -834.5 997 c 128,-1,49
 -845 1009 -845 1009 -867 1009 c 0,50,51
 -883 1009 -883 1009 -905 996.5 c 128,-1,52
 -927 984 -927 984 -962 953 c 1,53,-1
 -1025 1065 l 1,54,55
 -1000 1103 -1000 1103 -942.5 1126 c 128,-1,56
 -885 1149 -885 1149 -825 1149 c 0,57,58
 -767 1149 -767 1149 -734.5 1120 c 128,-1,59
 -702 1091 -702 1091 -695 1042 c 1,60,61
 -651 1095 -651 1095 -611 1122 c 128,-1,62
 -571 1149 -571 1149 -524 1149 c 0,63,64
 -459 1149 -459 1149 -424 1129 c 128,-1,65
 -389 1109 -389 1109 -377 1080 c 128,-1,66
 -365 1051 -365 1051 -360 1007 c 1,67,68
 -305 1083 -305 1083 -260 1116 c 128,-1,69
 -215 1149 -215 1149 -151 1149 c 0,70,71
 31 1149 31 1149 31 965 c 0,72,73
 31 865 31 865 -24 707 c 0,74,75
 -166 294 -166 294 -158 153 c 0,76,77
 -156 135 -156 135 -143.5 125 c 128,-1,78
 -131 115 -131 115 -111 115 c 0,79,80
 -49 115 -49 115 24 282 c 0,81,82
 62 369 62 369 202 433 c 1,83,84
 218 648 218 648 295.5 809.5 c 128,-1,85
 373 971 373 971 498.5 1060 c 128,-1,86
 624 1149 624 1149 784 1149 c 0,87,88
 909 1149 909 1149 977 1084.5 c 128,-1,89
 1045 1020 1045 1020 1045 895 c 0,90,91
 1045 759 1045 759 969 668.5 c 128,-1,92
 893 578 893 578 785.5 527 c 128,-1,93
 678 476 678 476 504 415 c 0,94,95
 413 386 413 386 342 356 c 1,96,-1
 342 320 l 2,97,98
 342 233 342 233 399 176.5 c 128,-1,99
 456 120 456 120 540 120 c 0,100,0
 635 120 635 120 741 171 c 128,-1,1
577.5 945.5 m 128,-1,102
 491 882 491 882 432 765.5 c 128,-1,103
 373 649 373 649 353 491 c 1,104,-1
 440 520 l 2,105,106
 591 567 591 567 683 608 c 128,-1,107
 775 649 775 649 837.5 715.5 c 128,-1,108
 900 782 900 782 900 880 c 0,109,110
 900 940 900 940 862.5 974.5 c 128,-1,111
 825 1009 825 1009 769 1009 c 0,112,101
 664 1009 664 1009 577.5 945.5 c 128,-1,102
EndSplineSet
Validated: 33
EndChar

StartChar: m_l.liga
Encoding: 65562 -1 378
Width: 1200
GlyphClass: 3
Flags: W
LayerCount: 2
Fore
SplineSet
775.5 158.5 m 128,-1,1
 836 202 836 202 876 267 c 1,2,-1
 991 184 l 1,3,4
 927 89 927 89 833.5 32 c 128,-1,5
 740 -25 740 -25 651 -25 c 0,6,7
 553 -25 553 -25 487.5 34 c 128,-1,8
 422 93 422 93 402 195 c 1,9,10
 264 91 264 91 119.5 33 c 128,-1,11
 -25 -25 -25 -25 -156 -25 c 0,12,13
 -227 -25 -227 -25 -267 11 c 128,-1,14
 -307 47 -307 47 -307 107 c 0,15,16
 -307 182 -307 182 -271 332 c 128,-1,17
 -235 482 -235 482 -164 724 c 0,18,19
 -119 873 -119 873 -118 940 c 0,20,21
 -118 1009 -118 1009 -165 1009 c 0,22,23
 -232 1009 -232 1009 -272.5 970 c 128,-1,24
 -313 931 -313 931 -344 833.5 c 128,-1,25
 -375 736 -375 736 -416 535 c 2,26,-1
 -527 0 l 1,27,-1
 -676 0 l 1,28,-1
 -525 720 l 2,29,30
 -509 796 -509 796 -497 857 c 128,-1,31
 -485 918 -485 918 -485 949 c 256,32,33
 -485 980 -485 980 -497 994.5 c 128,-1,34
 -509 1009 -509 1009 -538 1009 c 0,35,36
 -596 1009 -596 1009 -630 974.5 c 128,-1,37
 -664 940 -664 940 -694 843.5 c 128,-1,38
 -724 747 -724 747 -769 531 c 2,39,-1
 -880 0 l 1,40,-1
 -1031 0 l 1,41,-1
 -829 940 l 2,42,43
 -829 945 -829 945 -826.5 951.5 c 128,-1,44
 -824 958 -824 958 -824 965 c 0,45,46
 -824 985 -824 985 -834.5 997 c 128,-1,47
 -845 1009 -845 1009 -867 1009 c 0,48,49
 -883 1009 -883 1009 -905 996.5 c 128,-1,50
 -927 984 -927 984 -962 953 c 1,51,-1
 -1025 1065 l 1,52,53
 -1000 1103 -1000 1103 -942.5 1126 c 128,-1,54
 -885 1149 -885 1149 -825 1149 c 0,55,56
 -767 1149 -767 1149 -734.5 1120 c 128,-1,57
 -702 1091 -702 1091 -695 1042 c 1,58,59
 -651 1095 -651 1095 -611 1122 c 128,-1,60
 -571 1149 -571 1149 -524 1149 c 0,61,62
 -459 1149 -459 1149 -424 1129 c 128,-1,63
 -389 1109 -389 1109 -377 1080 c 128,-1,64
 -365 1051 -365 1051 -360 1007 c 1,65,66
 -305 1083 -305 1083 -260 1116 c 128,-1,67
 -215 1149 -215 1149 -151 1149 c 0,68,69
 31 1149 31 1149 31 965 c 0,70,71
 31 865 31 865 -24 707 c 0,72,73
 -166 294 -166 294 -158 153 c 0,74,75
 -156 135 -156 135 -143.5 125 c 128,-1,76
 -131 115 -131 115 -111 115 c 0,77,78
 2 115 2 115 133 184 c 128,-1,79
 264 253 264 253 395 373 c 1,80,81
 399 920 399 920 493 1200 c 128,-1,82
 587 1480 587 1480 804 1480 c 0,83,84
 904 1480 904 1480 962 1414.5 c 128,-1,85
 1020 1349 1020 1349 1020 1236 c 0,86,87
 1020 1011 1020 1011 886.5 761 c 128,-1,88
 753 511 753 511 542 313 c 1,89,90
 549 224 549 224 582.5 169.5 c 128,-1,91
 616 115 616 115 664 115 c 0,92,0
 715 115 715 115 775.5 158.5 c 128,-1,1
660 1229 m 128,-1,94
 605 1120 605 1120 575 935.5 c 128,-1,95
 545 751 545 751 540 524 c 1,96,97
 687 697 687 697 778 886 c 128,-1,98
 869 1075 869 1075 869 1229 c 0,99,100
 869 1338 869 1338 789 1338 c 0,101,93
 715 1338 715 1338 660 1229 c 128,-1,94
EndSplineSet
Validated: 33
EndChar

StartChar: n_e.liga
Encoding: 65563 -1 379
Width: 1200
GlyphClass: 3
Flags: W
LayerCount: 2
Fore
SplineSet
741 171 m 128,-1,1
 847 222 847 222 922 302 c 1,2,-1
 993 176 l 1,3,4
 902 85 902 85 768.5 30 c 128,-1,5
 635 -25 635 -25 516 -25 c 0,6,7
 389 -25 389 -25 302 55 c 128,-1,8
 215 135 215 135 200 264 c 1,9,10
 98 213 98 213 55 160 c 1,11,12
 -14 55 -14 55 -79.5 15 c 128,-1,13
 -145 -25 -145 -25 -213 -25 c 256,14,15
 -280 -25 -280 -25 -320 9.5 c 128,-1,16
 -360 44 -360 44 -362 102 c 0,17,18
 -366 186 -366 186 -329.5 354 c 128,-1,19
 -293 522 -293 522 -222 725 c 0,20,21
 -191 812 -191 812 -191 878 c 256,22,23
 -191 943 -191 943 -223.5 976 c 128,-1,24
 -256 1009 -256 1009 -318 1009 c 0,25,26
 -387 1009 -387 1009 -474.5 934.5 c 128,-1,27
 -562 860 -562 860 -632 748 c 128,-1,28
 -702 636 -702 636 -724 533 c 2,29,-1
 -835 0 l 1,30,-1
 -987 0 l 1,31,-1
 -785 940 l 2,32,33
 -785 944 -785 944 -782.5 951 c 128,-1,34
 -780 958 -780 958 -780 964 c 0,35,36
 -780 984 -780 984 -792.5 996.5 c 128,-1,37
 -805 1009 -805 1009 -825 1009 c 0,38,39
 -841 1009 -841 1009 -861.5 996.5 c 128,-1,40
 -882 984 -882 984 -918 953 c 1,41,-1
 -980 1065 l 1,42,43
 -956 1101 -956 1101 -899 1125 c 128,-1,44
 -842 1149 -842 1149 -782 1149 c 0,45,46
 -717 1149 -717 1149 -671 1110 c 128,-1,47
 -625 1071 -625 1071 -625 1011 c 0,48,49
 -625 986 -625 986 -633 964 c 2,50,-1
 -647 913 l 1,51,52
 -569 1024 -569 1024 -479 1086.5 c 128,-1,53
 -389 1149 -389 1149 -305 1149 c 0,54,55
 -176 1149 -176 1149 -108 1088 c 128,-1,56
 -40 1027 -40 1027 -40 911 c 0,57,58
 -40 824 -40 824 -78 709 c 0,59,60
 -222 274 -222 274 -213 153 c 0,61,62
 -213 135 -213 135 -200 125 c 128,-1,63
 -187 115 -187 115 -167 115 c 0,64,65
 -142 115 -142 115 -108.5 148.5 c 128,-1,66
 -75 182 -75 182 -9 282 c 0,67,68
 44 369 44 369 202 435 c 1,69,70
 218 650 218 650 295.5 811.5 c 128,-1,71
 373 973 373 973 498.5 1061 c 128,-1,72
 624 1149 624 1149 784 1149 c 0,73,74
 909 1149 909 1149 977 1084.5 c 128,-1,75
 1045 1020 1045 1020 1045 895 c 0,76,77
 1045 750 1045 750 959 650.5 c 128,-1,78
 873 551 873 551 752 491 c 128,-1,79
 631 431 631 431 436 360 c 0,80,81
 409 351 409 351 385.5 342 c 128,-1,82
 362 333 362 333 342 325 c 1,83,-1
 342 320 l 2,84,85
 342 233 342 233 399 176.5 c 128,-1,86
 456 120 456 120 540 120 c 0,87,0
 635 120 635 120 741 171 c 128,-1,1
576.5 945.5 m 128,-1,89
 489 882 489 882 431 764.5 c 128,-1,90
 373 647 373 647 353 489 c 1,91,-1
 424 513 l 2,92,93
 582 564 582 564 676.5 604.5 c 128,-1,94
 771 645 771 645 835.5 712.5 c 128,-1,95
 900 780 900 780 900 880 c 0,96,97
 900 940 900 940 862.5 974.5 c 128,-1,98
 825 1009 825 1009 769 1009 c 0,99,88
 664 1009 664 1009 576.5 945.5 c 128,-1,89
EndSplineSet
Validated: 33
EndChar

StartChar: n_l.liga
Encoding: 65564 -1 380
Width: 1200
GlyphClass: 3
Flags: W
LayerCount: 2
Fore
SplineSet
775.5 158.5 m 128,-1,1
 836 202 836 202 876 267 c 1,2,-1
 991 184 l 1,3,4
 927 89 927 89 833.5 32 c 128,-1,5
 740 -25 740 -25 651 -25 c 0,6,7
 553 -25 553 -25 486.5 35 c 128,-1,8
 420 95 420 95 402 198 c 1,9,10
 253 93 253 93 96.5 34 c 128,-1,11
 -60 -25 -60 -25 -213 -25 c 0,12,13
 -280 -25 -280 -25 -320 9.5 c 128,-1,14
 -360 44 -360 44 -362 102 c 0,15,16
 -366 186 -366 186 -329.5 354 c 128,-1,17
 -293 522 -293 522 -222 725 c 0,18,19
 -191 812 -191 812 -191 878 c 256,20,21
 -191 943 -191 943 -223.5 976 c 128,-1,22
 -256 1009 -256 1009 -318 1009 c 0,23,24
 -387 1009 -387 1009 -474.5 934.5 c 128,-1,25
 -562 860 -562 860 -632 748 c 128,-1,26
 -702 636 -702 636 -724 533 c 2,27,-1
 -835 0 l 1,28,-1
 -987 0 l 1,29,-1
 -785 940 l 2,30,31
 -785 944 -785 944 -782.5 951 c 128,-1,32
 -780 958 -780 958 -780 964 c 0,33,34
 -780 984 -780 984 -792.5 996.5 c 128,-1,35
 -805 1009 -805 1009 -825 1009 c 0,36,37
 -841 1009 -841 1009 -861.5 996.5 c 128,-1,38
 -882 984 -882 984 -918 953 c 1,39,-1
 -980 1065 l 1,40,41
 -956 1101 -956 1101 -899 1125 c 128,-1,42
 -842 1149 -842 1149 -782 1149 c 0,43,44
 -717 1149 -717 1149 -671 1110 c 128,-1,45
 -625 1071 -625 1071 -625 1011 c 0,46,47
 -625 986 -625 986 -633 964 c 2,48,-1
 -647 913 l 1,49,50
 -569 1024 -569 1024 -479 1086.5 c 128,-1,51
 -389 1149 -389 1149 -305 1149 c 0,52,53
 -176 1149 -176 1149 -108 1088 c 128,-1,54
 -40 1027 -40 1027 -40 911 c 0,55,56
 -40 824 -40 824 -78 709 c 0,57,58
 -222 274 -222 274 -213 153 c 0,59,60
 -213 135 -213 135 -200 125 c 128,-1,61
 -187 115 -187 115 -167 115 c 0,62,63
 -34 115 -34 115 111 183 c 128,-1,64
 256 251 256 251 395 369 c 1,65,66
 399 918 399 918 492 1199 c 128,-1,67
 585 1480 585 1480 804 1480 c 0,68,69
 904 1480 904 1480 962 1414.5 c 128,-1,70
 1020 1349 1020 1349 1020 1236 c 0,71,72
 1020 1007 1020 1007 888 758 c 128,-1,73
 756 509 756 509 542 313 c 1,74,75
 549 224 549 224 582.5 169.5 c 128,-1,76
 616 115 616 115 664 115 c 0,77,0
 715 115 715 115 775.5 158.5 c 128,-1,1
659.5 1227 m 128,-1,79
 604 1116 604 1116 574 929 c 128,-1,80
 544 742 544 742 540 513 c 1,81,82
 689 678 689 678 779 869 c 128,-1,83
 869 1060 869 1060 869 1229 c 0,84,85
 869 1338 869 1338 789 1338 c 0,86,78
 715 1338 715 1338 659.5 1227 c 128,-1,79
EndSplineSet
Validated: 33
EndChar

StartChar: r_e.liga
Encoding: 65565 -1 381
Width: 1200
GlyphClass: 3
Flags: W
LayerCount: 2
Fore
SplineSet
741 171 m 128,-1,1
 847 222 847 222 922 302 c 1,2,-1
 993 176 l 1,3,4
 902 85 902 85 768.5 30 c 128,-1,5
 635 -25 635 -25 516 -25 c 0,6,7
 425 -25 425 -25 351.5 18.5 c 128,-1,8
 278 62 278 62 237 139 c 128,-1,9
 196 216 196 216 196 315 c 2,10,-1
 196 316 l 1,11,12
 85 278 85 278 42 231 c 2,13,-1
 2 191 l 2,14,15
 -80 107 -80 107 -127.5 65.5 c 128,-1,16
 -175 24 -175 24 -224 -0.5 c 128,-1,17
 -273 -25 -273 -25 -329 -25 c 0,18,19
 -422 -25 -422 -25 -475.5 35.5 c 128,-1,20
 -529 96 -529 96 -529 196 c 0,21,22
 -529 478 -529 478 -316 845 c 1,23,24
 -398 809 -398 809 -477 789 c 128,-1,25
 -556 769 -556 769 -613 769 c 2,26,-1
 -624 769 l 1,27,28
 -695 613 -695 613 -840 455 c 1,29,-1
 -925 573 l 1,30,31
 -823 675 -823 675 -760 787 c 1,32,33
 -840 811 -840 811 -884.5 858 c 128,-1,34
 -929 905 -929 905 -929 971 c 0,35,36
 -931 1049 -931 1049 -876.5 1099 c 128,-1,37
 -822 1149 -822 1149 -736 1149 c 0,38,39
 -663 1149 -663 1149 -619 1098 c 128,-1,40
 -575 1047 -575 1047 -575 964 c 0,41,42
 -575 949 -575 949 -578 909 c 1,43,44
 -496 916 -496 916 -376 966 c 128,-1,45
 -256 1016 -256 1016 -140 1093 c 1,46,-1
 -42 1024 l 1,47,48
 -202 789 -202 789 -293.5 575.5 c 128,-1,49
 -385 362 -385 362 -384 202 c 0,50,51
 -382 162 -382 162 -363 138.5 c 128,-1,52
 -344 115 -344 115 -316 115 c 0,53,54
 -274 115 -274 115 -222.5 156.5 c 128,-1,55
 -171 198 -171 198 -58 313 c 0,56,57
 15 391 15 391 202 451 c 1,58,59
 222 662 222 662 299 819 c 128,-1,60
 376 976 376 976 500.5 1062.5 c 128,-1,61
 625 1149 625 1149 784 1149 c 0,62,63
 909 1149 909 1149 977 1084.5 c 128,-1,64
 1045 1020 1045 1020 1045 895 c 0,65,66
 1045 744 1045 744 951.5 645.5 c 128,-1,67
 858 547 858 547 727 492.5 c 128,-1,68
 596 438 596 438 393 378 c 0,69,70
 371 373 371 373 342 364 c 1,71,-1
 342 320 l 2,72,73
 342 233 342 233 399 176.5 c 128,-1,74
 456 120 456 120 540 120 c 0,75,0
 635 120 635 120 741 171 c 128,-1,1
-787.5 941 m 128,-1,77
 -762 924 -762 924 -709 915 c 1,78,79
 -704 942 -704 942 -704 965 c 0,80,81
 -704 1001 -704 1001 -717.5 1024 c 128,-1,82
 -731 1047 -731 1047 -755 1047 c 0,83,84
 -780 1047 -780 1047 -796.5 1031 c 128,-1,85
 -813 1015 -813 1015 -813 989 c 0,86,76
 -813 958 -813 958 -787.5 941 c 128,-1,77
499 871 m 128,-1,88
 387 733 387 733 353 496 c 1,89,90
 538 549 538 549 643.5 590 c 128,-1,91
 749 631 749 631 824.5 701 c 128,-1,92
 900 771 900 771 900 880 c 0,93,94
 900 940 900 940 862.5 974.5 c 128,-1,95
 825 1009 825 1009 769 1009 c 0,96,87
 611 1009 611 1009 499 871 c 128,-1,88
EndSplineSet
Validated: 33
EndChar

StartChar: r_l.liga
Encoding: 65566 -1 382
Width: 1200
GlyphClass: 3
Flags: W
LayerCount: 2
Fore
SplineSet
775.5 158.5 m 128,-1,1
 836 202 836 202 876 267 c 1,2,-1
 991 184 l 1,3,4
 927 89 927 89 833.5 32 c 128,-1,5
 740 -25 740 -25 651 -25 c 0,6,7
 553 -25 553 -25 486.5 35.5 c 128,-1,8
 420 96 420 96 400 200 c 1,9,10
 238 93 238 93 54.5 34 c 128,-1,11
 -129 -25 -129 -25 -329 -25 c 0,12,13
 -422 -25 -422 -25 -475.5 35.5 c 128,-1,14
 -529 96 -529 96 -529 196 c 0,15,16
 -529 478 -529 478 -316 845 c 1,17,18
 -398 809 -398 809 -477 789 c 128,-1,19
 -556 769 -556 769 -613 769 c 2,20,-1
 -624 769 l 1,21,22
 -695 613 -695 613 -840 455 c 1,23,-1
 -925 573 l 1,24,25
 -823 675 -823 675 -760 787 c 1,26,27
 -840 811 -840 811 -884.5 858 c 128,-1,28
 -929 905 -929 905 -929 971 c 0,29,30
 -931 1049 -931 1049 -876.5 1099 c 128,-1,31
 -822 1149 -822 1149 -736 1149 c 0,32,33
 -663 1149 -663 1149 -619 1098 c 128,-1,34
 -575 1047 -575 1047 -575 964 c 0,35,36
 -575 949 -575 949 -578 909 c 1,37,38
 -496 916 -496 916 -376 966 c 128,-1,39
 -256 1016 -256 1016 -140 1093 c 1,40,-1
 -42 1024 l 1,41,42
 -202 789 -202 789 -293.5 575.5 c 128,-1,43
 -385 362 -385 362 -384 202 c 0,44,45
 -382 162 -382 162 -363 138.5 c 128,-1,46
 -344 115 -344 115 -316 115 c 0,47,48
 -121 115 -121 115 59.5 183 c 128,-1,49
 240 251 240 251 395 371 c 1,50,51
 399 918 399 918 493 1199 c 128,-1,52
 587 1480 587 1480 804 1480 c 0,53,54
 904 1480 904 1480 962 1414.5 c 128,-1,55
 1020 1349 1020 1349 1020 1236 c 0,56,57
 1020 998 1020 998 892 748 c 128,-1,58
 764 498 764 498 542 307 c 1,59,60
 551 222 551 222 584.5 168.5 c 128,-1,61
 618 115 618 115 664 115 c 0,62,0
 715 115 715 115 775.5 158.5 c 128,-1,1
658.5 1226.5 m 128,-1,64
 604 1115 604 1115 574 925.5 c 128,-1,65
 544 736 544 736 540 504 c 1,66,67
 695 666 695 666 782 858.5 c 128,-1,68
 869 1051 869 1051 869 1229 c 0,69,70
 869 1338 869 1338 789 1338 c 0,71,63
 713 1338 713 1338 658.5 1226.5 c 128,-1,64
-787.5 941 m 128,-1,73
 -762 924 -762 924 -709 915 c 1,74,75
 -704 942 -704 942 -704 965 c 0,76,77
 -704 1001 -704 1001 -717.5 1024 c 128,-1,78
 -731 1047 -731 1047 -755 1047 c 0,79,80
 -780 1047 -780 1047 -796.5 1031 c 128,-1,81
 -813 1015 -813 1015 -813 989 c 0,82,72
 -813 958 -813 958 -787.5 941 c 128,-1,73
EndSplineSet
Validated: 33
EndChar

StartChar: s_e.liga
Encoding: 65567 -1 383
Width: 1200
GlyphClass: 3
Flags: W
LayerCount: 2
Fore
SplineSet
741 171 m 128,-1,1
 847 222 847 222 922 302 c 1,2,-1
 993 176 l 1,3,4
 902 85 902 85 768.5 30 c 128,-1,5
 635 -25 635 -25 516 -25 c 0,6,7
 425 -25 425 -25 351.5 18.5 c 128,-1,8
 278 62 278 62 237 139 c 128,-1,9
 196 216 196 216 196 315 c 1,10,11
 87 279 87 279 40 238 c 0,12,13
 -104 116 -104 116 -283 45.5 c 128,-1,14
 -462 -25 -462 -25 -642 -25 c 0,15,16
 -775 -25 -775 -25 -880 39.5 c 128,-1,17
 -985 104 -985 104 -1042 215 c 1,18,-1
 -905 282 l 1,19,20
 -872 207 -872 207 -799.5 161 c 128,-1,21
 -727 115 -727 115 -647 115 c 0,22,23
 -556 115 -556 115 -489 166.5 c 128,-1,24
 -422 218 -422 218 -385.5 310 c 128,-1,25
 -349 402 -349 402 -349 518 c 0,26,27
 -351 563 -351 563 -363.5 600.5 c 128,-1,28
 -376 638 -376 638 -404 685 c 1,29,30
 -488 592 -488 592 -613 530.5 c 128,-1,31
 -738 469 -738 469 -862 460 c 1,32,-1
 -880 602 l 1,33,34
 -769 606 -769 606 -662 662 c 128,-1,35
 -555 718 -555 718 -491 804 c 1,36,37
 -535 849 -535 849 -560 899 c 128,-1,38
 -585 949 -585 949 -584 987 c 0,39,40
 -588 1058 -588 1058 -542 1103.5 c 128,-1,41
 -496 1149 -496 1149 -422 1149 c 0,42,43
 -346 1149 -346 1149 -303 1104.5 c 128,-1,44
 -260 1060 -260 1060 -260 987 c 0,45,46
 -260 949 -260 949 -273.5 904.5 c 128,-1,47
 -287 860 -287 860 -313 822 c 1,48,49
 -204 669 -204 669 -204 524 c 0,50,51
 -204 419 -204 419 -227.5 338.5 c 128,-1,52
 -251 258 -251 258 -311 182 c 1,53,-1
 -265 202 l 2,54,55
 -209 224 -209 224 -157 254 c 128,-1,56
 -105 284 -105 284 -35 345 c 0,57,58
 29 400 29 400 204 455 c 1,59,60
 224 664 224 664 301 821 c 128,-1,61
 378 978 378 978 502.5 1063.5 c 128,-1,62
 627 1149 627 1149 784 1149 c 0,63,64
 909 1149 909 1149 977 1084.5 c 128,-1,65
 1045 1020 1045 1020 1045 895 c 0,66,67
 1045 742 1045 742 948 641 c 128,-1,68
 851 540 851 540 716.5 484.5 c 128,-1,69
 582 429 582 429 376 371 c 2,70,-1
 342 360 l 1,71,-1
 342 320 l 2,72,73
 342 233 342 233 399 176.5 c 128,-1,74
 456 120 456 120 540 120 c 0,75,0
 635 120 635 120 741 171 c 128,-1,1
-390 1033.5 m 128,-1,77
 -402 1047 -402 1047 -424 1049 c 0,78,79
 -444 1049 -444 1049 -455.5 1036.5 c 128,-1,80
 -467 1024 -467 1024 -467 1002 c 0,81,82
 -467 975 -467 975 -454.5 948.5 c 128,-1,83
 -442 922 -442 922 -415 885 c 1,84,85
 -393 920 -393 920 -385.5 945.5 c 128,-1,86
 -378 971 -378 971 -378 996 c 0,87,76
 -378 1020 -378 1020 -390 1033.5 c 128,-1,77
577.5 946.5 m 128,-1,89
 491 884 491 884 433 767.5 c 128,-1,90
 375 651 375 651 353 495 c 1,91,92
 529 542 529 542 638 583.5 c 128,-1,93
 747 625 747 625 823.5 697 c 128,-1,94
 900 769 900 769 900 880 c 0,95,96
 900 940 900 940 862.5 974.5 c 128,-1,97
 825 1009 825 1009 769 1009 c 0,98,88
 664 1009 664 1009 577.5 946.5 c 128,-1,89
EndSplineSet
Validated: 33
EndChar

